%
M48
M72
T01C0.02756
T02C0.03200
T03C0.04000
T04C0.04331
T05C0.05118
T06C0.12598
%
T01
X91800Y84800
X91800Y74800
T02
X187300Y79800
X197300Y79800
T03
X26800Y131800
X36800Y131800
X46800Y131800
X86800Y131800
X96800Y131800
X106800Y131800
X144300Y131800
X154300Y131800
X164300Y131800
X174300Y131800
X164300Y121800
X154300Y121800
X211800Y131800
X221800Y131800
X231800Y131800
X271800Y131800
X281800Y131800
X291800Y131800
T04
X59300Y44300
X69300Y44300
X79300Y44300
X89300Y44300
X99300Y44300
X109300Y44300
X119300Y44300
X129300Y44300
X139300Y44300
X149300Y44300
X159300Y44300
X169300Y44300
X179300Y44300
X189300Y44300
X199300Y44300
X209300Y44300
X219300Y44300
X229300Y44300
X239300Y44300
X249300Y44300
X244300Y34300
X234300Y34300
X224300Y34300
X214300Y34300
X204300Y34300
X194300Y34300
X184300Y34300
X174300Y34300
X164300Y34300
X154300Y34300
X144300Y34300
X134300Y34300
X124300Y34300
X114300Y34300
X104300Y34300
X94300Y34300
X84300Y34300
X74300Y34300
X64300Y34300
X59300Y24300
X69300Y24300
X79300Y24300
X89300Y24300
X99300Y24300
X109300Y24300
X119300Y24300
X129300Y24300
X139300Y24300
X149300Y24300
X159300Y24300
X169300Y24300
X179300Y24300
X189300Y24300
X199300Y24300
X209300Y24300
X219300Y24300
X229300Y24300
X239300Y24300
X249300Y24300
X244300Y14300
X234300Y14300
X224300Y14300
X214300Y14300
X204300Y14300
X194300Y14300
X184300Y14300
X174300Y14300
X164300Y14300
X154300Y14300
X144300Y14300
X134300Y14300
X124300Y14300
X114300Y14300
X104300Y14300
X94300Y14300
X84300Y14300
X74300Y14300
X64300Y14300
X254300Y34300
X254300Y14300
T05
X20800Y88020
X20800Y69910
X20800Y51800
X299300Y61800
X299300Y81485
T06
X26800Y29300
X286800Y29300
M30
