%
M48
M72
T01C0.0276
T02C0.0320
T03C0.0400
T04C0.0433
T05C0.0512
T06C0.1260
%
T01
X9180Y7480
X9180Y8480
T02
X18730Y7980
X19730Y7980
T03
X16430Y12180
X15430Y12180
X15430Y13180
X14430Y13180
X16430Y13180
X17430Y13180
X21180Y13180
X22180Y13180
X23180Y13180
X27180Y13180
X28180Y13180
X29180Y13180
X10680Y13180
X9680Y13180
X8680Y13180
X4680Y13180
X3680Y13180
X2680Y13180
T04
X5930Y4430
X6930Y4430
X7930Y4430
X8930Y4430
X9930Y4430
X10930Y4430
X11930Y4430
X12930Y4430
X13930Y4430
X14930Y4430
X15930Y4430
X16930Y4430
X17930Y4430
X18930Y4430
X19930Y4430
X20930Y4430
X21930Y4430
X22930Y4430
X23930Y4430
X24930Y4430
X24430Y3430
X23430Y3430
X22430Y3430
X21430Y3430
X20430Y3430
X19430Y3430
X18430Y3430
X17430Y3430
X16430Y3430
X15430Y3430
X14430Y3430
X13430Y3430
X12430Y3430
X11430Y3430
X10430Y3430
X9430Y3430
X8430Y3430
X7430Y3430
X6430Y3430
X5930Y2430
X6930Y2430
X7930Y2430
X8930Y2430
X9930Y2430
X10930Y2430
X11930Y2430
X12930Y2430
X13930Y2430
X14930Y2430
X15930Y2430
X16930Y2430
X17930Y2430
X18930Y2430
X19930Y2430
X20930Y2430
X21930Y2430
X22930Y2430
X23930Y2430
X24930Y2430
X24430Y1430
X23430Y1430
X22430Y1430
X21430Y1430
X20430Y1430
X19430Y1430
X18430Y1430
X17430Y1430
X16430Y1430
X15430Y1430
X14430Y1430
X13430Y1430
X12430Y1430
X11430Y1430
X10430Y1430
X9430Y1430
X8430Y1430
X7430Y1430
X6430Y1430
X25430Y1430
X25430Y3430
T05
X29930Y6180
X29930Y8149
X2080Y8802
X2080Y6991
X2080Y5180
T06
X2680Y2930
X28680Y2930
M30
