G75*
%MOIN*%
%OFA0B0*%
%FSLAX25Y25*%
%IPPOS*%
%LPD*%
%AMOC8*
5,1,8,0,0,1.08239X$1,22.5*
%
%ADD10C,0.13198*%
%ADD11R,0.03750X0.04143*%
%ADD12R,0.04931X0.04537*%
%ADD13C,0.08000*%
%ADD14R,0.05399X0.09399*%
%ADD15R,0.14773X0.09261*%
%ADD16C,0.07100*%
%ADD17R,0.07100X0.07100*%
%ADD18R,0.08000X0.08000*%
%ADD19R,0.08600X0.08600*%
%ADD20C,0.08600*%
%ADD21C,0.08277*%
%ADD22C,0.07600*%
%ADD23C,0.04537*%
D10*
X0026800Y0029300D03*
X0286800Y0029300D03*
D11*
X0285540Y0107863D03*
X0278060Y0107863D03*
X0281800Y0116131D03*
X0225540Y0107863D03*
X0218060Y0107863D03*
X0221800Y0116131D03*
X0100540Y0107863D03*
X0093060Y0107863D03*
X0096800Y0116131D03*
X0040540Y0107863D03*
X0033060Y0107863D03*
X0036800Y0116131D03*
D12*
X0020146Y0116800D03*
X0013454Y0116800D03*
X0013454Y0106800D03*
X0020146Y0106800D03*
X0053454Y0106800D03*
X0060146Y0106800D03*
X0060146Y0116800D03*
X0053454Y0116800D03*
X0073454Y0116800D03*
X0080146Y0116800D03*
X0113454Y0116800D03*
X0120146Y0116800D03*
X0198454Y0116800D03*
X0205146Y0116800D03*
X0205146Y0106800D03*
X0198454Y0106800D03*
X0238454Y0106800D03*
X0245146Y0106800D03*
X0258454Y0106800D03*
X0265146Y0106800D03*
X0265146Y0116800D03*
X0258454Y0116800D03*
X0298454Y0116800D03*
X0305146Y0116800D03*
X0305146Y0106800D03*
X0298454Y0106800D03*
D13*
X0291800Y0131800D03*
X0281800Y0131800D03*
X0271800Y0131800D03*
X0231800Y0131800D03*
X0221800Y0131800D03*
X0211800Y0131800D03*
X0164300Y0131800D03*
X0154300Y0131800D03*
X0144300Y0131800D03*
X0154300Y0121800D03*
X0164300Y0121800D03*
X0106800Y0131800D03*
X0096800Y0131800D03*
X0086800Y0131800D03*
X0046800Y0131800D03*
X0036800Y0131800D03*
X0026800Y0131800D03*
X0187300Y0079800D03*
X0197300Y0079800D03*
D14*
X0232702Y0089001D03*
X0241800Y0089001D03*
X0250898Y0089001D03*
D15*
X0241800Y0064599D03*
D16*
X0091800Y0074800D03*
D17*
X0091800Y0084800D03*
D18*
X0174300Y0131800D03*
D19*
X0299300Y0061800D03*
D20*
X0299300Y0081485D03*
D21*
X0020800Y0088020D03*
X0020800Y0069910D03*
X0020800Y0051800D03*
D22*
X0059300Y0044300D03*
X0069300Y0044300D03*
X0079300Y0044300D03*
X0089300Y0044300D03*
X0099300Y0044300D03*
X0109300Y0044300D03*
X0119300Y0044300D03*
X0129300Y0044300D03*
X0139300Y0044300D03*
X0149300Y0044300D03*
X0159300Y0044300D03*
X0169300Y0044300D03*
X0179300Y0044300D03*
X0189300Y0044300D03*
X0199300Y0044300D03*
X0209300Y0044300D03*
X0219300Y0044300D03*
X0229300Y0044300D03*
X0239300Y0044300D03*
X0249300Y0044300D03*
X0244300Y0034300D03*
X0234300Y0034300D03*
X0224300Y0034300D03*
X0214300Y0034300D03*
X0204300Y0034300D03*
X0194300Y0034300D03*
X0184300Y0034300D03*
X0174300Y0034300D03*
X0164300Y0034300D03*
X0154300Y0034300D03*
X0144300Y0034300D03*
X0134300Y0034300D03*
X0124300Y0034300D03*
X0114300Y0034300D03*
X0104300Y0034300D03*
X0094300Y0034300D03*
X0084300Y0034300D03*
X0074300Y0034300D03*
X0064300Y0034300D03*
X0059300Y0024300D03*
X0069300Y0024300D03*
X0079300Y0024300D03*
X0089300Y0024300D03*
X0099300Y0024300D03*
X0109300Y0024300D03*
X0119300Y0024300D03*
X0129300Y0024300D03*
X0139300Y0024300D03*
X0149300Y0024300D03*
X0159300Y0024300D03*
X0169300Y0024300D03*
X0179300Y0024300D03*
X0189300Y0024300D03*
X0199300Y0024300D03*
X0209300Y0024300D03*
X0219300Y0024300D03*
X0229300Y0024300D03*
X0239300Y0024300D03*
X0249300Y0024300D03*
X0244300Y0014300D03*
X0234300Y0014300D03*
X0224300Y0014300D03*
X0214300Y0014300D03*
X0204300Y0014300D03*
X0194300Y0014300D03*
X0184300Y0014300D03*
X0174300Y0014300D03*
X0164300Y0014300D03*
X0154300Y0014300D03*
X0144300Y0014300D03*
X0134300Y0014300D03*
X0124300Y0014300D03*
X0114300Y0014300D03*
X0104300Y0014300D03*
X0094300Y0014300D03*
X0084300Y0014300D03*
X0074300Y0014300D03*
X0064300Y0014300D03*
X0254300Y0014300D03*
X0254300Y0034300D03*
D23*
X0261800Y0056800D03*
X0221800Y0089300D03*
X0196800Y0056800D03*
X0076800Y0056800D03*
X0061800Y0056800D03*
M02*
