G75*
%MOIN*%
%OFA0B0*%
%FSLAX25Y25*%
%IPPOS*%
%LPD*%
%AMOC8*
5,1,8,0,0,1.08239X$1,22.5*
%
%ADD10R,0.03150X0.03543*%
%ADD11R,0.04331X0.03937*%
%ADD12C,0.07400*%
%ADD13R,0.04799X0.08799*%
%ADD14R,0.14173X0.08661*%
%ADD15C,0.06500*%
%ADD16R,0.06500X0.06500*%
%ADD17R,0.07400X0.07400*%
%ADD18R,0.08000X0.08000*%
%ADD19C,0.08000*%
%ADD20C,0.07677*%
%ADD21C,0.07000*%
%ADD22C,0.03937*%
%ADD23C,0.01600*%
%ADD24C,0.00600*%
D10*
X0033060Y0107863D03*
X0040540Y0107863D03*
X0036800Y0116131D03*
X0093060Y0107863D03*
X0100540Y0107863D03*
X0096800Y0116131D03*
X0218060Y0107863D03*
X0225540Y0107863D03*
X0221800Y0116131D03*
X0278060Y0107863D03*
X0285540Y0107863D03*
X0281800Y0116131D03*
D11*
X0265146Y0116800D03*
X0258454Y0116800D03*
X0258454Y0106800D03*
X0265146Y0106800D03*
X0245146Y0106800D03*
X0238454Y0106800D03*
X0205146Y0106800D03*
X0198454Y0106800D03*
X0198454Y0116800D03*
X0205146Y0116800D03*
X0120146Y0116800D03*
X0113454Y0116800D03*
X0080146Y0116800D03*
X0073454Y0116800D03*
X0060146Y0116800D03*
X0053454Y0116800D03*
X0053454Y0106800D03*
X0060146Y0106800D03*
X0020146Y0106800D03*
X0013454Y0106800D03*
X0013454Y0116800D03*
X0020146Y0116800D03*
X0298454Y0116800D03*
X0305146Y0116800D03*
X0305146Y0106800D03*
X0298454Y0106800D03*
D12*
X0291800Y0131800D03*
X0281800Y0131800D03*
X0271800Y0131800D03*
X0231800Y0131800D03*
X0221800Y0131800D03*
X0211800Y0131800D03*
X0164300Y0131800D03*
X0154300Y0131800D03*
X0144300Y0131800D03*
X0154300Y0121800D03*
X0164300Y0121800D03*
X0106800Y0131800D03*
X0096800Y0131800D03*
X0086800Y0131800D03*
X0046800Y0131800D03*
X0036800Y0131800D03*
X0026800Y0131800D03*
X0187300Y0079800D03*
X0197300Y0079800D03*
D13*
X0232702Y0089001D03*
X0241800Y0089001D03*
X0250898Y0089001D03*
D14*
X0241800Y0064599D03*
D15*
X0091800Y0074800D03*
D16*
X0091800Y0084800D03*
D17*
X0174300Y0131800D03*
D18*
X0299300Y0061800D03*
D19*
X0299300Y0081485D03*
D20*
X0020800Y0088020D03*
X0020800Y0069910D03*
X0020800Y0051800D03*
D21*
X0059300Y0044300D03*
X0069300Y0044300D03*
X0079300Y0044300D03*
X0089300Y0044300D03*
X0099300Y0044300D03*
X0109300Y0044300D03*
X0119300Y0044300D03*
X0129300Y0044300D03*
X0139300Y0044300D03*
X0149300Y0044300D03*
X0159300Y0044300D03*
X0169300Y0044300D03*
X0179300Y0044300D03*
X0189300Y0044300D03*
X0199300Y0044300D03*
X0209300Y0044300D03*
X0219300Y0044300D03*
X0229300Y0044300D03*
X0239300Y0044300D03*
X0249300Y0044300D03*
X0244300Y0034300D03*
X0234300Y0034300D03*
X0224300Y0034300D03*
X0214300Y0034300D03*
X0204300Y0034300D03*
X0194300Y0034300D03*
X0184300Y0034300D03*
X0174300Y0034300D03*
X0164300Y0034300D03*
X0154300Y0034300D03*
X0144300Y0034300D03*
X0134300Y0034300D03*
X0124300Y0034300D03*
X0114300Y0034300D03*
X0104300Y0034300D03*
X0094300Y0034300D03*
X0084300Y0034300D03*
X0074300Y0034300D03*
X0064300Y0034300D03*
X0059300Y0024300D03*
X0069300Y0024300D03*
X0079300Y0024300D03*
X0089300Y0024300D03*
X0099300Y0024300D03*
X0109300Y0024300D03*
X0119300Y0024300D03*
X0129300Y0024300D03*
X0139300Y0024300D03*
X0149300Y0024300D03*
X0159300Y0024300D03*
X0169300Y0024300D03*
X0179300Y0024300D03*
X0189300Y0024300D03*
X0199300Y0024300D03*
X0209300Y0024300D03*
X0219300Y0024300D03*
X0229300Y0024300D03*
X0239300Y0024300D03*
X0249300Y0024300D03*
X0244300Y0014300D03*
X0234300Y0014300D03*
X0224300Y0014300D03*
X0214300Y0014300D03*
X0204300Y0014300D03*
X0194300Y0014300D03*
X0184300Y0014300D03*
X0174300Y0014300D03*
X0164300Y0014300D03*
X0154300Y0014300D03*
X0144300Y0014300D03*
X0134300Y0014300D03*
X0124300Y0014300D03*
X0114300Y0014300D03*
X0104300Y0014300D03*
X0094300Y0014300D03*
X0084300Y0014300D03*
X0074300Y0014300D03*
X0064300Y0014300D03*
X0254300Y0014300D03*
X0254300Y0034300D03*
D22*
X0261800Y0056800D03*
X0221800Y0089300D03*
X0196800Y0056800D03*
X0076800Y0056800D03*
X0061800Y0056800D03*
D23*
X0004900Y0004900D02*
X0004900Y0153700D01*
X0313700Y0153700D01*
X0313700Y0004900D01*
X0004900Y0004900D01*
X0004900Y0004997D02*
X0313700Y0004997D01*
X0313700Y0006596D02*
X0004900Y0006596D01*
X0004900Y0008194D02*
X0060502Y0008194D01*
X0060100Y0008596D02*
X0061096Y0007600D01*
X0090004Y0007600D01*
X0091000Y0008596D01*
X0091000Y0010670D01*
X0091524Y0010146D01*
X0093325Y0009400D01*
X0095275Y0009400D01*
X0097076Y0010146D01*
X0098454Y0011524D01*
X0099200Y0013325D01*
X0099200Y0015275D01*
X0098454Y0017076D01*
X0097076Y0018454D01*
X0095275Y0019200D01*
X0093325Y0019200D01*
X0091524Y0018454D01*
X0091000Y0017930D01*
X0091000Y0019700D01*
X0092076Y0020146D01*
X0093454Y0021524D01*
X0094200Y0023325D01*
X0094200Y0025275D01*
X0093454Y0027076D01*
X0092076Y0028454D01*
X0090275Y0029200D01*
X0088325Y0029200D01*
X0086524Y0028454D01*
X0085146Y0027076D01*
X0084400Y0025275D01*
X0084400Y0023325D01*
X0085146Y0021524D01*
X0086524Y0020146D01*
X0087600Y0019700D01*
X0087600Y0017930D01*
X0087076Y0018454D01*
X0085275Y0019200D01*
X0083325Y0019200D01*
X0081524Y0018454D01*
X0080146Y0017076D01*
X0079400Y0015275D01*
X0079400Y0013325D01*
X0080146Y0011524D01*
X0080670Y0011000D01*
X0077930Y0011000D01*
X0078454Y0011524D01*
X0079200Y0013325D01*
X0079200Y0015275D01*
X0078454Y0017076D01*
X0077076Y0018454D01*
X0076000Y0018900D01*
X0076000Y0020670D01*
X0076524Y0020146D01*
X0078325Y0019400D01*
X0080275Y0019400D01*
X0082076Y0020146D01*
X0083454Y0021524D01*
X0084200Y0023325D01*
X0084200Y0025275D01*
X0083454Y0027076D01*
X0082076Y0028454D01*
X0081000Y0028900D01*
X0081000Y0030670D01*
X0081524Y0030146D01*
X0083325Y0029400D01*
X0085275Y0029400D01*
X0087076Y0030146D01*
X0088454Y0031524D01*
X0089200Y0033325D01*
X0089200Y0035275D01*
X0088454Y0037076D01*
X0087076Y0038454D01*
X0085275Y0039200D01*
X0084104Y0039200D01*
X0085004Y0040100D01*
X0085004Y0040100D01*
X0085787Y0040883D01*
X0086524Y0040146D01*
X0088325Y0039400D01*
X0090275Y0039400D01*
X0092076Y0040146D01*
X0093454Y0041524D01*
X0094200Y0043325D01*
X0094200Y0045275D01*
X0093454Y0047076D01*
X0092076Y0048454D01*
X0090275Y0049200D01*
X0088325Y0049200D01*
X0086524Y0048454D01*
X0086000Y0047930D01*
X0086000Y0091096D01*
X0099595Y0104691D01*
X0102287Y0104691D01*
X0091096Y0093500D01*
X0090100Y0092504D01*
X0090100Y0089450D01*
X0087970Y0089450D01*
X0087150Y0088630D01*
X0087150Y0080970D01*
X0087970Y0080150D01*
X0095630Y0080150D01*
X0096450Y0080970D01*
X0096450Y0088630D01*
X0095630Y0089450D01*
X0093500Y0089450D01*
X0093500Y0091096D01*
X0107504Y0105100D01*
X0111184Y0105100D01*
X0111251Y0105044D01*
X0111876Y0105100D01*
X0112504Y0105100D01*
X0112566Y0105162D01*
X0112654Y0105170D01*
X0113056Y0105652D01*
X0113500Y0106096D01*
X0113500Y0106184D01*
X0119549Y0113431D01*
X0122892Y0113431D01*
X0123712Y0114252D01*
X0123712Y0115100D01*
X0192600Y0115100D01*
X0192600Y0113596D01*
X0196027Y0110168D01*
X0195708Y0110168D01*
X0194888Y0109348D01*
X0194888Y0104252D01*
X0195708Y0103431D01*
X0198527Y0103431D01*
X0197600Y0102504D01*
X0197600Y0084900D01*
X0196286Y0084900D01*
X0194411Y0084124D01*
X0192976Y0082689D01*
X0192510Y0081563D01*
X0192397Y0081911D01*
X0192004Y0082683D01*
X0191495Y0083383D01*
X0190883Y0083995D01*
X0190183Y0084504D01*
X0189411Y0084897D01*
X0188588Y0085165D01*
X0187733Y0085300D01*
X0187300Y0085300D01*
X0187300Y0079800D01*
X0187300Y0079800D01*
X0187300Y0074300D01*
X0187733Y0074300D01*
X0188588Y0074435D01*
X0189411Y0074703D01*
X0190183Y0075096D01*
X0190883Y0075605D01*
X0191495Y0076217D01*
X0192004Y0076917D01*
X0192397Y0077689D01*
X0192510Y0078037D01*
X0192976Y0076911D01*
X0194411Y0075476D01*
X0196286Y0074700D01*
X0198314Y0074700D01*
X0200189Y0075476D01*
X0201624Y0076911D01*
X0202400Y0078786D01*
X0202400Y0080814D01*
X0201624Y0082689D01*
X0201000Y0083312D01*
X0201000Y0101096D01*
X0203336Y0103431D01*
X0207892Y0103431D01*
X0208712Y0104252D01*
X0208712Y0107600D01*
X0215085Y0107600D01*
X0215085Y0105511D01*
X0215905Y0104691D01*
X0219787Y0104691D01*
X0203596Y0088500D01*
X0202600Y0087504D01*
X0202600Y0058500D01*
X0199742Y0058500D01*
X0199656Y0058708D01*
X0198708Y0059656D01*
X0197470Y0060168D01*
X0196130Y0060168D01*
X0194892Y0059656D01*
X0193944Y0058708D01*
X0193431Y0057470D01*
X0193431Y0056130D01*
X0193944Y0054892D01*
X0194892Y0053944D01*
X0196130Y0053431D01*
X0197470Y0053431D01*
X0198708Y0053944D01*
X0199656Y0054892D01*
X0199742Y0055100D01*
X0200196Y0055100D01*
X0193596Y0048500D01*
X0192813Y0047717D01*
X0192076Y0048454D01*
X0190275Y0049200D01*
X0188325Y0049200D01*
X0186524Y0048454D01*
X0185146Y0047076D01*
X0184400Y0045275D01*
X0184400Y0043325D01*
X0185146Y0041524D01*
X0186524Y0040146D01*
X0188325Y0039400D01*
X0189496Y0039400D01*
X0188596Y0038500D01*
X0187813Y0037717D01*
X0187076Y0038454D01*
X0185275Y0039200D01*
X0183325Y0039200D01*
X0181524Y0038454D01*
X0180146Y0037076D01*
X0179400Y0035275D01*
X0179400Y0033325D01*
X0180146Y0031524D01*
X0181524Y0030146D01*
X0183325Y0029400D01*
X0184496Y0029400D01*
X0183596Y0028500D01*
X0182813Y0027717D01*
X0182076Y0028454D01*
X0180275Y0029200D01*
X0178325Y0029200D01*
X0176524Y0028454D01*
X0175146Y0027076D01*
X0174400Y0025275D01*
X0174400Y0023325D01*
X0175146Y0021524D01*
X0176524Y0020146D01*
X0178325Y0019400D01*
X0180275Y0019400D01*
X0182076Y0020146D01*
X0182600Y0020670D01*
X0182600Y0018900D01*
X0181524Y0018454D01*
X0180146Y0017076D01*
X0179400Y0015275D01*
X0179400Y0013325D01*
X0180146Y0011524D01*
X0180670Y0011000D01*
X0177930Y0011000D01*
X0178454Y0011524D01*
X0179200Y0013325D01*
X0179200Y0015275D01*
X0178454Y0017076D01*
X0177076Y0018454D01*
X0175275Y0019200D01*
X0173325Y0019200D01*
X0171524Y0018454D01*
X0170146Y0017076D01*
X0169400Y0015275D01*
X0169400Y0013325D01*
X0170146Y0011524D01*
X0170670Y0011000D01*
X0167930Y0011000D01*
X0168454Y0011524D01*
X0169200Y0013325D01*
X0169200Y0015275D01*
X0168454Y0017076D01*
X0167076Y0018454D01*
X0165275Y0019200D01*
X0163325Y0019200D01*
X0161524Y0018454D01*
X0161000Y0017930D01*
X0161000Y0019700D01*
X0162076Y0020146D01*
X0163454Y0021524D01*
X0164200Y0023325D01*
X0164200Y0025275D01*
X0163454Y0027076D01*
X0162076Y0028454D01*
X0160275Y0029200D01*
X0158325Y0029200D01*
X0156524Y0028454D01*
X0155146Y0027076D01*
X0154700Y0026000D01*
X0153900Y0026000D01*
X0153454Y0027076D01*
X0152076Y0028454D01*
X0150275Y0029200D01*
X0148325Y0029200D01*
X0146524Y0028454D01*
X0145146Y0027076D01*
X0144400Y0025275D01*
X0144400Y0023325D01*
X0145146Y0021524D01*
X0146524Y0020146D01*
X0148325Y0019400D01*
X0150275Y0019400D01*
X0152076Y0020146D01*
X0153454Y0021524D01*
X0153900Y0022600D01*
X0154700Y0022600D01*
X0155146Y0021524D01*
X0156524Y0020146D01*
X0157600Y0019700D01*
X0157600Y0017930D01*
X0157076Y0018454D01*
X0155275Y0019200D01*
X0153325Y0019200D01*
X0151524Y0018454D01*
X0150146Y0017076D01*
X0149400Y0015275D01*
X0149400Y0013325D01*
X0150146Y0011524D01*
X0150670Y0011000D01*
X0147930Y0011000D01*
X0148454Y0011524D01*
X0149200Y0013325D01*
X0149200Y0015275D01*
X0148454Y0017076D01*
X0147076Y0018454D01*
X0145275Y0019200D01*
X0143325Y0019200D01*
X0141524Y0018454D01*
X0141000Y0017930D01*
X0141000Y0019700D01*
X0142076Y0020146D01*
X0143454Y0021524D01*
X0144200Y0023325D01*
X0144200Y0025275D01*
X0143454Y0027076D01*
X0142076Y0028454D01*
X0140275Y0029200D01*
X0138325Y0029200D01*
X0136524Y0028454D01*
X0135146Y0027076D01*
X0134400Y0025275D01*
X0134400Y0023325D01*
X0135146Y0021524D01*
X0136524Y0020146D01*
X0137600Y0019700D01*
X0137600Y0017930D01*
X0137076Y0018454D01*
X0135275Y0019200D01*
X0133325Y0019200D01*
X0131524Y0018454D01*
X0130146Y0017076D01*
X0129400Y0015275D01*
X0129400Y0013325D01*
X0130146Y0011524D01*
X0131524Y0010146D01*
X0133325Y0009400D01*
X0135275Y0009400D01*
X0137076Y0010146D01*
X0137600Y0010670D01*
X0137600Y0008596D01*
X0138596Y0007600D01*
X0247504Y0007600D01*
X0248500Y0008596D01*
X0250504Y0010600D01*
X0250847Y0010257D01*
X0251522Y0009767D01*
X0252266Y0009388D01*
X0253059Y0009130D01*
X0253883Y0009000D01*
X0254017Y0009000D01*
X0254017Y0014017D01*
X0254583Y0014017D01*
X0254583Y0014583D01*
X0254017Y0014583D01*
X0254017Y0019113D01*
X0256000Y0021096D01*
X0256000Y0026096D01*
X0276254Y0046350D01*
X0277250Y0047346D01*
X0293900Y0063996D01*
X0293900Y0057220D01*
X0294720Y0056400D01*
X0303880Y0056400D01*
X0304700Y0057220D01*
X0304700Y0066380D01*
X0303880Y0067200D01*
X0297104Y0067200D01*
X0311000Y0081096D01*
X0311000Y0112504D01*
X0310004Y0113500D01*
X0307960Y0113500D01*
X0308712Y0114252D01*
X0308712Y0119348D01*
X0307892Y0120168D01*
X0303336Y0120168D01*
X0295358Y0128146D01*
X0296124Y0128911D01*
X0296900Y0130786D01*
X0296900Y0132814D01*
X0296124Y0134689D01*
X0294689Y0136124D01*
X0292814Y0136900D01*
X0290786Y0136900D01*
X0288911Y0136124D01*
X0287476Y0134689D01*
X0286800Y0133056D01*
X0286124Y0134689D01*
X0284689Y0136124D01*
X0282814Y0136900D01*
X0280786Y0136900D01*
X0278911Y0136124D01*
X0277476Y0134689D01*
X0277010Y0133563D01*
X0276897Y0133911D01*
X0276504Y0134683D01*
X0275995Y0135383D01*
X0275383Y0135995D01*
X0274683Y0136504D01*
X0273911Y0136897D01*
X0273088Y0137165D01*
X0272233Y0137300D01*
X0272000Y0137300D01*
X0272000Y0132000D01*
X0271600Y0132000D01*
X0271600Y0137300D01*
X0271367Y0137300D01*
X0270512Y0137165D01*
X0269689Y0136897D01*
X0268917Y0136504D01*
X0268217Y0135995D01*
X0267605Y0135383D01*
X0267096Y0134683D01*
X0266703Y0133911D01*
X0266435Y0133088D01*
X0266300Y0132233D01*
X0266300Y0132000D01*
X0271600Y0132000D01*
X0271600Y0131600D01*
X0266300Y0131600D01*
X0266300Y0131367D01*
X0266435Y0130512D01*
X0266703Y0129689D01*
X0267096Y0128917D01*
X0267605Y0128217D01*
X0267959Y0127863D01*
X0267600Y0127504D01*
X0260264Y0120168D01*
X0255708Y0120168D01*
X0254888Y0119348D01*
X0254888Y0114252D01*
X0255708Y0113431D01*
X0257600Y0113431D01*
X0257600Y0111096D01*
X0258127Y0110568D01*
X0256051Y0110568D01*
X0255593Y0110446D01*
X0255183Y0110209D01*
X0254848Y0109874D01*
X0254611Y0109463D01*
X0254488Y0109005D01*
X0254488Y0106984D01*
X0258269Y0106984D01*
X0258269Y0106616D01*
X0254488Y0106616D01*
X0254488Y0104595D01*
X0254611Y0104137D01*
X0254848Y0103726D01*
X0255183Y0103391D01*
X0255593Y0103154D01*
X0256051Y0103031D01*
X0258269Y0103031D01*
X0258269Y0106616D01*
X0258638Y0106616D01*
X0258638Y0103031D01*
X0260856Y0103031D01*
X0261314Y0103154D01*
X0261724Y0103391D01*
X0262059Y0103726D01*
X0262077Y0103756D01*
X0262401Y0103431D01*
X0262600Y0103431D01*
X0262600Y0102504D01*
X0254387Y0094291D01*
X0253878Y0094800D01*
X0247919Y0094800D01*
X0247099Y0093980D01*
X0247099Y0084021D01*
X0247620Y0083500D01*
X0245642Y0083500D01*
X0245877Y0083906D01*
X0246000Y0084364D01*
X0246000Y0088601D01*
X0242200Y0088601D01*
X0242200Y0089401D01*
X0241400Y0089401D01*
X0241400Y0095200D01*
X0239163Y0095200D01*
X0238706Y0095078D01*
X0238295Y0094841D01*
X0237960Y0094506D01*
X0237723Y0094095D01*
X0237600Y0093637D01*
X0237600Y0089401D01*
X0241400Y0089401D01*
X0241400Y0088601D01*
X0237600Y0088601D01*
X0237600Y0084364D01*
X0237723Y0083906D01*
X0237958Y0083500D01*
X0236000Y0083500D01*
X0236000Y0083520D01*
X0236501Y0084021D01*
X0236501Y0093980D01*
X0236000Y0094481D01*
X0236000Y0096096D01*
X0243336Y0103431D01*
X0247892Y0103431D01*
X0248712Y0104252D01*
X0248712Y0109348D01*
X0247892Y0110168D01*
X0243336Y0110168D01*
X0241000Y0112504D01*
X0240004Y0113500D01*
X0224496Y0113500D01*
X0224775Y0113779D01*
X0224775Y0117371D01*
X0232504Y0125100D01*
X0232504Y0125100D01*
X0233500Y0126096D01*
X0233500Y0126984D01*
X0234689Y0127476D01*
X0236124Y0128911D01*
X0236900Y0130786D01*
X0236900Y0132814D01*
X0236124Y0134689D01*
X0234689Y0136124D01*
X0232814Y0136900D01*
X0230786Y0136900D01*
X0228911Y0136124D01*
X0227476Y0134689D01*
X0226800Y0133056D01*
X0226124Y0134689D01*
X0224689Y0136124D01*
X0222814Y0136900D01*
X0220786Y0136900D01*
X0218911Y0136124D01*
X0217476Y0134689D01*
X0217010Y0133563D01*
X0216897Y0133911D01*
X0216504Y0134683D01*
X0215995Y0135383D01*
X0215383Y0135995D01*
X0214683Y0136504D01*
X0213911Y0136897D01*
X0213088Y0137165D01*
X0212233Y0137300D01*
X0212000Y0137300D01*
X0212000Y0132000D01*
X0211600Y0132000D01*
X0211600Y0137300D01*
X0211367Y0137300D01*
X0210512Y0137165D01*
X0209689Y0136897D01*
X0208917Y0136504D01*
X0208217Y0135995D01*
X0207605Y0135383D01*
X0207096Y0134683D01*
X0206703Y0133911D01*
X0206435Y0133088D01*
X0206300Y0132233D01*
X0206300Y0132000D01*
X0211600Y0132000D01*
X0211600Y0131600D01*
X0206300Y0131600D01*
X0206300Y0131367D01*
X0206435Y0130512D01*
X0206703Y0129689D01*
X0207096Y0128917D01*
X0207605Y0128217D01*
X0207959Y0127863D01*
X0207600Y0127504D01*
X0200264Y0120168D01*
X0195708Y0120168D01*
X0194888Y0119348D01*
X0194888Y0118500D01*
X0168212Y0118500D01*
X0168624Y0118911D01*
X0169400Y0120786D01*
X0169400Y0122814D01*
X0168624Y0124689D01*
X0167189Y0126124D01*
X0165556Y0126800D01*
X0167189Y0127476D01*
X0168624Y0128911D01*
X0169200Y0130303D01*
X0169200Y0127520D01*
X0170020Y0126700D01*
X0178580Y0126700D01*
X0179400Y0127520D01*
X0179400Y0136080D01*
X0178580Y0136900D01*
X0170020Y0136900D01*
X0169200Y0136080D01*
X0169200Y0133297D01*
X0168624Y0134689D01*
X0167189Y0136124D01*
X0165314Y0136900D01*
X0163286Y0136900D01*
X0161411Y0136124D01*
X0159976Y0134689D01*
X0159300Y0133056D01*
X0158624Y0134689D01*
X0157189Y0136124D01*
X0155314Y0136900D01*
X0153286Y0136900D01*
X0151411Y0136124D01*
X0149976Y0134689D01*
X0149300Y0133056D01*
X0148624Y0134689D01*
X0147189Y0136124D01*
X0145314Y0136900D01*
X0143286Y0136900D01*
X0141411Y0136124D01*
X0139976Y0134689D01*
X0139200Y0132814D01*
X0139200Y0130786D01*
X0139976Y0128911D01*
X0141411Y0127476D01*
X0143286Y0126700D01*
X0145314Y0126700D01*
X0147189Y0127476D01*
X0148624Y0128911D01*
X0149300Y0130544D01*
X0149976Y0128911D01*
X0151411Y0127476D01*
X0153044Y0126800D01*
X0151411Y0126124D01*
X0149976Y0124689D01*
X0149484Y0123500D01*
X0142504Y0123500D01*
X0123500Y0142504D01*
X0122504Y0143500D01*
X0026096Y0143500D01*
X0006096Y0123500D01*
X0005100Y0122504D01*
X0005100Y0086879D01*
X0005042Y0086257D01*
X0005100Y0086187D01*
X0005100Y0086096D01*
X0005542Y0085654D01*
X0016283Y0072695D01*
X0015561Y0070952D01*
X0015561Y0068868D01*
X0016359Y0066943D01*
X0017833Y0065469D01*
X0019758Y0064672D01*
X0021842Y0064672D01*
X0023767Y0065469D01*
X0025241Y0066943D01*
X0026039Y0068868D01*
X0026039Y0070952D01*
X0025241Y0072878D01*
X0023767Y0074351D01*
X0021842Y0075149D01*
X0019758Y0075149D01*
X0018945Y0074812D01*
X0008500Y0087413D01*
X0008500Y0121096D01*
X0022120Y0134716D01*
X0022096Y0134683D01*
X0021703Y0133911D01*
X0021435Y0133088D01*
X0021300Y0132233D01*
X0021300Y0132000D01*
X0026600Y0132000D01*
X0026600Y0137300D01*
X0026367Y0137300D01*
X0025512Y0137165D01*
X0024689Y0136897D01*
X0023917Y0136504D01*
X0023884Y0136480D01*
X0027504Y0140100D01*
X0085196Y0140100D01*
X0085100Y0140004D01*
X0067600Y0122504D01*
X0067600Y0108500D01*
X0063712Y0108500D01*
X0063712Y0109348D01*
X0062892Y0110168D01*
X0061000Y0110168D01*
X0061000Y0112504D01*
X0060073Y0113431D01*
X0062892Y0113431D01*
X0063712Y0114252D01*
X0063712Y0119348D01*
X0062892Y0120168D01*
X0058336Y0120168D01*
X0050358Y0128146D01*
X0051124Y0128911D01*
X0051900Y0130786D01*
X0051900Y0132814D01*
X0051124Y0134689D01*
X0049689Y0136124D01*
X0047814Y0136900D01*
X0045786Y0136900D01*
X0043911Y0136124D01*
X0042476Y0134689D01*
X0041800Y0133056D01*
X0041124Y0134689D01*
X0039689Y0136124D01*
X0037814Y0136900D01*
X0035786Y0136900D01*
X0033911Y0136124D01*
X0032476Y0134689D01*
X0032010Y0133563D01*
X0031897Y0133911D01*
X0031504Y0134683D01*
X0030995Y0135383D01*
X0030383Y0135995D01*
X0029683Y0136504D01*
X0028911Y0136897D01*
X0028088Y0137165D01*
X0027233Y0137300D01*
X0027000Y0137300D01*
X0027000Y0132000D01*
X0026600Y0132000D01*
X0026600Y0131600D01*
X0021300Y0131600D01*
X0021300Y0131367D01*
X0021435Y0130512D01*
X0021703Y0129689D01*
X0022096Y0128917D01*
X0022605Y0128217D01*
X0022959Y0127863D01*
X0022600Y0127504D01*
X0015264Y0120168D01*
X0010708Y0120168D01*
X0009888Y0119348D01*
X0009888Y0114252D01*
X0010708Y0113431D01*
X0012600Y0113431D01*
X0012600Y0110168D01*
X0010708Y0110168D01*
X0009888Y0109348D01*
X0009888Y0104252D01*
X0010708Y0103431D01*
X0016199Y0103431D01*
X0016800Y0104033D01*
X0017401Y0103431D01*
X0022892Y0103431D01*
X0023712Y0104252D01*
X0023712Y0105100D01*
X0024096Y0105100D01*
X0027600Y0101596D01*
X0027600Y0058225D01*
X0024069Y0055940D01*
X0023767Y0056241D01*
X0021842Y0057039D01*
X0019758Y0057039D01*
X0017833Y0056241D01*
X0016359Y0054767D01*
X0015561Y0052842D01*
X0015561Y0050758D01*
X0016359Y0048833D01*
X0017833Y0047359D01*
X0019758Y0046561D01*
X0021842Y0046561D01*
X0023767Y0047359D01*
X0025241Y0048833D01*
X0026039Y0050758D01*
X0026039Y0052842D01*
X0025933Y0053097D01*
X0029802Y0055600D01*
X0030004Y0055600D01*
X0030375Y0055971D01*
X0030815Y0056255D01*
X0030857Y0056453D01*
X0031000Y0056596D01*
X0031000Y0057120D01*
X0031110Y0057632D01*
X0031000Y0057802D01*
X0031000Y0103004D01*
X0030004Y0104000D01*
X0025504Y0108500D01*
X0023712Y0108500D01*
X0023712Y0109348D01*
X0022892Y0110168D01*
X0017401Y0110168D01*
X0016800Y0109567D01*
X0016199Y0110168D01*
X0016000Y0110168D01*
X0016000Y0113431D01*
X0016199Y0113431D01*
X0016800Y0114033D01*
X0017401Y0113431D01*
X0022892Y0113431D01*
X0023712Y0114252D01*
X0023712Y0115100D01*
X0033825Y0115100D01*
X0033825Y0113779D01*
X0034645Y0112959D01*
X0038055Y0112959D01*
X0037600Y0112504D01*
X0036096Y0111000D01*
X0035249Y0111000D01*
X0035215Y0111035D01*
X0034892Y0111035D01*
X0034878Y0111047D01*
X0034709Y0111035D01*
X0030905Y0111035D01*
X0030085Y0110215D01*
X0030085Y0105511D01*
X0030905Y0104691D01*
X0035215Y0104691D01*
X0036035Y0105511D01*
X0036035Y0107600D01*
X0037504Y0107600D01*
X0037565Y0107661D01*
X0037565Y0105511D01*
X0038385Y0104691D01*
X0042695Y0104691D01*
X0043104Y0105100D01*
X0049888Y0105100D01*
X0049888Y0104252D01*
X0050708Y0103431D01*
X0052600Y0103431D01*
X0052600Y0016096D01*
X0060100Y0008596D01*
X0058903Y0009793D02*
X0004900Y0009793D01*
X0004900Y0011391D02*
X0057305Y0011391D01*
X0055706Y0012990D02*
X0004900Y0012990D01*
X0004900Y0014588D02*
X0054108Y0014588D01*
X0052600Y0016187D02*
X0004900Y0016187D01*
X0004900Y0017785D02*
X0052600Y0017785D01*
X0052600Y0019384D02*
X0004900Y0019384D01*
X0004900Y0020982D02*
X0024410Y0020982D01*
X0025090Y0020701D02*
X0021929Y0022010D01*
X0019510Y0024429D01*
X0018201Y0027590D01*
X0018201Y0031010D01*
X0019510Y0034171D01*
X0021929Y0036590D01*
X0025090Y0037899D01*
X0028510Y0037899D01*
X0031671Y0036590D01*
X0034090Y0034171D01*
X0035399Y0031010D01*
X0035399Y0027590D01*
X0034090Y0024429D01*
X0031671Y0022010D01*
X0028510Y0020701D01*
X0025090Y0020701D01*
X0029190Y0020982D02*
X0052600Y0020982D01*
X0052600Y0022581D02*
X0032242Y0022581D01*
X0033840Y0024179D02*
X0052600Y0024179D01*
X0052600Y0025778D02*
X0034649Y0025778D01*
X0035311Y0027376D02*
X0052600Y0027376D01*
X0052600Y0028975D02*
X0035399Y0028975D01*
X0035399Y0030573D02*
X0052600Y0030573D01*
X0052600Y0032172D02*
X0034918Y0032172D01*
X0034256Y0033770D02*
X0052600Y0033770D01*
X0052600Y0035369D02*
X0032892Y0035369D01*
X0030760Y0036967D02*
X0052600Y0036967D01*
X0052600Y0038566D02*
X0004900Y0038566D01*
X0004900Y0040164D02*
X0052600Y0040164D01*
X0052600Y0041763D02*
X0004900Y0041763D01*
X0004900Y0043361D02*
X0052600Y0043361D01*
X0052600Y0044960D02*
X0004900Y0044960D01*
X0004900Y0046558D02*
X0052600Y0046558D01*
X0052600Y0048157D02*
X0024565Y0048157D01*
X0025623Y0049755D02*
X0052600Y0049755D01*
X0052600Y0051354D02*
X0026039Y0051354D01*
X0025993Y0052952D02*
X0052600Y0052952D01*
X0052600Y0054551D02*
X0028181Y0054551D01*
X0030651Y0056149D02*
X0052600Y0056149D01*
X0052600Y0057748D02*
X0031035Y0057748D01*
X0031000Y0059346D02*
X0052600Y0059346D01*
X0052600Y0060945D02*
X0031000Y0060945D01*
X0031000Y0062543D02*
X0052600Y0062543D01*
X0052600Y0064142D02*
X0031000Y0064142D01*
X0031000Y0065740D02*
X0052600Y0065740D01*
X0052600Y0067339D02*
X0031000Y0067339D01*
X0031000Y0068937D02*
X0052600Y0068937D01*
X0052600Y0070536D02*
X0031000Y0070536D01*
X0031000Y0072134D02*
X0052600Y0072134D01*
X0052600Y0073733D02*
X0031000Y0073733D01*
X0031000Y0075332D02*
X0052600Y0075332D01*
X0052600Y0076930D02*
X0031000Y0076930D01*
X0031000Y0078529D02*
X0052600Y0078529D01*
X0052600Y0080127D02*
X0031000Y0080127D01*
X0031000Y0081726D02*
X0052600Y0081726D01*
X0052600Y0083324D02*
X0031000Y0083324D01*
X0031000Y0084923D02*
X0052600Y0084923D01*
X0052600Y0086521D02*
X0031000Y0086521D01*
X0031000Y0088120D02*
X0052600Y0088120D01*
X0052600Y0089718D02*
X0031000Y0089718D01*
X0031000Y0091317D02*
X0052600Y0091317D01*
X0052600Y0092915D02*
X0031000Y0092915D01*
X0031000Y0094514D02*
X0052600Y0094514D01*
X0052600Y0096112D02*
X0031000Y0096112D01*
X0031000Y0097711D02*
X0052600Y0097711D01*
X0052600Y0099309D02*
X0031000Y0099309D01*
X0031000Y0100908D02*
X0052600Y0100908D01*
X0052600Y0102506D02*
X0031000Y0102506D01*
X0029899Y0104105D02*
X0050035Y0104105D01*
X0061000Y0110499D02*
X0067600Y0110499D01*
X0067600Y0112097D02*
X0061000Y0112097D01*
X0063156Y0113696D02*
X0067600Y0113696D01*
X0067600Y0115294D02*
X0063712Y0115294D01*
X0063712Y0116893D02*
X0067600Y0116893D01*
X0067600Y0118491D02*
X0063712Y0118491D01*
X0062970Y0120090D02*
X0067600Y0120090D01*
X0067600Y0121688D02*
X0056816Y0121688D01*
X0055217Y0123287D02*
X0068383Y0123287D01*
X0069981Y0124885D02*
X0053619Y0124885D01*
X0052020Y0126484D02*
X0071580Y0126484D01*
X0073178Y0128082D02*
X0050422Y0128082D01*
X0051442Y0129681D02*
X0074777Y0129681D01*
X0076375Y0131279D02*
X0051900Y0131279D01*
X0051874Y0132878D02*
X0077974Y0132878D01*
X0079572Y0134476D02*
X0051212Y0134476D01*
X0049738Y0136075D02*
X0081171Y0136075D01*
X0082769Y0137673D02*
X0025078Y0137673D01*
X0026600Y0136075D02*
X0027000Y0136075D01*
X0027000Y0134476D02*
X0026600Y0134476D01*
X0026600Y0132878D02*
X0027000Y0132878D01*
X0030273Y0136075D02*
X0033862Y0136075D01*
X0032388Y0134476D02*
X0031609Y0134476D01*
X0026676Y0139272D02*
X0084368Y0139272D01*
X0123535Y0142469D02*
X0313700Y0142469D01*
X0313700Y0140870D02*
X0125134Y0140870D01*
X0126732Y0139272D02*
X0313700Y0139272D01*
X0313700Y0137673D02*
X0128331Y0137673D01*
X0129929Y0136075D02*
X0141362Y0136075D01*
X0139888Y0134476D02*
X0131528Y0134476D01*
X0133126Y0132878D02*
X0139226Y0132878D01*
X0139200Y0131279D02*
X0134725Y0131279D01*
X0136323Y0129681D02*
X0139658Y0129681D01*
X0140805Y0128082D02*
X0137922Y0128082D01*
X0139520Y0126484D02*
X0152281Y0126484D01*
X0150805Y0128082D02*
X0147795Y0128082D01*
X0148942Y0129681D02*
X0149658Y0129681D01*
X0150173Y0124885D02*
X0141119Y0124885D01*
X0148712Y0134476D02*
X0149888Y0134476D01*
X0151362Y0136075D02*
X0147238Y0136075D01*
X0157238Y0136075D02*
X0161362Y0136075D01*
X0159888Y0134476D02*
X0158712Y0134476D01*
X0167238Y0136075D02*
X0169200Y0136075D01*
X0169200Y0134476D02*
X0168712Y0134476D01*
X0168942Y0129681D02*
X0169200Y0129681D01*
X0169200Y0128082D02*
X0167795Y0128082D01*
X0166319Y0126484D02*
X0206580Y0126484D01*
X0207739Y0128082D02*
X0179400Y0128082D01*
X0179400Y0129681D02*
X0206707Y0129681D01*
X0206314Y0131279D02*
X0179400Y0131279D01*
X0179400Y0132878D02*
X0206402Y0132878D01*
X0206991Y0134476D02*
X0179400Y0134476D01*
X0179400Y0136075D02*
X0208327Y0136075D01*
X0211600Y0136075D02*
X0212000Y0136075D01*
X0212000Y0134476D02*
X0211600Y0134476D01*
X0211600Y0132878D02*
X0212000Y0132878D01*
X0215273Y0136075D02*
X0218862Y0136075D01*
X0217388Y0134476D02*
X0216609Y0134476D01*
X0224738Y0136075D02*
X0228862Y0136075D01*
X0227388Y0134476D02*
X0226212Y0134476D01*
X0234738Y0136075D02*
X0268327Y0136075D01*
X0266991Y0134476D02*
X0236212Y0134476D01*
X0236874Y0132878D02*
X0266402Y0132878D01*
X0266314Y0131279D02*
X0236900Y0131279D01*
X0236442Y0129681D02*
X0266707Y0129681D01*
X0267739Y0128082D02*
X0235295Y0128082D01*
X0233500Y0126484D02*
X0266580Y0126484D01*
X0264981Y0124885D02*
X0232290Y0124885D01*
X0230691Y0123287D02*
X0263383Y0123287D01*
X0261784Y0121688D02*
X0229092Y0121688D01*
X0227494Y0120090D02*
X0255630Y0120090D01*
X0254888Y0118491D02*
X0225895Y0118491D01*
X0224775Y0116893D02*
X0254888Y0116893D01*
X0254888Y0115294D02*
X0224775Y0115294D01*
X0224691Y0113696D02*
X0255444Y0113696D01*
X0257600Y0112097D02*
X0241407Y0112097D01*
X0243005Y0110499D02*
X0255791Y0110499D01*
X0254488Y0108900D02*
X0248712Y0108900D01*
X0248712Y0107302D02*
X0254488Y0107302D01*
X0254488Y0105703D02*
X0248712Y0105703D01*
X0248565Y0104105D02*
X0254629Y0104105D01*
X0258269Y0104105D02*
X0258638Y0104105D01*
X0258638Y0105703D02*
X0258269Y0105703D01*
X0262600Y0102506D02*
X0242410Y0102506D01*
X0240812Y0100908D02*
X0261004Y0100908D01*
X0259405Y0099309D02*
X0239213Y0099309D01*
X0237615Y0097711D02*
X0257807Y0097711D01*
X0256208Y0096112D02*
X0236016Y0096112D01*
X0236000Y0094514D02*
X0237968Y0094514D01*
X0237600Y0092915D02*
X0236501Y0092915D01*
X0236501Y0091317D02*
X0237600Y0091317D01*
X0237600Y0089718D02*
X0236501Y0089718D01*
X0236501Y0088120D02*
X0237600Y0088120D01*
X0237600Y0086521D02*
X0236501Y0086521D01*
X0236501Y0084923D02*
X0237600Y0084923D01*
X0235004Y0080100D02*
X0252504Y0080100D01*
X0253500Y0081096D01*
X0277095Y0104691D01*
X0279004Y0104691D01*
X0282600Y0101096D01*
X0283596Y0100100D01*
X0305004Y0100100D01*
X0306000Y0101096D01*
X0306000Y0103431D01*
X0307600Y0103431D01*
X0307600Y0082504D01*
X0304829Y0079734D01*
X0304957Y0080127D01*
X0305223Y0080127D01*
X0304957Y0080127D02*
X0305096Y0081005D01*
X0299780Y0081005D01*
X0299780Y0075689D01*
X0300658Y0075828D01*
X0301052Y0075956D01*
X0275550Y0050454D01*
X0268500Y0057504D01*
X0267504Y0058500D01*
X0264742Y0058500D01*
X0264656Y0058708D01*
X0263708Y0059656D01*
X0262470Y0060168D01*
X0261130Y0060168D01*
X0259892Y0059656D01*
X0258944Y0058708D01*
X0258431Y0057470D01*
X0258431Y0056130D01*
X0258944Y0054892D01*
X0259892Y0053944D01*
X0261130Y0053431D01*
X0262470Y0053431D01*
X0263708Y0053944D01*
X0264656Y0054892D01*
X0264742Y0055100D01*
X0266096Y0055100D01*
X0273146Y0048050D01*
X0259200Y0034104D01*
X0259200Y0035275D01*
X0258454Y0037076D01*
X0257076Y0038454D01*
X0255275Y0039200D01*
X0253325Y0039200D01*
X0251524Y0038454D01*
X0250146Y0037076D01*
X0249400Y0035275D01*
X0249400Y0033325D01*
X0250146Y0031524D01*
X0251524Y0030146D01*
X0253325Y0029400D01*
X0254496Y0029400D01*
X0253596Y0028500D01*
X0253096Y0028000D01*
X0252753Y0028343D01*
X0252078Y0028833D01*
X0251334Y0029212D01*
X0250541Y0029469D01*
X0249717Y0029600D01*
X0249583Y0029600D01*
X0249583Y0024583D01*
X0249017Y0024583D01*
X0249017Y0029600D01*
X0248883Y0029600D01*
X0248059Y0029469D01*
X0247266Y0029212D01*
X0246522Y0028833D01*
X0245847Y0028343D01*
X0245257Y0027753D01*
X0244767Y0027078D01*
X0244388Y0026334D01*
X0244300Y0026063D01*
X0244212Y0026334D01*
X0243833Y0027078D01*
X0243343Y0027753D01*
X0242753Y0028343D01*
X0242078Y0028833D01*
X0241334Y0029212D01*
X0240541Y0029469D01*
X0239717Y0029600D01*
X0239583Y0029600D01*
X0239583Y0024583D01*
X0249017Y0024583D01*
X0249017Y0024017D01*
X0244000Y0024017D01*
X0239583Y0024017D01*
X0239583Y0024583D01*
X0239017Y0024583D01*
X0239017Y0029600D01*
X0238883Y0029600D01*
X0238059Y0029469D01*
X0237266Y0029212D01*
X0236522Y0028833D01*
X0235847Y0028343D01*
X0235257Y0027753D01*
X0234767Y0027078D01*
X0234388Y0026334D01*
X0234300Y0026063D01*
X0234212Y0026334D01*
X0233833Y0027078D01*
X0233343Y0027753D01*
X0232753Y0028343D01*
X0232078Y0028833D01*
X0231334Y0029212D01*
X0230541Y0029469D01*
X0229717Y0029600D01*
X0229583Y0029600D01*
X0229583Y0024583D01*
X0239017Y0024583D01*
X0239017Y0024017D01*
X0234000Y0024017D01*
X0229583Y0024017D01*
X0229583Y0024583D01*
X0229017Y0024583D01*
X0229017Y0029600D01*
X0228883Y0029600D01*
X0228059Y0029469D01*
X0227266Y0029212D01*
X0226522Y0028833D01*
X0225847Y0028343D01*
X0225257Y0027753D01*
X0224767Y0027078D01*
X0224388Y0026334D01*
X0224130Y0025541D01*
X0224119Y0025470D01*
X0223454Y0027076D01*
X0222076Y0028454D01*
X0220275Y0029200D01*
X0218325Y0029200D01*
X0216524Y0028454D01*
X0215146Y0027076D01*
X0214400Y0025275D01*
X0214400Y0023325D01*
X0215146Y0021524D01*
X0216524Y0020146D01*
X0218325Y0019400D01*
X0220275Y0019400D01*
X0222076Y0020146D01*
X0223454Y0021524D01*
X0224119Y0023130D01*
X0224130Y0023059D01*
X0224388Y0022266D01*
X0224767Y0021522D01*
X0225257Y0020847D01*
X0225847Y0020257D01*
X0226522Y0019767D01*
X0227266Y0019388D01*
X0228059Y0019130D01*
X0228883Y0019000D01*
X0229017Y0019000D01*
X0229017Y0024017D01*
X0229583Y0024017D01*
X0229583Y0019000D01*
X0229717Y0019000D01*
X0230541Y0019130D01*
X0231334Y0019388D01*
X0232078Y0019767D01*
X0232753Y0020257D01*
X0233343Y0020847D01*
X0233833Y0021522D01*
X0234212Y0022266D01*
X0234300Y0022537D01*
X0234388Y0022266D01*
X0234767Y0021522D01*
X0235257Y0020847D01*
X0235847Y0020257D01*
X0236522Y0019767D01*
X0237266Y0019388D01*
X0238059Y0019130D01*
X0238883Y0019000D01*
X0239017Y0019000D01*
X0239017Y0024017D01*
X0239583Y0024017D01*
X0239583Y0019000D01*
X0239717Y0019000D01*
X0240541Y0019130D01*
X0241334Y0019388D01*
X0242078Y0019767D01*
X0242753Y0020257D01*
X0243343Y0020847D01*
X0243833Y0021522D01*
X0244212Y0022266D01*
X0244300Y0022537D01*
X0244388Y0022266D01*
X0244767Y0021522D01*
X0245257Y0020847D01*
X0245847Y0020257D01*
X0246522Y0019767D01*
X0247266Y0019388D01*
X0248059Y0019130D01*
X0248883Y0019000D01*
X0249017Y0019000D01*
X0249017Y0024017D01*
X0249583Y0024017D01*
X0249583Y0019487D01*
X0248596Y0018500D01*
X0248096Y0018000D01*
X0247753Y0018343D01*
X0247078Y0018833D01*
X0246334Y0019212D01*
X0245541Y0019469D01*
X0244717Y0019600D01*
X0244583Y0019600D01*
X0244583Y0014583D01*
X0244017Y0014583D01*
X0244017Y0019600D01*
X0243883Y0019600D01*
X0243059Y0019469D01*
X0242266Y0019212D01*
X0241522Y0018833D01*
X0240847Y0018343D01*
X0240257Y0017753D01*
X0239767Y0017078D01*
X0239388Y0016334D01*
X0239300Y0016063D01*
X0239212Y0016334D01*
X0238833Y0017078D01*
X0238343Y0017753D01*
X0237753Y0018343D01*
X0237078Y0018833D01*
X0236334Y0019212D01*
X0235541Y0019469D01*
X0234717Y0019600D01*
X0234583Y0019600D01*
X0234583Y0014583D01*
X0244017Y0014583D01*
X0244017Y0014017D01*
X0239000Y0014017D01*
X0234583Y0014017D01*
X0234583Y0014583D01*
X0234017Y0014583D01*
X0234017Y0019600D01*
X0233883Y0019600D01*
X0233059Y0019469D01*
X0232266Y0019212D01*
X0231522Y0018833D01*
X0230847Y0018343D01*
X0230257Y0017753D01*
X0229767Y0017078D01*
X0229388Y0016334D01*
X0229130Y0015541D01*
X0229119Y0015470D01*
X0228454Y0017076D01*
X0227076Y0018454D01*
X0225275Y0019200D01*
X0223325Y0019200D01*
X0221524Y0018454D01*
X0220146Y0017076D01*
X0219400Y0015275D01*
X0219400Y0013325D01*
X0220146Y0011524D01*
X0220670Y0011000D01*
X0217930Y0011000D01*
X0218454Y0011524D01*
X0219200Y0013325D01*
X0219200Y0015275D01*
X0218454Y0017076D01*
X0217076Y0018454D01*
X0215275Y0019200D01*
X0213325Y0019200D01*
X0211524Y0018454D01*
X0210146Y0017076D01*
X0209400Y0015275D01*
X0209400Y0013325D01*
X0210146Y0011524D01*
X0210670Y0011000D01*
X0207930Y0011000D01*
X0208454Y0011524D01*
X0209200Y0013325D01*
X0209200Y0015275D01*
X0208454Y0017076D01*
X0207076Y0018454D01*
X0205275Y0019200D01*
X0203325Y0019200D01*
X0201524Y0018454D01*
X0200146Y0017076D01*
X0199700Y0016000D01*
X0198900Y0016000D01*
X0198454Y0017076D01*
X0197076Y0018454D01*
X0196000Y0018900D01*
X0196000Y0020670D01*
X0196524Y0020146D01*
X0198325Y0019400D01*
X0200275Y0019400D01*
X0202076Y0020146D01*
X0203454Y0021524D01*
X0203900Y0022600D01*
X0204700Y0022600D01*
X0205146Y0021524D01*
X0206524Y0020146D01*
X0208325Y0019400D01*
X0210275Y0019400D01*
X0212076Y0020146D01*
X0213454Y0021524D01*
X0214200Y0023325D01*
X0214200Y0025275D01*
X0213454Y0027076D01*
X0212076Y0028454D01*
X0211000Y0028900D01*
X0211000Y0030670D01*
X0211524Y0030146D01*
X0213325Y0029400D01*
X0215275Y0029400D01*
X0217076Y0030146D01*
X0218454Y0031524D01*
X0219200Y0033325D01*
X0219200Y0035275D01*
X0218454Y0037076D01*
X0217076Y0038454D01*
X0215275Y0039200D01*
X0214104Y0039200D01*
X0215004Y0040100D01*
X0215787Y0040883D01*
X0216524Y0040146D01*
X0218325Y0039400D01*
X0220275Y0039400D01*
X0222076Y0040146D01*
X0223454Y0041524D01*
X0224200Y0043325D01*
X0224200Y0045275D01*
X0223454Y0047076D01*
X0222076Y0048454D01*
X0220275Y0049200D01*
X0218325Y0049200D01*
X0216524Y0048454D01*
X0216000Y0047930D01*
X0216000Y0061096D01*
X0235004Y0080100D01*
X0233433Y0078529D02*
X0294297Y0078529D01*
X0294339Y0078445D02*
X0294876Y0077707D01*
X0295522Y0077061D01*
X0296260Y0076524D01*
X0297074Y0076110D01*
X0297942Y0075828D01*
X0298820Y0075689D01*
X0298820Y0081005D01*
X0299780Y0081005D01*
X0299780Y0081965D01*
X0298820Y0081965D01*
X0298820Y0081005D01*
X0293504Y0081005D01*
X0293643Y0080127D01*
X0252531Y0080127D01*
X0254130Y0081726D02*
X0298820Y0081726D01*
X0298820Y0081965D02*
X0293504Y0081965D01*
X0293643Y0082843D01*
X0293925Y0083711D01*
X0294339Y0084525D01*
X0294876Y0085263D01*
X0295522Y0085909D01*
X0296260Y0086446D01*
X0297074Y0086860D01*
X0297942Y0087142D01*
X0298820Y0087281D01*
X0298820Y0081965D01*
X0299780Y0081965D02*
X0299780Y0087281D01*
X0300658Y0087142D01*
X0301526Y0086860D01*
X0302340Y0086446D01*
X0303078Y0085909D01*
X0303724Y0085263D01*
X0304261Y0084525D01*
X0304675Y0083711D01*
X0304957Y0082843D01*
X0305096Y0081965D01*
X0299780Y0081965D01*
X0299780Y0081726D02*
X0306821Y0081726D01*
X0307600Y0083324D02*
X0304801Y0083324D01*
X0303972Y0084923D02*
X0307600Y0084923D01*
X0307600Y0086521D02*
X0302192Y0086521D01*
X0299780Y0086521D02*
X0298820Y0086521D01*
X0298820Y0084923D02*
X0299780Y0084923D01*
X0299780Y0083324D02*
X0298820Y0083324D01*
X0298820Y0080127D02*
X0299780Y0080127D01*
X0299780Y0078529D02*
X0298820Y0078529D01*
X0298820Y0076930D02*
X0299780Y0076930D01*
X0300427Y0075332D02*
X0230236Y0075332D01*
X0231834Y0076930D02*
X0295702Y0076930D01*
X0294339Y0078445D02*
X0293925Y0079259D01*
X0293643Y0080127D01*
X0293799Y0083324D02*
X0255728Y0083324D01*
X0257327Y0084923D02*
X0294628Y0084923D01*
X0296408Y0086521D02*
X0258925Y0086521D01*
X0260524Y0088120D02*
X0307600Y0088120D01*
X0307600Y0089718D02*
X0262122Y0089718D01*
X0263721Y0091317D02*
X0307600Y0091317D01*
X0307600Y0092915D02*
X0265319Y0092915D01*
X0266918Y0094514D02*
X0307600Y0094514D01*
X0307600Y0096112D02*
X0268516Y0096112D01*
X0270115Y0097711D02*
X0307600Y0097711D01*
X0307600Y0099309D02*
X0271713Y0099309D01*
X0273312Y0100908D02*
X0282788Y0100908D01*
X0281190Y0102506D02*
X0274910Y0102506D01*
X0276509Y0104105D02*
X0279591Y0104105D01*
X0254609Y0094514D02*
X0254165Y0094514D01*
X0247632Y0094514D02*
X0245632Y0094514D01*
X0245640Y0094506D02*
X0245305Y0094841D01*
X0244894Y0095078D01*
X0244437Y0095200D01*
X0242200Y0095200D01*
X0242200Y0089401D01*
X0246000Y0089401D01*
X0246000Y0093637D01*
X0245877Y0094095D01*
X0245640Y0094506D01*
X0246000Y0092915D02*
X0247099Y0092915D01*
X0247099Y0091317D02*
X0246000Y0091317D01*
X0246000Y0089718D02*
X0247099Y0089718D01*
X0247099Y0088120D02*
X0246000Y0088120D01*
X0246000Y0086521D02*
X0247099Y0086521D01*
X0247099Y0084923D02*
X0246000Y0084923D01*
X0242200Y0089718D02*
X0241400Y0089718D01*
X0241400Y0091317D02*
X0242200Y0091317D01*
X0242200Y0092915D02*
X0241400Y0092915D01*
X0241400Y0094514D02*
X0242200Y0094514D01*
X0219201Y0104105D02*
X0208565Y0104105D01*
X0208712Y0105703D02*
X0215085Y0105703D01*
X0215085Y0107302D02*
X0208712Y0107302D01*
X0202410Y0102506D02*
X0217602Y0102506D01*
X0216004Y0100908D02*
X0201000Y0100908D01*
X0201000Y0099309D02*
X0214405Y0099309D01*
X0212807Y0097711D02*
X0201000Y0097711D01*
X0201000Y0096112D02*
X0211208Y0096112D01*
X0209610Y0094514D02*
X0201000Y0094514D01*
X0201000Y0092915D02*
X0208011Y0092915D01*
X0206412Y0091317D02*
X0201000Y0091317D01*
X0201000Y0089718D02*
X0204814Y0089718D01*
X0203215Y0088120D02*
X0201000Y0088120D01*
X0201000Y0086521D02*
X0202600Y0086521D01*
X0202600Y0084923D02*
X0201000Y0084923D01*
X0201000Y0083324D02*
X0202600Y0083324D01*
X0202600Y0081726D02*
X0202023Y0081726D01*
X0202400Y0080127D02*
X0202600Y0080127D01*
X0202600Y0078529D02*
X0202294Y0078529D01*
X0202600Y0076930D02*
X0201631Y0076930D01*
X0202600Y0075332D02*
X0199839Y0075332D01*
X0202600Y0073733D02*
X0096744Y0073733D01*
X0096726Y0073617D02*
X0096850Y0074403D01*
X0096850Y0074800D01*
X0096850Y0075197D01*
X0096726Y0075983D01*
X0096480Y0076739D01*
X0096119Y0077447D01*
X0095652Y0078090D01*
X0095090Y0078652D01*
X0094447Y0079119D01*
X0093739Y0079480D01*
X0092983Y0079726D01*
X0092197Y0079850D01*
X0091800Y0079850D01*
X0091800Y0074800D01*
X0091800Y0074800D01*
X0096850Y0074800D01*
X0091800Y0074800D01*
X0091800Y0074800D01*
X0091800Y0074800D01*
X0086750Y0074800D01*
X0086750Y0075197D01*
X0086874Y0075983D01*
X0087120Y0076739D01*
X0087481Y0077447D01*
X0087948Y0078090D01*
X0088510Y0078652D01*
X0089153Y0079119D01*
X0089861Y0079480D01*
X0090617Y0079726D01*
X0091403Y0079850D01*
X0091800Y0079850D01*
X0091800Y0074800D01*
X0091800Y0069750D01*
X0092197Y0069750D01*
X0092983Y0069874D01*
X0093739Y0070120D01*
X0094447Y0070481D01*
X0095090Y0070948D01*
X0095652Y0071510D01*
X0096119Y0072153D01*
X0096480Y0072861D01*
X0096726Y0073617D01*
X0096106Y0072134D02*
X0202600Y0072134D01*
X0202600Y0070536D02*
X0094523Y0070536D01*
X0091800Y0070536D02*
X0091800Y0070536D01*
X0091800Y0069750D02*
X0091800Y0074800D01*
X0091800Y0074800D01*
X0086750Y0074800D01*
X0086750Y0074403D01*
X0086874Y0073617D01*
X0087120Y0072861D01*
X0087481Y0072153D01*
X0087948Y0071510D01*
X0088510Y0070948D01*
X0089153Y0070481D01*
X0089861Y0070120D01*
X0090617Y0069874D01*
X0091403Y0069750D01*
X0091800Y0069750D01*
X0089077Y0070536D02*
X0086000Y0070536D01*
X0086000Y0072134D02*
X0087494Y0072134D01*
X0086856Y0073733D02*
X0086000Y0073733D01*
X0086000Y0075332D02*
X0086771Y0075332D01*
X0087218Y0076930D02*
X0086000Y0076930D01*
X0086000Y0078529D02*
X0088387Y0078529D01*
X0086000Y0080127D02*
X0181800Y0080127D01*
X0181800Y0080233D02*
X0181800Y0079800D01*
X0187300Y0079800D01*
X0187300Y0079800D01*
X0187300Y0079800D01*
X0187300Y0085300D01*
X0186867Y0085300D01*
X0186012Y0085165D01*
X0185189Y0084897D01*
X0184417Y0084504D01*
X0183717Y0083995D01*
X0183105Y0083383D01*
X0182596Y0082683D01*
X0182203Y0081911D01*
X0181935Y0081088D01*
X0181800Y0080233D01*
X0181800Y0079800D02*
X0181800Y0079367D01*
X0181935Y0078512D01*
X0182203Y0077689D01*
X0182596Y0076917D01*
X0183105Y0076217D01*
X0183717Y0075605D01*
X0184417Y0075096D01*
X0185189Y0074703D01*
X0186012Y0074435D01*
X0186867Y0074300D01*
X0187300Y0074300D01*
X0187300Y0079800D01*
X0181800Y0079800D01*
X0181933Y0078529D02*
X0095213Y0078529D01*
X0096382Y0076930D02*
X0182590Y0076930D01*
X0184093Y0075332D02*
X0096829Y0075332D01*
X0091800Y0075332D02*
X0091800Y0075332D01*
X0091800Y0076930D02*
X0091800Y0076930D01*
X0091800Y0078529D02*
X0091800Y0078529D01*
X0096450Y0081726D02*
X0182143Y0081726D01*
X0183062Y0083324D02*
X0096450Y0083324D01*
X0096450Y0084923D02*
X0185267Y0084923D01*
X0187300Y0084923D02*
X0187300Y0084923D01*
X0187300Y0083324D02*
X0187300Y0083324D01*
X0187300Y0081726D02*
X0187300Y0081726D01*
X0187300Y0080127D02*
X0187300Y0080127D01*
X0187300Y0078529D02*
X0187300Y0078529D01*
X0187300Y0076930D02*
X0187300Y0076930D01*
X0187300Y0075332D02*
X0187300Y0075332D01*
X0190507Y0075332D02*
X0194761Y0075332D01*
X0192969Y0076930D02*
X0192010Y0076930D01*
X0192457Y0081726D02*
X0192577Y0081726D01*
X0193612Y0083324D02*
X0191538Y0083324D01*
X0189333Y0084923D02*
X0197600Y0084923D01*
X0197600Y0086521D02*
X0096450Y0086521D01*
X0096450Y0088120D02*
X0197600Y0088120D01*
X0197600Y0089718D02*
X0093500Y0089718D01*
X0093721Y0091317D02*
X0197600Y0091317D01*
X0197600Y0092915D02*
X0095319Y0092915D01*
X0096918Y0094514D02*
X0197600Y0094514D01*
X0197600Y0096112D02*
X0098516Y0096112D01*
X0100115Y0097711D02*
X0197600Y0097711D01*
X0197600Y0099309D02*
X0101713Y0099309D01*
X0103312Y0100908D02*
X0197600Y0100908D01*
X0197602Y0102506D02*
X0104910Y0102506D01*
X0106509Y0104105D02*
X0195035Y0104105D01*
X0194888Y0105703D02*
X0113107Y0105703D01*
X0114433Y0107302D02*
X0194888Y0107302D01*
X0194888Y0108900D02*
X0115767Y0108900D01*
X0117101Y0110499D02*
X0195697Y0110499D01*
X0194099Y0112097D02*
X0118436Y0112097D01*
X0123156Y0113696D02*
X0192600Y0113696D01*
X0195630Y0120090D02*
X0169112Y0120090D01*
X0169400Y0121688D02*
X0201784Y0121688D01*
X0203383Y0123287D02*
X0169204Y0123287D01*
X0168427Y0124885D02*
X0204981Y0124885D01*
X0271600Y0132878D02*
X0272000Y0132878D01*
X0272000Y0134476D02*
X0271600Y0134476D01*
X0271600Y0136075D02*
X0272000Y0136075D01*
X0275273Y0136075D02*
X0278862Y0136075D01*
X0277388Y0134476D02*
X0276609Y0134476D01*
X0284738Y0136075D02*
X0288862Y0136075D01*
X0287388Y0134476D02*
X0286212Y0134476D01*
X0294738Y0136075D02*
X0313700Y0136075D01*
X0313700Y0134476D02*
X0296212Y0134476D01*
X0296874Y0132878D02*
X0313700Y0132878D01*
X0313700Y0131279D02*
X0296900Y0131279D01*
X0296442Y0129681D02*
X0313700Y0129681D01*
X0313700Y0128082D02*
X0295422Y0128082D01*
X0297020Y0126484D02*
X0313700Y0126484D01*
X0313700Y0124885D02*
X0298619Y0124885D01*
X0300217Y0123287D02*
X0313700Y0123287D01*
X0313700Y0121688D02*
X0301816Y0121688D01*
X0307970Y0120090D02*
X0313700Y0120090D01*
X0313700Y0118491D02*
X0308712Y0118491D01*
X0308712Y0116893D02*
X0313700Y0116893D01*
X0313700Y0115294D02*
X0308712Y0115294D01*
X0308156Y0113696D02*
X0313700Y0113696D01*
X0313700Y0112097D02*
X0311000Y0112097D01*
X0311000Y0110499D02*
X0313700Y0110499D01*
X0313700Y0108900D02*
X0311000Y0108900D01*
X0311000Y0107302D02*
X0313700Y0107302D01*
X0313700Y0105703D02*
X0311000Y0105703D01*
X0311000Y0104105D02*
X0313700Y0104105D01*
X0313700Y0102506D02*
X0311000Y0102506D01*
X0311000Y0100908D02*
X0313700Y0100908D01*
X0313700Y0099309D02*
X0311000Y0099309D01*
X0311000Y0097711D02*
X0313700Y0097711D01*
X0313700Y0096112D02*
X0311000Y0096112D01*
X0311000Y0094514D02*
X0313700Y0094514D01*
X0313700Y0092915D02*
X0311000Y0092915D01*
X0311000Y0091317D02*
X0313700Y0091317D01*
X0313700Y0089718D02*
X0311000Y0089718D01*
X0311000Y0088120D02*
X0313700Y0088120D01*
X0313700Y0086521D02*
X0311000Y0086521D01*
X0311000Y0084923D02*
X0313700Y0084923D01*
X0313700Y0083324D02*
X0311000Y0083324D01*
X0311000Y0081726D02*
X0313700Y0081726D01*
X0313700Y0080127D02*
X0310031Y0080127D01*
X0308433Y0078529D02*
X0313700Y0078529D01*
X0313700Y0076930D02*
X0306834Y0076930D01*
X0305236Y0075332D02*
X0313700Y0075332D01*
X0313700Y0073733D02*
X0303637Y0073733D01*
X0302039Y0072134D02*
X0313700Y0072134D01*
X0313700Y0070536D02*
X0300440Y0070536D01*
X0298842Y0068937D02*
X0313700Y0068937D01*
X0313700Y0067339D02*
X0297243Y0067339D01*
X0294033Y0068937D02*
X0250287Y0068937D01*
X0250287Y0069510D02*
X0249467Y0070330D01*
X0234133Y0070330D01*
X0233313Y0069510D01*
X0233313Y0059689D01*
X0234133Y0058869D01*
X0249467Y0058869D01*
X0250287Y0059689D01*
X0250287Y0069510D01*
X0250287Y0067339D02*
X0292435Y0067339D01*
X0290836Y0065740D02*
X0250287Y0065740D01*
X0250287Y0064142D02*
X0289238Y0064142D01*
X0287639Y0062543D02*
X0250287Y0062543D01*
X0250287Y0060945D02*
X0286041Y0060945D01*
X0284442Y0059346D02*
X0264017Y0059346D01*
X0259583Y0059346D02*
X0249944Y0059346D01*
X0258547Y0057748D02*
X0216000Y0057748D01*
X0216000Y0059346D02*
X0233656Y0059346D01*
X0233313Y0060945D02*
X0216000Y0060945D01*
X0217448Y0062543D02*
X0233313Y0062543D01*
X0233313Y0064142D02*
X0219046Y0064142D01*
X0220645Y0065740D02*
X0233313Y0065740D01*
X0233313Y0067339D02*
X0222243Y0067339D01*
X0223842Y0068937D02*
X0233313Y0068937D01*
X0228637Y0073733D02*
X0298829Y0073733D01*
X0297230Y0072134D02*
X0227039Y0072134D01*
X0225440Y0070536D02*
X0295632Y0070536D01*
X0304700Y0065740D02*
X0313700Y0065740D01*
X0313700Y0064142D02*
X0304700Y0064142D01*
X0304700Y0062543D02*
X0313700Y0062543D01*
X0313700Y0060945D02*
X0304700Y0060945D01*
X0304700Y0059346D02*
X0313700Y0059346D01*
X0313700Y0057748D02*
X0304700Y0057748D01*
X0313700Y0056149D02*
X0286054Y0056149D01*
X0287652Y0057748D02*
X0293900Y0057748D01*
X0293900Y0059346D02*
X0289251Y0059346D01*
X0290849Y0060945D02*
X0293900Y0060945D01*
X0293900Y0062543D02*
X0292448Y0062543D01*
X0282844Y0057748D02*
X0268256Y0057748D01*
X0269855Y0056149D02*
X0281245Y0056149D01*
X0279647Y0054551D02*
X0271453Y0054551D01*
X0273052Y0052952D02*
X0278048Y0052952D01*
X0276450Y0051354D02*
X0274650Y0051354D01*
X0271440Y0049755D02*
X0216000Y0049755D01*
X0216000Y0048157D02*
X0216227Y0048157D01*
X0216000Y0051354D02*
X0269842Y0051354D01*
X0268243Y0052952D02*
X0216000Y0052952D01*
X0216000Y0054551D02*
X0259285Y0054551D01*
X0258431Y0056149D02*
X0216000Y0056149D01*
X0222373Y0048157D02*
X0226227Y0048157D01*
X0226524Y0048454D02*
X0225146Y0047076D01*
X0224400Y0045275D01*
X0224400Y0043325D01*
X0225146Y0041524D01*
X0226524Y0040146D01*
X0228325Y0039400D01*
X0230275Y0039400D01*
X0232076Y0040146D01*
X0233454Y0041524D01*
X0234200Y0043325D01*
X0234200Y0045275D01*
X0233454Y0047076D01*
X0232076Y0048454D01*
X0230275Y0049200D01*
X0228325Y0049200D01*
X0226524Y0048454D01*
X0224932Y0046558D02*
X0223668Y0046558D01*
X0224200Y0044960D02*
X0224400Y0044960D01*
X0224400Y0043361D02*
X0224200Y0043361D01*
X0223553Y0041763D02*
X0225047Y0041763D01*
X0226506Y0040164D02*
X0222094Y0040164D01*
X0223325Y0039200D02*
X0221524Y0038454D01*
X0220146Y0037076D01*
X0219400Y0035275D01*
X0219400Y0033325D01*
X0220146Y0031524D01*
X0221524Y0030146D01*
X0223325Y0029400D01*
X0225275Y0029400D01*
X0227076Y0030146D01*
X0228454Y0031524D01*
X0229200Y0033325D01*
X0229200Y0035275D01*
X0228454Y0037076D01*
X0227076Y0038454D01*
X0225275Y0039200D01*
X0223325Y0039200D01*
X0221794Y0038566D02*
X0216806Y0038566D01*
X0216506Y0040164D02*
X0215068Y0040164D01*
X0218499Y0036967D02*
X0220101Y0036967D01*
X0219439Y0035369D02*
X0219161Y0035369D01*
X0219200Y0033770D02*
X0219400Y0033770D01*
X0219878Y0032172D02*
X0218722Y0032172D01*
X0217503Y0030573D02*
X0221097Y0030573D01*
X0220819Y0028975D02*
X0226800Y0028975D01*
X0227503Y0030573D02*
X0231097Y0030573D01*
X0231524Y0030146D02*
X0230146Y0031524D01*
X0229400Y0033325D01*
X0229400Y0035275D01*
X0230146Y0037076D01*
X0231524Y0038454D01*
X0233325Y0039200D01*
X0235275Y0039200D01*
X0237076Y0038454D01*
X0238454Y0037076D01*
X0239200Y0035275D01*
X0239200Y0033325D01*
X0238454Y0031524D01*
X0237076Y0030146D01*
X0235275Y0029400D01*
X0233325Y0029400D01*
X0231524Y0030146D01*
X0231800Y0028975D02*
X0236800Y0028975D01*
X0237503Y0030573D02*
X0241097Y0030573D01*
X0241524Y0030146D02*
X0243325Y0029400D01*
X0245275Y0029400D01*
X0247076Y0030146D01*
X0248454Y0031524D01*
X0249200Y0033325D01*
X0249200Y0035275D01*
X0248454Y0037076D01*
X0247076Y0038454D01*
X0245275Y0039200D01*
X0243325Y0039200D01*
X0241524Y0038454D01*
X0240146Y0037076D01*
X0239400Y0035275D01*
X0239400Y0033325D01*
X0240146Y0031524D01*
X0241524Y0030146D01*
X0241800Y0028975D02*
X0246800Y0028975D01*
X0247503Y0030573D02*
X0251097Y0030573D01*
X0251800Y0028975D02*
X0254071Y0028975D01*
X0257280Y0027376D02*
X0278289Y0027376D01*
X0278201Y0027590D02*
X0279510Y0024429D01*
X0281929Y0022010D01*
X0285090Y0020701D01*
X0288510Y0020701D01*
X0291671Y0022010D01*
X0294090Y0024429D01*
X0295399Y0027590D01*
X0295399Y0031010D01*
X0294090Y0034171D01*
X0291671Y0036590D01*
X0288510Y0037899D01*
X0285090Y0037899D01*
X0281929Y0036590D01*
X0279510Y0034171D01*
X0278201Y0031010D01*
X0278201Y0027590D01*
X0278201Y0028975D02*
X0258879Y0028975D01*
X0260477Y0030573D02*
X0278201Y0030573D01*
X0278682Y0032172D02*
X0262076Y0032172D01*
X0263674Y0033770D02*
X0279344Y0033770D01*
X0280708Y0035369D02*
X0265273Y0035369D01*
X0266871Y0036967D02*
X0282840Y0036967D01*
X0290760Y0036967D02*
X0313700Y0036967D01*
X0313700Y0035369D02*
X0292892Y0035369D01*
X0294256Y0033770D02*
X0313700Y0033770D01*
X0313700Y0032172D02*
X0294918Y0032172D01*
X0295399Y0030573D02*
X0313700Y0030573D01*
X0313700Y0028975D02*
X0295399Y0028975D01*
X0295311Y0027376D02*
X0313700Y0027376D01*
X0313700Y0025778D02*
X0294649Y0025778D01*
X0293840Y0024179D02*
X0313700Y0024179D01*
X0313700Y0022581D02*
X0292242Y0022581D01*
X0289190Y0020982D02*
X0313700Y0020982D01*
X0313700Y0019384D02*
X0255805Y0019384D01*
X0255541Y0019469D02*
X0254717Y0019600D01*
X0254583Y0019600D01*
X0254583Y0014583D01*
X0259600Y0014583D01*
X0259600Y0014717D01*
X0259469Y0015541D01*
X0259212Y0016334D01*
X0258833Y0017078D01*
X0258343Y0017753D01*
X0257753Y0018343D01*
X0257078Y0018833D01*
X0256334Y0019212D01*
X0255541Y0019469D01*
X0254583Y0019384D02*
X0254288Y0019384D01*
X0254017Y0017785D02*
X0254583Y0017785D01*
X0254583Y0016187D02*
X0254017Y0016187D01*
X0254017Y0014588D02*
X0254583Y0014588D01*
X0254583Y0014017D02*
X0259600Y0014017D01*
X0259600Y0013883D01*
X0259469Y0013059D01*
X0259212Y0012266D01*
X0258833Y0011522D01*
X0258343Y0010847D01*
X0257753Y0010257D01*
X0257078Y0009767D01*
X0256334Y0009388D01*
X0255541Y0009130D01*
X0254717Y0009000D01*
X0254583Y0009000D01*
X0254583Y0014017D01*
X0254583Y0012990D02*
X0254017Y0012990D01*
X0254017Y0011391D02*
X0254583Y0011391D01*
X0254583Y0009793D02*
X0254017Y0009793D01*
X0251487Y0009793D02*
X0249697Y0009793D01*
X0248098Y0008194D02*
X0313700Y0008194D01*
X0313700Y0009793D02*
X0257113Y0009793D01*
X0258738Y0011391D02*
X0313700Y0011391D01*
X0313700Y0012990D02*
X0259447Y0012990D01*
X0259600Y0014588D02*
X0313700Y0014588D01*
X0313700Y0016187D02*
X0259260Y0016187D01*
X0258310Y0017785D02*
X0313700Y0017785D01*
X0284410Y0020982D02*
X0255886Y0020982D01*
X0256000Y0022581D02*
X0281358Y0022581D01*
X0279760Y0024179D02*
X0256000Y0024179D01*
X0256000Y0025778D02*
X0278951Y0025778D01*
X0260465Y0035369D02*
X0259161Y0035369D01*
X0258499Y0036967D02*
X0262063Y0036967D01*
X0263662Y0038566D02*
X0256806Y0038566D01*
X0253454Y0041524D02*
X0254200Y0043325D01*
X0254200Y0045275D01*
X0253454Y0047076D01*
X0252076Y0048454D01*
X0250275Y0049200D01*
X0248325Y0049200D01*
X0246524Y0048454D01*
X0245146Y0047076D01*
X0244400Y0045275D01*
X0244400Y0043325D01*
X0245146Y0041524D01*
X0246524Y0040146D01*
X0248325Y0039400D01*
X0250275Y0039400D01*
X0252076Y0040146D01*
X0253454Y0041524D01*
X0253553Y0041763D02*
X0266859Y0041763D01*
X0268457Y0043361D02*
X0254200Y0043361D01*
X0254200Y0044960D02*
X0270056Y0044960D01*
X0271654Y0046558D02*
X0253668Y0046558D01*
X0252373Y0048157D02*
X0273039Y0048157D01*
X0274864Y0044960D02*
X0313700Y0044960D01*
X0313700Y0046558D02*
X0276462Y0046558D01*
X0278061Y0048157D02*
X0313700Y0048157D01*
X0313700Y0049755D02*
X0279659Y0049755D01*
X0281258Y0051354D02*
X0313700Y0051354D01*
X0313700Y0052952D02*
X0282857Y0052952D01*
X0284455Y0054551D02*
X0313700Y0054551D01*
X0313700Y0043361D02*
X0273265Y0043361D01*
X0271667Y0041763D02*
X0313700Y0041763D01*
X0313700Y0040164D02*
X0270068Y0040164D01*
X0268470Y0038566D02*
X0313700Y0038566D01*
X0266645Y0054551D02*
X0264315Y0054551D01*
X0246227Y0048157D02*
X0242373Y0048157D01*
X0242076Y0048454D02*
X0240275Y0049200D01*
X0238325Y0049200D01*
X0236524Y0048454D01*
X0235146Y0047076D01*
X0234400Y0045275D01*
X0234400Y0043325D01*
X0235146Y0041524D01*
X0236524Y0040146D01*
X0238325Y0039400D01*
X0240275Y0039400D01*
X0242076Y0040146D01*
X0243454Y0041524D01*
X0244200Y0043325D01*
X0244200Y0045275D01*
X0243454Y0047076D01*
X0242076Y0048454D01*
X0243668Y0046558D02*
X0244932Y0046558D01*
X0244400Y0044960D02*
X0244200Y0044960D01*
X0244200Y0043361D02*
X0244400Y0043361D01*
X0245047Y0041763D02*
X0243553Y0041763D01*
X0242094Y0040164D02*
X0246506Y0040164D01*
X0246806Y0038566D02*
X0251794Y0038566D01*
X0252094Y0040164D02*
X0265260Y0040164D01*
X0250101Y0036967D02*
X0248499Y0036967D01*
X0249161Y0035369D02*
X0249439Y0035369D01*
X0249400Y0033770D02*
X0249200Y0033770D01*
X0248722Y0032172D02*
X0249878Y0032172D01*
X0249583Y0028975D02*
X0249017Y0028975D01*
X0249017Y0027376D02*
X0249583Y0027376D01*
X0249583Y0025778D02*
X0249017Y0025778D01*
X0249017Y0024179D02*
X0239583Y0024179D01*
X0239017Y0024179D02*
X0229583Y0024179D01*
X0229583Y0022581D02*
X0229017Y0022581D01*
X0229017Y0020982D02*
X0229583Y0020982D01*
X0229583Y0019384D02*
X0229017Y0019384D01*
X0227280Y0019384D02*
X0196000Y0019384D01*
X0197745Y0017785D02*
X0200855Y0017785D01*
X0199778Y0016187D02*
X0198822Y0016187D01*
X0202912Y0020982D02*
X0205688Y0020982D01*
X0204708Y0022581D02*
X0203892Y0022581D01*
X0207745Y0017785D02*
X0210855Y0017785D01*
X0209778Y0016187D02*
X0208822Y0016187D01*
X0209200Y0014588D02*
X0209400Y0014588D01*
X0209539Y0012990D02*
X0209061Y0012990D01*
X0208321Y0011391D02*
X0210279Y0011391D01*
X0218321Y0011391D02*
X0220279Y0011391D01*
X0219539Y0012990D02*
X0219061Y0012990D01*
X0219200Y0014588D02*
X0219400Y0014588D01*
X0219778Y0016187D02*
X0218822Y0016187D01*
X0217745Y0017785D02*
X0220855Y0017785D01*
X0222912Y0020982D02*
X0225159Y0020982D01*
X0224286Y0022581D02*
X0223892Y0022581D01*
X0223992Y0025778D02*
X0224207Y0025778D01*
X0224984Y0027376D02*
X0223153Y0027376D01*
X0217781Y0028975D02*
X0211000Y0028975D01*
X0211000Y0030573D02*
X0211097Y0030573D01*
X0213153Y0027376D02*
X0215447Y0027376D01*
X0214608Y0025778D02*
X0213992Y0025778D01*
X0214200Y0024179D02*
X0214400Y0024179D01*
X0214708Y0022581D02*
X0213892Y0022581D01*
X0212912Y0020982D02*
X0215688Y0020982D01*
X0227745Y0017785D02*
X0230290Y0017785D01*
X0229340Y0016187D02*
X0228822Y0016187D01*
X0231320Y0019384D02*
X0232795Y0019384D01*
X0234017Y0019384D02*
X0234583Y0019384D01*
X0235805Y0019384D02*
X0237280Y0019384D01*
X0239017Y0019384D02*
X0239583Y0019384D01*
X0239583Y0020982D02*
X0239017Y0020982D01*
X0239017Y0022581D02*
X0239583Y0022581D01*
X0243441Y0020982D02*
X0245159Y0020982D01*
X0244583Y0019384D02*
X0244017Y0019384D01*
X0242795Y0019384D02*
X0241320Y0019384D01*
X0240290Y0017785D02*
X0238310Y0017785D01*
X0239260Y0016187D02*
X0239340Y0016187D01*
X0244017Y0016187D02*
X0244583Y0016187D01*
X0244583Y0017785D02*
X0244017Y0017785D01*
X0245805Y0019384D02*
X0247280Y0019384D01*
X0249017Y0019384D02*
X0249479Y0019384D01*
X0249583Y0020982D02*
X0249017Y0020982D01*
X0249017Y0022581D02*
X0249583Y0022581D01*
X0244984Y0027376D02*
X0243616Y0027376D01*
X0239583Y0027376D02*
X0239017Y0027376D01*
X0239017Y0025778D02*
X0239583Y0025778D01*
X0239583Y0028975D02*
X0239017Y0028975D01*
X0238722Y0032172D02*
X0239878Y0032172D01*
X0239400Y0033770D02*
X0239200Y0033770D01*
X0239161Y0035369D02*
X0239439Y0035369D01*
X0240101Y0036967D02*
X0238499Y0036967D01*
X0236806Y0038566D02*
X0241794Y0038566D01*
X0236506Y0040164D02*
X0232094Y0040164D01*
X0231794Y0038566D02*
X0226806Y0038566D01*
X0228499Y0036967D02*
X0230101Y0036967D01*
X0229439Y0035369D02*
X0229161Y0035369D01*
X0229200Y0033770D02*
X0229400Y0033770D01*
X0229878Y0032172D02*
X0228722Y0032172D01*
X0229017Y0028975D02*
X0229583Y0028975D01*
X0229583Y0027376D02*
X0229017Y0027376D01*
X0229017Y0025778D02*
X0229583Y0025778D01*
X0233616Y0027376D02*
X0234984Y0027376D01*
X0235159Y0020982D02*
X0233441Y0020982D01*
X0234017Y0017785D02*
X0234583Y0017785D01*
X0234583Y0016187D02*
X0234017Y0016187D01*
X0234017Y0014588D02*
X0234583Y0014588D01*
X0244017Y0014588D02*
X0244583Y0014588D01*
X0235047Y0041763D02*
X0233553Y0041763D01*
X0234200Y0043361D02*
X0234400Y0043361D01*
X0234400Y0044960D02*
X0234200Y0044960D01*
X0233668Y0046558D02*
X0234932Y0046558D01*
X0236227Y0048157D02*
X0232373Y0048157D01*
X0202600Y0059346D02*
X0199017Y0059346D01*
X0202600Y0060945D02*
X0086000Y0060945D01*
X0086000Y0062543D02*
X0202600Y0062543D01*
X0202600Y0064142D02*
X0086000Y0064142D01*
X0086000Y0065740D02*
X0202600Y0065740D01*
X0202600Y0067339D02*
X0086000Y0067339D01*
X0086000Y0068937D02*
X0202600Y0068937D01*
X0194583Y0059346D02*
X0086000Y0059346D01*
X0086000Y0057748D02*
X0193547Y0057748D01*
X0193431Y0056149D02*
X0086000Y0056149D01*
X0086000Y0054551D02*
X0194285Y0054551D01*
X0198048Y0052952D02*
X0086000Y0052952D01*
X0086000Y0051354D02*
X0196450Y0051354D01*
X0194851Y0049755D02*
X0086000Y0049755D01*
X0086000Y0048157D02*
X0086227Y0048157D01*
X0092373Y0048157D02*
X0096227Y0048157D01*
X0096524Y0048454D02*
X0095146Y0047076D01*
X0094400Y0045275D01*
X0094400Y0043325D01*
X0095146Y0041524D01*
X0096524Y0040146D01*
X0098325Y0039400D01*
X0100275Y0039400D01*
X0102076Y0040146D01*
X0103454Y0041524D01*
X0104200Y0043325D01*
X0104200Y0045275D01*
X0103454Y0047076D01*
X0102076Y0048454D01*
X0100275Y0049200D01*
X0098325Y0049200D01*
X0096524Y0048454D01*
X0094932Y0046558D02*
X0093668Y0046558D01*
X0094200Y0044960D02*
X0094400Y0044960D01*
X0094400Y0043361D02*
X0094200Y0043361D01*
X0093553Y0041763D02*
X0095047Y0041763D01*
X0096506Y0040164D02*
X0092094Y0040164D01*
X0093325Y0039200D02*
X0091524Y0038454D01*
X0090146Y0037076D01*
X0089400Y0035275D01*
X0089400Y0033325D01*
X0090146Y0031524D01*
X0091524Y0030146D01*
X0093325Y0029400D01*
X0095275Y0029400D01*
X0097076Y0030146D01*
X0098454Y0031524D01*
X0099200Y0033325D01*
X0099200Y0035275D01*
X0098454Y0037076D01*
X0097076Y0038454D01*
X0095275Y0039200D01*
X0093325Y0039200D01*
X0091794Y0038566D02*
X0086806Y0038566D01*
X0086506Y0040164D02*
X0085068Y0040164D01*
X0088499Y0036967D02*
X0090101Y0036967D01*
X0089439Y0035369D02*
X0089161Y0035369D01*
X0089200Y0033770D02*
X0089400Y0033770D01*
X0089878Y0032172D02*
X0088722Y0032172D01*
X0087503Y0030573D02*
X0091097Y0030573D01*
X0090819Y0028975D02*
X0097781Y0028975D01*
X0098325Y0029200D02*
X0096524Y0028454D01*
X0095146Y0027076D01*
X0094400Y0025275D01*
X0094400Y0023325D01*
X0095146Y0021524D01*
X0096524Y0020146D01*
X0098325Y0019400D01*
X0100275Y0019400D01*
X0102076Y0020146D01*
X0103454Y0021524D01*
X0104200Y0023325D01*
X0104200Y0025275D01*
X0103454Y0027076D01*
X0102076Y0028454D01*
X0100275Y0029200D01*
X0098325Y0029200D01*
X0097503Y0030573D02*
X0101097Y0030573D01*
X0101524Y0030146D02*
X0103325Y0029400D01*
X0105275Y0029400D01*
X0107076Y0030146D01*
X0108454Y0031524D01*
X0109200Y0033325D01*
X0109200Y0035275D01*
X0108454Y0037076D01*
X0107076Y0038454D01*
X0105275Y0039200D01*
X0103325Y0039200D01*
X0101524Y0038454D01*
X0100146Y0037076D01*
X0099400Y0035275D01*
X0099400Y0033325D01*
X0100146Y0031524D01*
X0101524Y0030146D01*
X0100819Y0028975D02*
X0107781Y0028975D01*
X0108325Y0029200D02*
X0106524Y0028454D01*
X0105146Y0027076D01*
X0104400Y0025275D01*
X0104400Y0023325D01*
X0105146Y0021524D01*
X0106524Y0020146D01*
X0107600Y0019700D01*
X0107600Y0017930D01*
X0107076Y0018454D01*
X0105275Y0019200D01*
X0103325Y0019200D01*
X0101524Y0018454D01*
X0100146Y0017076D01*
X0099400Y0015275D01*
X0099400Y0013325D01*
X0100146Y0011524D01*
X0101524Y0010146D01*
X0103325Y0009400D01*
X0105275Y0009400D01*
X0107076Y0010146D01*
X0108454Y0011524D01*
X0108900Y0012600D01*
X0109700Y0012600D01*
X0110146Y0011524D01*
X0111524Y0010146D01*
X0113325Y0009400D01*
X0115275Y0009400D01*
X0117076Y0010146D01*
X0118454Y0011524D01*
X0119200Y0013325D01*
X0119200Y0015275D01*
X0118454Y0017076D01*
X0117076Y0018454D01*
X0115275Y0019200D01*
X0113325Y0019200D01*
X0111524Y0018454D01*
X0111000Y0017930D01*
X0111000Y0019700D01*
X0112076Y0020146D01*
X0113454Y0021524D01*
X0113900Y0022600D01*
X0114700Y0022600D01*
X0115146Y0021524D01*
X0116524Y0020146D01*
X0118325Y0019400D01*
X0120275Y0019400D01*
X0122076Y0020146D01*
X0123454Y0021524D01*
X0124200Y0023325D01*
X0124200Y0025275D01*
X0123454Y0027076D01*
X0122076Y0028454D01*
X0120275Y0029200D01*
X0118325Y0029200D01*
X0116524Y0028454D01*
X0115146Y0027076D01*
X0114700Y0026000D01*
X0113900Y0026000D01*
X0113454Y0027076D01*
X0112076Y0028454D01*
X0110275Y0029200D01*
X0108325Y0029200D01*
X0107503Y0030573D02*
X0111097Y0030573D01*
X0111524Y0030146D02*
X0113325Y0029400D01*
X0115275Y0029400D01*
X0117076Y0030146D01*
X0118454Y0031524D01*
X0119200Y0033325D01*
X0119200Y0035275D01*
X0118454Y0037076D01*
X0117076Y0038454D01*
X0115275Y0039200D01*
X0113325Y0039200D01*
X0111524Y0038454D01*
X0110146Y0037076D01*
X0109400Y0035275D01*
X0109400Y0033325D01*
X0110146Y0031524D01*
X0111524Y0030146D01*
X0110819Y0028975D02*
X0117781Y0028975D01*
X0117503Y0030573D02*
X0121097Y0030573D01*
X0121524Y0030146D02*
X0123325Y0029400D01*
X0125275Y0029400D01*
X0127076Y0030146D01*
X0128454Y0031524D01*
X0129200Y0033325D01*
X0129200Y0035275D01*
X0128454Y0037076D01*
X0127076Y0038454D01*
X0125275Y0039200D01*
X0123325Y0039200D01*
X0121524Y0038454D01*
X0120146Y0037076D01*
X0119400Y0035275D01*
X0119400Y0033325D01*
X0120146Y0031524D01*
X0121524Y0030146D01*
X0120819Y0028975D02*
X0127781Y0028975D01*
X0128325Y0029200D02*
X0126524Y0028454D01*
X0125146Y0027076D01*
X0124400Y0025275D01*
X0124400Y0023325D01*
X0125146Y0021524D01*
X0126524Y0020146D01*
X0128325Y0019400D01*
X0130275Y0019400D01*
X0132076Y0020146D01*
X0133454Y0021524D01*
X0134200Y0023325D01*
X0134200Y0025275D01*
X0133454Y0027076D01*
X0132076Y0028454D01*
X0130275Y0029200D01*
X0128325Y0029200D01*
X0127503Y0030573D02*
X0131097Y0030573D01*
X0131524Y0030146D02*
X0133325Y0029400D01*
X0135275Y0029400D01*
X0137076Y0030146D01*
X0138454Y0031524D01*
X0139200Y0033325D01*
X0139200Y0035275D01*
X0138454Y0037076D01*
X0137076Y0038454D01*
X0135275Y0039200D01*
X0133325Y0039200D01*
X0131524Y0038454D01*
X0130146Y0037076D01*
X0129400Y0035275D01*
X0129400Y0033325D01*
X0130146Y0031524D01*
X0131524Y0030146D01*
X0130819Y0028975D02*
X0137781Y0028975D01*
X0137503Y0030573D02*
X0141097Y0030573D01*
X0141524Y0030146D02*
X0143325Y0029400D01*
X0145275Y0029400D01*
X0147076Y0030146D01*
X0148454Y0031524D01*
X0149200Y0033325D01*
X0149200Y0035275D01*
X0148454Y0037076D01*
X0147076Y0038454D01*
X0145275Y0039200D01*
X0143325Y0039200D01*
X0141524Y0038454D01*
X0140146Y0037076D01*
X0139400Y0035275D01*
X0139400Y0033325D01*
X0140146Y0031524D01*
X0141524Y0030146D01*
X0140819Y0028975D02*
X0147781Y0028975D01*
X0147503Y0030573D02*
X0151097Y0030573D01*
X0151524Y0030146D02*
X0153325Y0029400D01*
X0155275Y0029400D01*
X0157076Y0030146D01*
X0158454Y0031524D01*
X0159200Y0033325D01*
X0159200Y0035275D01*
X0158454Y0037076D01*
X0157076Y0038454D01*
X0155275Y0039200D01*
X0153325Y0039200D01*
X0151524Y0038454D01*
X0150146Y0037076D01*
X0149400Y0035275D01*
X0149400Y0033325D01*
X0150146Y0031524D01*
X0151524Y0030146D01*
X0150819Y0028975D02*
X0157781Y0028975D01*
X0157503Y0030573D02*
X0161097Y0030573D01*
X0161524Y0030146D02*
X0160146Y0031524D01*
X0159400Y0033325D01*
X0159400Y0035275D01*
X0160146Y0037076D01*
X0161524Y0038454D01*
X0163325Y0039200D01*
X0165275Y0039200D01*
X0167076Y0038454D01*
X0168454Y0037076D01*
X0169200Y0035275D01*
X0169200Y0033325D01*
X0168454Y0031524D01*
X0167076Y0030146D01*
X0165275Y0029400D01*
X0163325Y0029400D01*
X0161524Y0030146D01*
X0160819Y0028975D02*
X0167781Y0028975D01*
X0168325Y0029200D02*
X0166524Y0028454D01*
X0165146Y0027076D01*
X0164400Y0025275D01*
X0164400Y0023325D01*
X0165146Y0021524D01*
X0166524Y0020146D01*
X0168325Y0019400D01*
X0170275Y0019400D01*
X0172076Y0020146D01*
X0173454Y0021524D01*
X0174200Y0023325D01*
X0174200Y0025275D01*
X0173454Y0027076D01*
X0172076Y0028454D01*
X0170275Y0029200D01*
X0168325Y0029200D01*
X0167503Y0030573D02*
X0171097Y0030573D01*
X0171524Y0030146D02*
X0173325Y0029400D01*
X0175275Y0029400D01*
X0177076Y0030146D01*
X0178454Y0031524D01*
X0179200Y0033325D01*
X0179200Y0035275D01*
X0178454Y0037076D01*
X0177076Y0038454D01*
X0175275Y0039200D01*
X0173325Y0039200D01*
X0171524Y0038454D01*
X0170146Y0037076D01*
X0169400Y0035275D01*
X0169400Y0033325D01*
X0170146Y0031524D01*
X0171524Y0030146D01*
X0170819Y0028975D02*
X0177781Y0028975D01*
X0177503Y0030573D02*
X0181097Y0030573D01*
X0180819Y0028975D02*
X0184071Y0028975D01*
X0179878Y0032172D02*
X0178722Y0032172D01*
X0179200Y0033770D02*
X0179400Y0033770D01*
X0179439Y0035369D02*
X0179161Y0035369D01*
X0178499Y0036967D02*
X0180101Y0036967D01*
X0181794Y0038566D02*
X0176806Y0038566D01*
X0176524Y0040146D02*
X0178325Y0039400D01*
X0180275Y0039400D01*
X0182076Y0040146D01*
X0183454Y0041524D01*
X0184200Y0043325D01*
X0184200Y0045275D01*
X0183454Y0047076D01*
X0182076Y0048454D01*
X0180275Y0049200D01*
X0178325Y0049200D01*
X0176524Y0048454D01*
X0175146Y0047076D01*
X0174400Y0045275D01*
X0174400Y0043325D01*
X0175146Y0041524D01*
X0176524Y0040146D01*
X0176506Y0040164D02*
X0172094Y0040164D01*
X0172076Y0040146D02*
X0173454Y0041524D01*
X0174200Y0043325D01*
X0174200Y0045275D01*
X0173454Y0047076D01*
X0172076Y0048454D01*
X0170275Y0049200D01*
X0168325Y0049200D01*
X0166524Y0048454D01*
X0165146Y0047076D01*
X0164400Y0045275D01*
X0164400Y0043325D01*
X0165146Y0041524D01*
X0166524Y0040146D01*
X0168325Y0039400D01*
X0170275Y0039400D01*
X0172076Y0040146D01*
X0171794Y0038566D02*
X0166806Y0038566D01*
X0166506Y0040164D02*
X0162094Y0040164D01*
X0162076Y0040146D02*
X0163454Y0041524D01*
X0164200Y0043325D01*
X0164200Y0045275D01*
X0163454Y0047076D01*
X0162076Y0048454D01*
X0160275Y0049200D01*
X0158325Y0049200D01*
X0156524Y0048454D01*
X0155146Y0047076D01*
X0154400Y0045275D01*
X0154400Y0043325D01*
X0155146Y0041524D01*
X0156524Y0040146D01*
X0158325Y0039400D01*
X0160275Y0039400D01*
X0162076Y0040146D01*
X0161794Y0038566D02*
X0156806Y0038566D01*
X0156506Y0040164D02*
X0152094Y0040164D01*
X0152076Y0040146D02*
X0153454Y0041524D01*
X0154200Y0043325D01*
X0154200Y0045275D01*
X0153454Y0047076D01*
X0152076Y0048454D01*
X0150275Y0049200D01*
X0148325Y0049200D01*
X0146524Y0048454D01*
X0145146Y0047076D01*
X0144400Y0045275D01*
X0144400Y0043325D01*
X0145146Y0041524D01*
X0146524Y0040146D01*
X0148325Y0039400D01*
X0150275Y0039400D01*
X0152076Y0040146D01*
X0151794Y0038566D02*
X0146806Y0038566D01*
X0146506Y0040164D02*
X0142094Y0040164D01*
X0142076Y0040146D02*
X0143454Y0041524D01*
X0144200Y0043325D01*
X0144200Y0045275D01*
X0143454Y0047076D01*
X0142076Y0048454D01*
X0140275Y0049200D01*
X0138325Y0049200D01*
X0136524Y0048454D01*
X0135146Y0047076D01*
X0134400Y0045275D01*
X0134400Y0043325D01*
X0135146Y0041524D01*
X0136524Y0040146D01*
X0138325Y0039400D01*
X0140275Y0039400D01*
X0142076Y0040146D01*
X0141794Y0038566D02*
X0136806Y0038566D01*
X0136506Y0040164D02*
X0132094Y0040164D01*
X0132076Y0040146D02*
X0133454Y0041524D01*
X0134200Y0043325D01*
X0134200Y0045275D01*
X0133454Y0047076D01*
X0132076Y0048454D01*
X0130275Y0049200D01*
X0128325Y0049200D01*
X0126524Y0048454D01*
X0125146Y0047076D01*
X0124400Y0045275D01*
X0124400Y0043325D01*
X0125146Y0041524D01*
X0126524Y0040146D01*
X0128325Y0039400D01*
X0130275Y0039400D01*
X0132076Y0040146D01*
X0131794Y0038566D02*
X0126806Y0038566D01*
X0126506Y0040164D02*
X0122094Y0040164D01*
X0122076Y0040146D02*
X0123454Y0041524D01*
X0124200Y0043325D01*
X0124200Y0045275D01*
X0123454Y0047076D01*
X0122076Y0048454D01*
X0120275Y0049200D01*
X0118325Y0049200D01*
X0116524Y0048454D01*
X0115146Y0047076D01*
X0114400Y0045275D01*
X0114400Y0043325D01*
X0115146Y0041524D01*
X0116524Y0040146D01*
X0118325Y0039400D01*
X0120275Y0039400D01*
X0122076Y0040146D01*
X0121794Y0038566D02*
X0116806Y0038566D01*
X0116506Y0040164D02*
X0112094Y0040164D01*
X0112076Y0040146D02*
X0113454Y0041524D01*
X0114200Y0043325D01*
X0114200Y0045275D01*
X0113454Y0047076D01*
X0112076Y0048454D01*
X0110275Y0049200D01*
X0108325Y0049200D01*
X0106524Y0048454D01*
X0105146Y0047076D01*
X0104400Y0045275D01*
X0104400Y0043325D01*
X0105146Y0041524D01*
X0106524Y0040146D01*
X0108325Y0039400D01*
X0110275Y0039400D01*
X0112076Y0040146D01*
X0111794Y0038566D02*
X0106806Y0038566D01*
X0106506Y0040164D02*
X0102094Y0040164D01*
X0101794Y0038566D02*
X0096806Y0038566D01*
X0098499Y0036967D02*
X0100101Y0036967D01*
X0099439Y0035369D02*
X0099161Y0035369D01*
X0099200Y0033770D02*
X0099400Y0033770D01*
X0099878Y0032172D02*
X0098722Y0032172D01*
X0095447Y0027376D02*
X0093153Y0027376D01*
X0093992Y0025778D02*
X0094608Y0025778D01*
X0094400Y0024179D02*
X0094200Y0024179D01*
X0093892Y0022581D02*
X0094708Y0022581D01*
X0095688Y0020982D02*
X0092912Y0020982D01*
X0091000Y0019384D02*
X0107600Y0019384D01*
X0105688Y0020982D02*
X0102912Y0020982D01*
X0103892Y0022581D02*
X0104708Y0022581D01*
X0104400Y0024179D02*
X0104200Y0024179D01*
X0103992Y0025778D02*
X0104608Y0025778D01*
X0105447Y0027376D02*
X0103153Y0027376D01*
X0108722Y0032172D02*
X0109878Y0032172D01*
X0109400Y0033770D02*
X0109200Y0033770D01*
X0109161Y0035369D02*
X0109439Y0035369D01*
X0110101Y0036967D02*
X0108499Y0036967D01*
X0105047Y0041763D02*
X0103553Y0041763D01*
X0104200Y0043361D02*
X0104400Y0043361D01*
X0104400Y0044960D02*
X0104200Y0044960D01*
X0103668Y0046558D02*
X0104932Y0046558D01*
X0106227Y0048157D02*
X0102373Y0048157D01*
X0112373Y0048157D02*
X0116227Y0048157D01*
X0114932Y0046558D02*
X0113668Y0046558D01*
X0114200Y0044960D02*
X0114400Y0044960D01*
X0114400Y0043361D02*
X0114200Y0043361D01*
X0113553Y0041763D02*
X0115047Y0041763D01*
X0118499Y0036967D02*
X0120101Y0036967D01*
X0119439Y0035369D02*
X0119161Y0035369D01*
X0119200Y0033770D02*
X0119400Y0033770D01*
X0119878Y0032172D02*
X0118722Y0032172D01*
X0115447Y0027376D02*
X0113153Y0027376D01*
X0113892Y0022581D02*
X0114708Y0022581D01*
X0115688Y0020982D02*
X0112912Y0020982D01*
X0111000Y0019384D02*
X0137600Y0019384D01*
X0135688Y0020982D02*
X0132912Y0020982D01*
X0133892Y0022581D02*
X0134708Y0022581D01*
X0134400Y0024179D02*
X0134200Y0024179D01*
X0133992Y0025778D02*
X0134608Y0025778D01*
X0135447Y0027376D02*
X0133153Y0027376D01*
X0129878Y0032172D02*
X0128722Y0032172D01*
X0129200Y0033770D02*
X0129400Y0033770D01*
X0129439Y0035369D02*
X0129161Y0035369D01*
X0128499Y0036967D02*
X0130101Y0036967D01*
X0133553Y0041763D02*
X0135047Y0041763D01*
X0134400Y0043361D02*
X0134200Y0043361D01*
X0134200Y0044960D02*
X0134400Y0044960D01*
X0134932Y0046558D02*
X0133668Y0046558D01*
X0132373Y0048157D02*
X0136227Y0048157D01*
X0142373Y0048157D02*
X0146227Y0048157D01*
X0144932Y0046558D02*
X0143668Y0046558D01*
X0144200Y0044960D02*
X0144400Y0044960D01*
X0144400Y0043361D02*
X0144200Y0043361D01*
X0143553Y0041763D02*
X0145047Y0041763D01*
X0148499Y0036967D02*
X0150101Y0036967D01*
X0149439Y0035369D02*
X0149161Y0035369D01*
X0149200Y0033770D02*
X0149400Y0033770D01*
X0149878Y0032172D02*
X0148722Y0032172D01*
X0145447Y0027376D02*
X0143153Y0027376D01*
X0143992Y0025778D02*
X0144608Y0025778D01*
X0144400Y0024179D02*
X0144200Y0024179D01*
X0143892Y0022581D02*
X0144708Y0022581D01*
X0145688Y0020982D02*
X0142912Y0020982D01*
X0141000Y0019384D02*
X0157600Y0019384D01*
X0155688Y0020982D02*
X0152912Y0020982D01*
X0153892Y0022581D02*
X0154708Y0022581D01*
X0150855Y0017785D02*
X0147745Y0017785D01*
X0148822Y0016187D02*
X0149778Y0016187D01*
X0149400Y0014588D02*
X0149200Y0014588D01*
X0149061Y0012990D02*
X0149539Y0012990D01*
X0150279Y0011391D02*
X0148321Y0011391D01*
X0138002Y0008194D02*
X0090598Y0008194D01*
X0091000Y0009793D02*
X0092378Y0009793D01*
X0096222Y0009793D02*
X0102378Y0009793D01*
X0100279Y0011391D02*
X0098321Y0011391D01*
X0099061Y0012990D02*
X0099539Y0012990D01*
X0099400Y0014588D02*
X0099200Y0014588D01*
X0098822Y0016187D02*
X0099778Y0016187D01*
X0100855Y0017785D02*
X0097745Y0017785D01*
X0087600Y0019384D02*
X0076000Y0019384D01*
X0077745Y0017785D02*
X0080855Y0017785D01*
X0079778Y0016187D02*
X0078822Y0016187D01*
X0079200Y0014588D02*
X0079400Y0014588D01*
X0079539Y0012990D02*
X0079061Y0012990D01*
X0078321Y0011391D02*
X0080279Y0011391D01*
X0082912Y0020982D02*
X0085688Y0020982D01*
X0084708Y0022581D02*
X0083892Y0022581D01*
X0084200Y0024179D02*
X0084400Y0024179D01*
X0084608Y0025778D02*
X0083992Y0025778D01*
X0083153Y0027376D02*
X0085447Y0027376D01*
X0087781Y0028975D02*
X0081000Y0028975D01*
X0081000Y0030573D02*
X0081097Y0030573D01*
X0106222Y0009793D02*
X0112378Y0009793D01*
X0110279Y0011391D02*
X0108321Y0011391D01*
X0116222Y0009793D02*
X0122378Y0009793D01*
X0121524Y0010146D02*
X0123325Y0009400D01*
X0125275Y0009400D01*
X0127076Y0010146D01*
X0128454Y0011524D01*
X0129200Y0013325D01*
X0129200Y0015275D01*
X0128454Y0017076D01*
X0127076Y0018454D01*
X0125275Y0019200D01*
X0123325Y0019200D01*
X0121524Y0018454D01*
X0120146Y0017076D01*
X0119400Y0015275D01*
X0119400Y0013325D01*
X0120146Y0011524D01*
X0121524Y0010146D01*
X0120279Y0011391D02*
X0118321Y0011391D01*
X0119061Y0012990D02*
X0119539Y0012990D01*
X0119400Y0014588D02*
X0119200Y0014588D01*
X0118822Y0016187D02*
X0119778Y0016187D01*
X0120855Y0017785D02*
X0117745Y0017785D01*
X0122912Y0020982D02*
X0125688Y0020982D01*
X0124708Y0022581D02*
X0123892Y0022581D01*
X0124200Y0024179D02*
X0124400Y0024179D01*
X0124608Y0025778D02*
X0123992Y0025778D01*
X0123153Y0027376D02*
X0125447Y0027376D01*
X0138722Y0032172D02*
X0139878Y0032172D01*
X0139400Y0033770D02*
X0139200Y0033770D01*
X0139161Y0035369D02*
X0139439Y0035369D01*
X0140101Y0036967D02*
X0138499Y0036967D01*
X0125047Y0041763D02*
X0123553Y0041763D01*
X0124200Y0043361D02*
X0124400Y0043361D01*
X0124400Y0044960D02*
X0124200Y0044960D01*
X0123668Y0046558D02*
X0124932Y0046558D01*
X0126227Y0048157D02*
X0122373Y0048157D01*
X0152373Y0048157D02*
X0156227Y0048157D01*
X0154932Y0046558D02*
X0153668Y0046558D01*
X0154200Y0044960D02*
X0154400Y0044960D01*
X0154400Y0043361D02*
X0154200Y0043361D01*
X0153553Y0041763D02*
X0155047Y0041763D01*
X0158499Y0036967D02*
X0160101Y0036967D01*
X0159439Y0035369D02*
X0159161Y0035369D01*
X0159200Y0033770D02*
X0159400Y0033770D01*
X0159878Y0032172D02*
X0158722Y0032172D01*
X0155447Y0027376D02*
X0153153Y0027376D01*
X0163153Y0027376D02*
X0165447Y0027376D01*
X0164608Y0025778D02*
X0163992Y0025778D01*
X0164200Y0024179D02*
X0164400Y0024179D01*
X0164708Y0022581D02*
X0163892Y0022581D01*
X0162912Y0020982D02*
X0165688Y0020982D01*
X0167745Y0017785D02*
X0170855Y0017785D01*
X0169778Y0016187D02*
X0168822Y0016187D01*
X0169200Y0014588D02*
X0169400Y0014588D01*
X0169539Y0012990D02*
X0169061Y0012990D01*
X0168321Y0011391D02*
X0170279Y0011391D01*
X0178321Y0011391D02*
X0180279Y0011391D01*
X0179539Y0012990D02*
X0179061Y0012990D01*
X0179200Y0014588D02*
X0179400Y0014588D01*
X0179778Y0016187D02*
X0178822Y0016187D01*
X0177745Y0017785D02*
X0180855Y0017785D01*
X0182600Y0019384D02*
X0161000Y0019384D01*
X0172912Y0020982D02*
X0175688Y0020982D01*
X0174708Y0022581D02*
X0173892Y0022581D01*
X0174200Y0024179D02*
X0174400Y0024179D01*
X0174608Y0025778D02*
X0173992Y0025778D01*
X0173153Y0027376D02*
X0175447Y0027376D01*
X0169878Y0032172D02*
X0168722Y0032172D01*
X0169200Y0033770D02*
X0169400Y0033770D01*
X0169439Y0035369D02*
X0169161Y0035369D01*
X0168499Y0036967D02*
X0170101Y0036967D01*
X0173553Y0041763D02*
X0175047Y0041763D01*
X0174400Y0043361D02*
X0174200Y0043361D01*
X0174200Y0044960D02*
X0174400Y0044960D01*
X0174932Y0046558D02*
X0173668Y0046558D01*
X0172373Y0048157D02*
X0176227Y0048157D01*
X0182373Y0048157D02*
X0186227Y0048157D01*
X0184932Y0046558D02*
X0183668Y0046558D01*
X0184200Y0044960D02*
X0184400Y0044960D01*
X0184400Y0043361D02*
X0184200Y0043361D01*
X0183553Y0041763D02*
X0185047Y0041763D01*
X0186506Y0040164D02*
X0182094Y0040164D01*
X0186806Y0038566D02*
X0188662Y0038566D01*
X0192373Y0048157D02*
X0193253Y0048157D01*
X0199315Y0054551D02*
X0199647Y0054551D01*
X0166227Y0048157D02*
X0162373Y0048157D01*
X0163668Y0046558D02*
X0164932Y0046558D01*
X0164400Y0044960D02*
X0164200Y0044960D01*
X0164200Y0043361D02*
X0164400Y0043361D01*
X0165047Y0041763D02*
X0163553Y0041763D01*
X0130855Y0017785D02*
X0127745Y0017785D01*
X0128822Y0016187D02*
X0129778Y0016187D01*
X0129400Y0014588D02*
X0129200Y0014588D01*
X0129061Y0012990D02*
X0129539Y0012990D01*
X0130279Y0011391D02*
X0128321Y0011391D01*
X0126222Y0009793D02*
X0132378Y0009793D01*
X0136222Y0009793D02*
X0137600Y0009793D01*
X0091800Y0072134D02*
X0091800Y0072134D01*
X0091800Y0073733D02*
X0091800Y0073733D01*
X0087150Y0081726D02*
X0086000Y0081726D01*
X0086000Y0083324D02*
X0087150Y0083324D01*
X0087150Y0084923D02*
X0086000Y0084923D01*
X0086000Y0086521D02*
X0087150Y0086521D01*
X0087150Y0088120D02*
X0086000Y0088120D01*
X0086000Y0089718D02*
X0090100Y0089718D01*
X0090100Y0091317D02*
X0086221Y0091317D01*
X0087819Y0092915D02*
X0090511Y0092915D01*
X0089418Y0094514D02*
X0092110Y0094514D01*
X0091016Y0096112D02*
X0093708Y0096112D01*
X0092615Y0097711D02*
X0095307Y0097711D01*
X0094213Y0099309D02*
X0096905Y0099309D01*
X0095812Y0100908D02*
X0098504Y0100908D01*
X0097410Y0102506D02*
X0100102Y0102506D01*
X0099009Y0104105D02*
X0101701Y0104105D01*
X0067600Y0108900D02*
X0063712Y0108900D01*
X0037565Y0107302D02*
X0036035Y0107302D01*
X0036035Y0105703D02*
X0037565Y0105703D01*
X0030085Y0105703D02*
X0028301Y0105703D01*
X0026702Y0107302D02*
X0030085Y0107302D01*
X0030085Y0108900D02*
X0023712Y0108900D01*
X0023156Y0113696D02*
X0033909Y0113696D01*
X0037193Y0112097D02*
X0016000Y0112097D01*
X0016000Y0110499D02*
X0030369Y0110499D01*
X0025091Y0104105D02*
X0023565Y0104105D01*
X0026690Y0102506D02*
X0008500Y0102506D01*
X0008500Y0100908D02*
X0027600Y0100908D01*
X0027600Y0099309D02*
X0008500Y0099309D01*
X0008500Y0097711D02*
X0027600Y0097711D01*
X0027600Y0096112D02*
X0008500Y0096112D01*
X0008500Y0094514D02*
X0027600Y0094514D01*
X0027600Y0092915D02*
X0023614Y0092915D01*
X0023755Y0092843D02*
X0022964Y0093246D01*
X0022120Y0093520D01*
X0021280Y0093653D01*
X0021280Y0088500D01*
X0026433Y0088500D01*
X0026300Y0089341D01*
X0026025Y0090185D01*
X0025623Y0090976D01*
X0025101Y0091694D01*
X0024473Y0092321D01*
X0023755Y0092843D01*
X0025375Y0091317D02*
X0027600Y0091317D01*
X0027600Y0089718D02*
X0026177Y0089718D01*
X0027600Y0088120D02*
X0021280Y0088120D01*
X0021280Y0088500D02*
X0021280Y0087541D01*
X0026433Y0087541D01*
X0026300Y0086700D01*
X0026025Y0085856D01*
X0025623Y0085065D01*
X0025101Y0084347D01*
X0024473Y0083720D01*
X0023755Y0083198D01*
X0022964Y0082795D01*
X0022120Y0082521D01*
X0021280Y0082388D01*
X0021280Y0087541D01*
X0020320Y0087541D01*
X0015167Y0087541D01*
X0015300Y0086700D01*
X0015575Y0085856D01*
X0015977Y0085065D01*
X0016499Y0084347D01*
X0017127Y0083720D01*
X0017845Y0083198D01*
X0018636Y0082795D01*
X0019480Y0082521D01*
X0020320Y0082388D01*
X0020320Y0087541D01*
X0020320Y0088500D01*
X0015167Y0088500D01*
X0015300Y0089341D01*
X0015575Y0090185D01*
X0015977Y0090976D01*
X0016499Y0091694D01*
X0017127Y0092321D01*
X0017845Y0092843D01*
X0018636Y0093246D01*
X0019480Y0093520D01*
X0020320Y0093653D01*
X0020320Y0088500D01*
X0021280Y0088500D01*
X0020320Y0088120D02*
X0008500Y0088120D01*
X0008500Y0089718D02*
X0015423Y0089718D01*
X0016225Y0091317D02*
X0008500Y0091317D01*
X0008500Y0092915D02*
X0017986Y0092915D01*
X0020320Y0092915D02*
X0021280Y0092915D01*
X0021280Y0091317D02*
X0020320Y0091317D01*
X0020320Y0089718D02*
X0021280Y0089718D01*
X0021280Y0086521D02*
X0020320Y0086521D01*
X0020320Y0084923D02*
X0021280Y0084923D01*
X0021280Y0083324D02*
X0020320Y0083324D01*
X0017671Y0083324D02*
X0011889Y0083324D01*
X0010564Y0084923D02*
X0016081Y0084923D01*
X0015358Y0086521D02*
X0009239Y0086521D01*
X0006148Y0084923D02*
X0004900Y0084923D01*
X0004900Y0086521D02*
X0005066Y0086521D01*
X0005100Y0088120D02*
X0004900Y0088120D01*
X0004900Y0089718D02*
X0005100Y0089718D01*
X0005100Y0091317D02*
X0004900Y0091317D01*
X0004900Y0092915D02*
X0005100Y0092915D01*
X0005100Y0094514D02*
X0004900Y0094514D01*
X0004900Y0096112D02*
X0005100Y0096112D01*
X0005100Y0097711D02*
X0004900Y0097711D01*
X0004900Y0099309D02*
X0005100Y0099309D01*
X0005100Y0100908D02*
X0004900Y0100908D01*
X0004900Y0102506D02*
X0005100Y0102506D01*
X0005100Y0104105D02*
X0004900Y0104105D01*
X0004900Y0105703D02*
X0005100Y0105703D01*
X0005100Y0107302D02*
X0004900Y0107302D01*
X0004900Y0108900D02*
X0005100Y0108900D01*
X0005100Y0110499D02*
X0004900Y0110499D01*
X0004900Y0112097D02*
X0005100Y0112097D01*
X0005100Y0113696D02*
X0004900Y0113696D01*
X0004900Y0115294D02*
X0005100Y0115294D01*
X0005100Y0116893D02*
X0004900Y0116893D01*
X0004900Y0118491D02*
X0005100Y0118491D01*
X0005100Y0120090D02*
X0004900Y0120090D01*
X0004900Y0121688D02*
X0005100Y0121688D01*
X0004900Y0123287D02*
X0005883Y0123287D01*
X0004900Y0124885D02*
X0007481Y0124885D01*
X0009080Y0126484D02*
X0004900Y0126484D01*
X0004900Y0128082D02*
X0010678Y0128082D01*
X0012277Y0129681D02*
X0004900Y0129681D01*
X0004900Y0131279D02*
X0013875Y0131279D01*
X0015474Y0132878D02*
X0004900Y0132878D01*
X0004900Y0134476D02*
X0017072Y0134476D01*
X0018671Y0136075D02*
X0004900Y0136075D01*
X0004900Y0137673D02*
X0020269Y0137673D01*
X0021868Y0139272D02*
X0004900Y0139272D01*
X0004900Y0140870D02*
X0023466Y0140870D01*
X0025065Y0142469D02*
X0004900Y0142469D01*
X0004900Y0144068D02*
X0313700Y0144068D01*
X0313700Y0145666D02*
X0004900Y0145666D01*
X0004900Y0147265D02*
X0313700Y0147265D01*
X0313700Y0148863D02*
X0004900Y0148863D01*
X0004900Y0150462D02*
X0313700Y0150462D01*
X0313700Y0152060D02*
X0004900Y0152060D01*
X0004900Y0153659D02*
X0313700Y0153659D01*
X0307600Y0102506D02*
X0306000Y0102506D01*
X0305812Y0100908D02*
X0307600Y0100908D01*
X0043862Y0136075D02*
X0039738Y0136075D01*
X0041212Y0134476D02*
X0042388Y0134476D01*
X0021991Y0134476D02*
X0021881Y0134476D01*
X0021402Y0132878D02*
X0020282Y0132878D01*
X0021314Y0131279D02*
X0018684Y0131279D01*
X0017085Y0129681D02*
X0021707Y0129681D01*
X0022739Y0128082D02*
X0015487Y0128082D01*
X0013888Y0126484D02*
X0021580Y0126484D01*
X0019981Y0124885D02*
X0012290Y0124885D01*
X0010691Y0123287D02*
X0018383Y0123287D01*
X0016784Y0121688D02*
X0009092Y0121688D01*
X0008500Y0120090D02*
X0010630Y0120090D01*
X0009888Y0118491D02*
X0008500Y0118491D01*
X0008500Y0116893D02*
X0009888Y0116893D01*
X0009888Y0115294D02*
X0008500Y0115294D01*
X0008500Y0113696D02*
X0010444Y0113696D01*
X0008500Y0112097D02*
X0012600Y0112097D01*
X0012600Y0110499D02*
X0008500Y0110499D01*
X0008500Y0108900D02*
X0009888Y0108900D01*
X0009888Y0107302D02*
X0008500Y0107302D01*
X0008500Y0105703D02*
X0009888Y0105703D01*
X0010035Y0104105D02*
X0008500Y0104105D01*
X0013454Y0106800D02*
X0014300Y0106800D01*
X0016463Y0113696D02*
X0017137Y0113696D01*
X0026242Y0086521D02*
X0027600Y0086521D01*
X0027600Y0084923D02*
X0025519Y0084923D01*
X0023929Y0083324D02*
X0027600Y0083324D01*
X0027600Y0081726D02*
X0013214Y0081726D01*
X0014539Y0080127D02*
X0027600Y0080127D01*
X0027600Y0078529D02*
X0015864Y0078529D01*
X0017189Y0076930D02*
X0027600Y0076930D01*
X0027600Y0075332D02*
X0018514Y0075332D01*
X0015423Y0073733D02*
X0004900Y0073733D01*
X0004900Y0072134D02*
X0016051Y0072134D01*
X0015561Y0070536D02*
X0004900Y0070536D01*
X0004900Y0068937D02*
X0015561Y0068937D01*
X0016195Y0067339D02*
X0004900Y0067339D01*
X0004900Y0065740D02*
X0017561Y0065740D01*
X0024039Y0065740D02*
X0027600Y0065740D01*
X0027600Y0064142D02*
X0004900Y0064142D01*
X0004900Y0062543D02*
X0027600Y0062543D01*
X0027600Y0060945D02*
X0004900Y0060945D01*
X0004900Y0059346D02*
X0027600Y0059346D01*
X0026863Y0057748D02*
X0004900Y0057748D01*
X0004900Y0056149D02*
X0017741Y0056149D01*
X0016269Y0054551D02*
X0004900Y0054551D01*
X0004900Y0052952D02*
X0015607Y0052952D01*
X0015561Y0051354D02*
X0004900Y0051354D01*
X0004900Y0049755D02*
X0015977Y0049755D01*
X0017035Y0048157D02*
X0004900Y0048157D01*
X0004900Y0036967D02*
X0022840Y0036967D01*
X0020708Y0035369D02*
X0004900Y0035369D01*
X0004900Y0033770D02*
X0019344Y0033770D01*
X0018682Y0032172D02*
X0004900Y0032172D01*
X0004900Y0030573D02*
X0018201Y0030573D01*
X0018201Y0028975D02*
X0004900Y0028975D01*
X0004900Y0027376D02*
X0018289Y0027376D01*
X0018951Y0025778D02*
X0004900Y0025778D01*
X0004900Y0024179D02*
X0019760Y0024179D01*
X0021358Y0022581D02*
X0004900Y0022581D01*
X0023859Y0056149D02*
X0024392Y0056149D01*
X0025405Y0067339D02*
X0027600Y0067339D01*
X0027600Y0068937D02*
X0026039Y0068937D01*
X0026039Y0070536D02*
X0027600Y0070536D01*
X0027600Y0072134D02*
X0025549Y0072134D01*
X0024386Y0073733D02*
X0027600Y0073733D01*
X0014098Y0075332D02*
X0004900Y0075332D01*
X0004900Y0076930D02*
X0012773Y0076930D01*
X0011448Y0078529D02*
X0004900Y0078529D01*
X0004900Y0080127D02*
X0010123Y0080127D01*
X0008798Y0081726D02*
X0004900Y0081726D01*
X0004900Y0083324D02*
X0007473Y0083324D01*
D24*
X0006800Y0086800D02*
X0020800Y0069910D01*
X0029300Y0057300D02*
X0020800Y0051800D01*
X0029300Y0057300D02*
X0029300Y0102300D01*
X0024800Y0106800D01*
X0020146Y0106800D01*
X0014300Y0106800D02*
X0014300Y0116800D01*
X0013454Y0116800D01*
X0014300Y0116800D02*
X0024300Y0126800D01*
X0036800Y0126800D01*
X0036800Y0131800D01*
X0046800Y0131800D02*
X0046800Y0129300D01*
X0059300Y0116800D01*
X0060146Y0116800D01*
X0053454Y0116800D02*
X0036800Y0116800D01*
X0036800Y0116131D01*
X0036800Y0116800D02*
X0020146Y0116800D01*
X0006800Y0121800D02*
X0006800Y0086800D01*
X0040540Y0107863D02*
X0041800Y0106800D01*
X0053454Y0106800D01*
X0054300Y0106800D01*
X0054300Y0056800D01*
X0061800Y0056800D01*
X0054300Y0056800D02*
X0054300Y0016800D01*
X0061800Y0009300D01*
X0089300Y0009300D01*
X0089300Y0024300D01*
X0079300Y0024300D02*
X0074300Y0024300D01*
X0074300Y0014300D01*
X0064300Y0014300D01*
X0069300Y0024300D02*
X0074300Y0024300D01*
X0079300Y0024300D02*
X0079300Y0036800D01*
X0084300Y0041800D01*
X0084300Y0056800D01*
X0076800Y0056800D01*
X0084300Y0056800D02*
X0084300Y0091800D01*
X0099300Y0106800D01*
X0100540Y0107863D01*
X0101800Y0109300D01*
X0109300Y0116800D01*
X0113454Y0116800D01*
X0119300Y0116800D02*
X0120146Y0116800D01*
X0111800Y0106800D01*
X0106800Y0106800D01*
X0091800Y0091800D01*
X0091800Y0084800D01*
X0091800Y0106800D02*
X0069300Y0106800D01*
X0069300Y0121800D01*
X0086800Y0139300D01*
X0119300Y0139300D01*
X0119300Y0116800D01*
X0120146Y0116800D02*
X0194300Y0116800D01*
X0194300Y0114300D01*
X0199300Y0109300D01*
X0199300Y0111800D01*
X0206800Y0111800D01*
X0209300Y0109300D01*
X0216800Y0109300D01*
X0218060Y0107863D01*
X0219300Y0109300D01*
X0219300Y0111800D01*
X0239300Y0111800D01*
X0244300Y0106800D01*
X0245146Y0106800D01*
X0244300Y0106800D02*
X0234300Y0096800D01*
X0234300Y0089300D01*
X0232702Y0089001D01*
X0221800Y0089300D01*
X0232702Y0089001D02*
X0234300Y0086800D01*
X0234300Y0081800D01*
X0214300Y0061800D01*
X0214300Y0041800D01*
X0209300Y0036800D01*
X0209300Y0024300D01*
X0199300Y0024300D01*
X0194300Y0024300D01*
X0194300Y0014300D01*
X0204300Y0014300D01*
X0184300Y0014300D02*
X0184300Y0026800D01*
X0189300Y0031800D01*
X0189300Y0036800D01*
X0194300Y0041800D01*
X0194300Y0046800D01*
X0204300Y0056800D01*
X0196800Y0056800D01*
X0204300Y0056800D02*
X0204300Y0086800D01*
X0224300Y0106800D01*
X0225540Y0107863D01*
X0226800Y0106800D01*
X0238454Y0106800D01*
X0221800Y0116131D02*
X0221800Y0116800D01*
X0231800Y0126800D01*
X0231800Y0131800D01*
X0221800Y0131800D02*
X0221800Y0126800D01*
X0209300Y0126800D01*
X0199300Y0116800D01*
X0198454Y0116800D01*
X0205146Y0116800D02*
X0221800Y0116800D01*
X0205146Y0106800D02*
X0204300Y0106800D01*
X0199300Y0101800D01*
X0199300Y0081800D01*
X0197300Y0079800D01*
X0234300Y0081800D02*
X0251800Y0081800D01*
X0276800Y0106800D01*
X0278060Y0107863D01*
X0279300Y0106800D01*
X0284300Y0101800D01*
X0304300Y0101800D01*
X0304300Y0106800D01*
X0305146Y0106800D01*
X0304300Y0111800D02*
X0299300Y0106800D01*
X0298454Y0106800D01*
X0286800Y0106800D01*
X0285540Y0107863D01*
X0281800Y0116131D02*
X0281800Y0116800D01*
X0298454Y0116800D01*
X0304300Y0116800D02*
X0305146Y0116800D01*
X0304300Y0116800D02*
X0291800Y0129300D01*
X0291800Y0131800D01*
X0281800Y0131800D02*
X0281800Y0126800D01*
X0269300Y0126800D01*
X0259300Y0116800D01*
X0258454Y0116800D01*
X0259300Y0116800D02*
X0259300Y0111800D01*
X0264300Y0106800D01*
X0265146Y0106800D01*
X0264300Y0106800D02*
X0264300Y0101800D01*
X0251800Y0089300D01*
X0250898Y0089001D01*
X0265146Y0116800D02*
X0281800Y0116800D01*
X0304300Y0111800D02*
X0309300Y0111800D01*
X0309300Y0081800D01*
X0275550Y0048050D01*
X0266800Y0056800D01*
X0261800Y0056800D01*
X0275550Y0048050D02*
X0254300Y0026800D01*
X0254300Y0021800D01*
X0249300Y0016800D01*
X0249300Y0011800D01*
X0246800Y0009300D01*
X0139300Y0009300D01*
X0139300Y0024300D01*
X0149300Y0024300D02*
X0159300Y0024300D01*
X0159300Y0014300D01*
X0154300Y0014300D01*
X0159300Y0014300D02*
X0164300Y0014300D01*
X0119300Y0024300D02*
X0109300Y0024300D01*
X0109300Y0014300D01*
X0104300Y0014300D01*
X0109300Y0014300D02*
X0114300Y0014300D01*
X0091800Y0106800D02*
X0093060Y0107863D01*
X0096800Y0116131D02*
X0096800Y0116800D01*
X0106800Y0126800D01*
X0106800Y0131800D01*
X0096800Y0131800D02*
X0096800Y0126800D01*
X0084300Y0126800D01*
X0074300Y0116800D01*
X0073454Y0116800D01*
X0080146Y0116800D02*
X0096800Y0116800D01*
X0069300Y0106800D02*
X0060146Y0106800D01*
X0059300Y0106800D01*
X0059300Y0111800D01*
X0039300Y0111800D01*
X0036800Y0109300D01*
X0034300Y0109300D01*
X0033060Y0107863D01*
X0006800Y0121800D02*
X0026800Y0141800D01*
X0121800Y0141800D01*
X0141800Y0121800D01*
X0154300Y0121800D01*
X0164300Y0121800D01*
X0199300Y0109300D02*
X0199300Y0106800D01*
X0198454Y0106800D01*
M02*
