G75*
%MOIN*%
%OFA0B0*%
%FSLAX25Y25*%
%IPPOS*%
%LPD*%
%AMOC8*
5,1,8,0,0,1.08239X$1,22.5*
%
%ADD10C,0.00000*%
%ADD11C,0.00300*%
%ADD12C,0.01600*%
%ADD13C,0.00400*%
%ADD14C,0.00900*%
%ADD15R,0.02500X0.02500*%
%ADD16R,0.25000X0.25000*%
%ADD17C,0.00800*%
%ADD18R,0.01800X0.03000*%
%ADD19C,0.02200*%
%ADD20C,0.00100*%
%ADD21C,0.01000*%
%ADD22C,0.00500*%
%ADD23C,0.00200*%
D10*
X0020501Y0029300D02*
X0020503Y0029458D01*
X0020509Y0029616D01*
X0020519Y0029774D01*
X0020533Y0029932D01*
X0020551Y0030089D01*
X0020572Y0030246D01*
X0020598Y0030402D01*
X0020628Y0030558D01*
X0020661Y0030713D01*
X0020699Y0030866D01*
X0020740Y0031019D01*
X0020785Y0031171D01*
X0020834Y0031322D01*
X0020887Y0031471D01*
X0020943Y0031619D01*
X0021003Y0031765D01*
X0021067Y0031910D01*
X0021135Y0032053D01*
X0021206Y0032195D01*
X0021280Y0032335D01*
X0021358Y0032472D01*
X0021440Y0032608D01*
X0021524Y0032742D01*
X0021613Y0032873D01*
X0021704Y0033002D01*
X0021799Y0033129D01*
X0021896Y0033254D01*
X0021997Y0033376D01*
X0022101Y0033495D01*
X0022208Y0033612D01*
X0022318Y0033726D01*
X0022431Y0033837D01*
X0022546Y0033946D01*
X0022664Y0034051D01*
X0022785Y0034153D01*
X0022908Y0034253D01*
X0023034Y0034349D01*
X0023162Y0034442D01*
X0023292Y0034532D01*
X0023425Y0034618D01*
X0023560Y0034702D01*
X0023696Y0034781D01*
X0023835Y0034858D01*
X0023976Y0034930D01*
X0024118Y0035000D01*
X0024262Y0035065D01*
X0024408Y0035127D01*
X0024555Y0035185D01*
X0024704Y0035240D01*
X0024854Y0035291D01*
X0025005Y0035338D01*
X0025157Y0035381D01*
X0025310Y0035420D01*
X0025465Y0035456D01*
X0025620Y0035487D01*
X0025776Y0035515D01*
X0025932Y0035539D01*
X0026089Y0035559D01*
X0026247Y0035575D01*
X0026404Y0035587D01*
X0026563Y0035595D01*
X0026721Y0035599D01*
X0026879Y0035599D01*
X0027037Y0035595D01*
X0027196Y0035587D01*
X0027353Y0035575D01*
X0027511Y0035559D01*
X0027668Y0035539D01*
X0027824Y0035515D01*
X0027980Y0035487D01*
X0028135Y0035456D01*
X0028290Y0035420D01*
X0028443Y0035381D01*
X0028595Y0035338D01*
X0028746Y0035291D01*
X0028896Y0035240D01*
X0029045Y0035185D01*
X0029192Y0035127D01*
X0029338Y0035065D01*
X0029482Y0035000D01*
X0029624Y0034930D01*
X0029765Y0034858D01*
X0029904Y0034781D01*
X0030040Y0034702D01*
X0030175Y0034618D01*
X0030308Y0034532D01*
X0030438Y0034442D01*
X0030566Y0034349D01*
X0030692Y0034253D01*
X0030815Y0034153D01*
X0030936Y0034051D01*
X0031054Y0033946D01*
X0031169Y0033837D01*
X0031282Y0033726D01*
X0031392Y0033612D01*
X0031499Y0033495D01*
X0031603Y0033376D01*
X0031704Y0033254D01*
X0031801Y0033129D01*
X0031896Y0033002D01*
X0031987Y0032873D01*
X0032076Y0032742D01*
X0032160Y0032608D01*
X0032242Y0032472D01*
X0032320Y0032335D01*
X0032394Y0032195D01*
X0032465Y0032053D01*
X0032533Y0031910D01*
X0032597Y0031765D01*
X0032657Y0031619D01*
X0032713Y0031471D01*
X0032766Y0031322D01*
X0032815Y0031171D01*
X0032860Y0031019D01*
X0032901Y0030866D01*
X0032939Y0030713D01*
X0032972Y0030558D01*
X0033002Y0030402D01*
X0033028Y0030246D01*
X0033049Y0030089D01*
X0033067Y0029932D01*
X0033081Y0029774D01*
X0033091Y0029616D01*
X0033097Y0029458D01*
X0033099Y0029300D01*
X0033097Y0029142D01*
X0033091Y0028984D01*
X0033081Y0028826D01*
X0033067Y0028668D01*
X0033049Y0028511D01*
X0033028Y0028354D01*
X0033002Y0028198D01*
X0032972Y0028042D01*
X0032939Y0027887D01*
X0032901Y0027734D01*
X0032860Y0027581D01*
X0032815Y0027429D01*
X0032766Y0027278D01*
X0032713Y0027129D01*
X0032657Y0026981D01*
X0032597Y0026835D01*
X0032533Y0026690D01*
X0032465Y0026547D01*
X0032394Y0026405D01*
X0032320Y0026265D01*
X0032242Y0026128D01*
X0032160Y0025992D01*
X0032076Y0025858D01*
X0031987Y0025727D01*
X0031896Y0025598D01*
X0031801Y0025471D01*
X0031704Y0025346D01*
X0031603Y0025224D01*
X0031499Y0025105D01*
X0031392Y0024988D01*
X0031282Y0024874D01*
X0031169Y0024763D01*
X0031054Y0024654D01*
X0030936Y0024549D01*
X0030815Y0024447D01*
X0030692Y0024347D01*
X0030566Y0024251D01*
X0030438Y0024158D01*
X0030308Y0024068D01*
X0030175Y0023982D01*
X0030040Y0023898D01*
X0029904Y0023819D01*
X0029765Y0023742D01*
X0029624Y0023670D01*
X0029482Y0023600D01*
X0029338Y0023535D01*
X0029192Y0023473D01*
X0029045Y0023415D01*
X0028896Y0023360D01*
X0028746Y0023309D01*
X0028595Y0023262D01*
X0028443Y0023219D01*
X0028290Y0023180D01*
X0028135Y0023144D01*
X0027980Y0023113D01*
X0027824Y0023085D01*
X0027668Y0023061D01*
X0027511Y0023041D01*
X0027353Y0023025D01*
X0027196Y0023013D01*
X0027037Y0023005D01*
X0026879Y0023001D01*
X0026721Y0023001D01*
X0026563Y0023005D01*
X0026404Y0023013D01*
X0026247Y0023025D01*
X0026089Y0023041D01*
X0025932Y0023061D01*
X0025776Y0023085D01*
X0025620Y0023113D01*
X0025465Y0023144D01*
X0025310Y0023180D01*
X0025157Y0023219D01*
X0025005Y0023262D01*
X0024854Y0023309D01*
X0024704Y0023360D01*
X0024555Y0023415D01*
X0024408Y0023473D01*
X0024262Y0023535D01*
X0024118Y0023600D01*
X0023976Y0023670D01*
X0023835Y0023742D01*
X0023696Y0023819D01*
X0023560Y0023898D01*
X0023425Y0023982D01*
X0023292Y0024068D01*
X0023162Y0024158D01*
X0023034Y0024251D01*
X0022908Y0024347D01*
X0022785Y0024447D01*
X0022664Y0024549D01*
X0022546Y0024654D01*
X0022431Y0024763D01*
X0022318Y0024874D01*
X0022208Y0024988D01*
X0022101Y0025105D01*
X0021997Y0025224D01*
X0021896Y0025346D01*
X0021799Y0025471D01*
X0021704Y0025598D01*
X0021613Y0025727D01*
X0021524Y0025858D01*
X0021440Y0025992D01*
X0021358Y0026128D01*
X0021280Y0026265D01*
X0021206Y0026405D01*
X0021135Y0026547D01*
X0021067Y0026690D01*
X0021003Y0026835D01*
X0020943Y0026981D01*
X0020887Y0027129D01*
X0020834Y0027278D01*
X0020785Y0027429D01*
X0020740Y0027581D01*
X0020699Y0027734D01*
X0020661Y0027887D01*
X0020628Y0028042D01*
X0020598Y0028198D01*
X0020572Y0028354D01*
X0020551Y0028511D01*
X0020533Y0028668D01*
X0020519Y0028826D01*
X0020509Y0028984D01*
X0020503Y0029142D01*
X0020501Y0029300D01*
X0280501Y0029300D02*
X0280503Y0029458D01*
X0280509Y0029616D01*
X0280519Y0029774D01*
X0280533Y0029932D01*
X0280551Y0030089D01*
X0280572Y0030246D01*
X0280598Y0030402D01*
X0280628Y0030558D01*
X0280661Y0030713D01*
X0280699Y0030866D01*
X0280740Y0031019D01*
X0280785Y0031171D01*
X0280834Y0031322D01*
X0280887Y0031471D01*
X0280943Y0031619D01*
X0281003Y0031765D01*
X0281067Y0031910D01*
X0281135Y0032053D01*
X0281206Y0032195D01*
X0281280Y0032335D01*
X0281358Y0032472D01*
X0281440Y0032608D01*
X0281524Y0032742D01*
X0281613Y0032873D01*
X0281704Y0033002D01*
X0281799Y0033129D01*
X0281896Y0033254D01*
X0281997Y0033376D01*
X0282101Y0033495D01*
X0282208Y0033612D01*
X0282318Y0033726D01*
X0282431Y0033837D01*
X0282546Y0033946D01*
X0282664Y0034051D01*
X0282785Y0034153D01*
X0282908Y0034253D01*
X0283034Y0034349D01*
X0283162Y0034442D01*
X0283292Y0034532D01*
X0283425Y0034618D01*
X0283560Y0034702D01*
X0283696Y0034781D01*
X0283835Y0034858D01*
X0283976Y0034930D01*
X0284118Y0035000D01*
X0284262Y0035065D01*
X0284408Y0035127D01*
X0284555Y0035185D01*
X0284704Y0035240D01*
X0284854Y0035291D01*
X0285005Y0035338D01*
X0285157Y0035381D01*
X0285310Y0035420D01*
X0285465Y0035456D01*
X0285620Y0035487D01*
X0285776Y0035515D01*
X0285932Y0035539D01*
X0286089Y0035559D01*
X0286247Y0035575D01*
X0286404Y0035587D01*
X0286563Y0035595D01*
X0286721Y0035599D01*
X0286879Y0035599D01*
X0287037Y0035595D01*
X0287196Y0035587D01*
X0287353Y0035575D01*
X0287511Y0035559D01*
X0287668Y0035539D01*
X0287824Y0035515D01*
X0287980Y0035487D01*
X0288135Y0035456D01*
X0288290Y0035420D01*
X0288443Y0035381D01*
X0288595Y0035338D01*
X0288746Y0035291D01*
X0288896Y0035240D01*
X0289045Y0035185D01*
X0289192Y0035127D01*
X0289338Y0035065D01*
X0289482Y0035000D01*
X0289624Y0034930D01*
X0289765Y0034858D01*
X0289904Y0034781D01*
X0290040Y0034702D01*
X0290175Y0034618D01*
X0290308Y0034532D01*
X0290438Y0034442D01*
X0290566Y0034349D01*
X0290692Y0034253D01*
X0290815Y0034153D01*
X0290936Y0034051D01*
X0291054Y0033946D01*
X0291169Y0033837D01*
X0291282Y0033726D01*
X0291392Y0033612D01*
X0291499Y0033495D01*
X0291603Y0033376D01*
X0291704Y0033254D01*
X0291801Y0033129D01*
X0291896Y0033002D01*
X0291987Y0032873D01*
X0292076Y0032742D01*
X0292160Y0032608D01*
X0292242Y0032472D01*
X0292320Y0032335D01*
X0292394Y0032195D01*
X0292465Y0032053D01*
X0292533Y0031910D01*
X0292597Y0031765D01*
X0292657Y0031619D01*
X0292713Y0031471D01*
X0292766Y0031322D01*
X0292815Y0031171D01*
X0292860Y0031019D01*
X0292901Y0030866D01*
X0292939Y0030713D01*
X0292972Y0030558D01*
X0293002Y0030402D01*
X0293028Y0030246D01*
X0293049Y0030089D01*
X0293067Y0029932D01*
X0293081Y0029774D01*
X0293091Y0029616D01*
X0293097Y0029458D01*
X0293099Y0029300D01*
X0293097Y0029142D01*
X0293091Y0028984D01*
X0293081Y0028826D01*
X0293067Y0028668D01*
X0293049Y0028511D01*
X0293028Y0028354D01*
X0293002Y0028198D01*
X0292972Y0028042D01*
X0292939Y0027887D01*
X0292901Y0027734D01*
X0292860Y0027581D01*
X0292815Y0027429D01*
X0292766Y0027278D01*
X0292713Y0027129D01*
X0292657Y0026981D01*
X0292597Y0026835D01*
X0292533Y0026690D01*
X0292465Y0026547D01*
X0292394Y0026405D01*
X0292320Y0026265D01*
X0292242Y0026128D01*
X0292160Y0025992D01*
X0292076Y0025858D01*
X0291987Y0025727D01*
X0291896Y0025598D01*
X0291801Y0025471D01*
X0291704Y0025346D01*
X0291603Y0025224D01*
X0291499Y0025105D01*
X0291392Y0024988D01*
X0291282Y0024874D01*
X0291169Y0024763D01*
X0291054Y0024654D01*
X0290936Y0024549D01*
X0290815Y0024447D01*
X0290692Y0024347D01*
X0290566Y0024251D01*
X0290438Y0024158D01*
X0290308Y0024068D01*
X0290175Y0023982D01*
X0290040Y0023898D01*
X0289904Y0023819D01*
X0289765Y0023742D01*
X0289624Y0023670D01*
X0289482Y0023600D01*
X0289338Y0023535D01*
X0289192Y0023473D01*
X0289045Y0023415D01*
X0288896Y0023360D01*
X0288746Y0023309D01*
X0288595Y0023262D01*
X0288443Y0023219D01*
X0288290Y0023180D01*
X0288135Y0023144D01*
X0287980Y0023113D01*
X0287824Y0023085D01*
X0287668Y0023061D01*
X0287511Y0023041D01*
X0287353Y0023025D01*
X0287196Y0023013D01*
X0287037Y0023005D01*
X0286879Y0023001D01*
X0286721Y0023001D01*
X0286563Y0023005D01*
X0286404Y0023013D01*
X0286247Y0023025D01*
X0286089Y0023041D01*
X0285932Y0023061D01*
X0285776Y0023085D01*
X0285620Y0023113D01*
X0285465Y0023144D01*
X0285310Y0023180D01*
X0285157Y0023219D01*
X0285005Y0023262D01*
X0284854Y0023309D01*
X0284704Y0023360D01*
X0284555Y0023415D01*
X0284408Y0023473D01*
X0284262Y0023535D01*
X0284118Y0023600D01*
X0283976Y0023670D01*
X0283835Y0023742D01*
X0283696Y0023819D01*
X0283560Y0023898D01*
X0283425Y0023982D01*
X0283292Y0024068D01*
X0283162Y0024158D01*
X0283034Y0024251D01*
X0282908Y0024347D01*
X0282785Y0024447D01*
X0282664Y0024549D01*
X0282546Y0024654D01*
X0282431Y0024763D01*
X0282318Y0024874D01*
X0282208Y0024988D01*
X0282101Y0025105D01*
X0281997Y0025224D01*
X0281896Y0025346D01*
X0281799Y0025471D01*
X0281704Y0025598D01*
X0281613Y0025727D01*
X0281524Y0025858D01*
X0281440Y0025992D01*
X0281358Y0026128D01*
X0281280Y0026265D01*
X0281206Y0026405D01*
X0281135Y0026547D01*
X0281067Y0026690D01*
X0281003Y0026835D01*
X0280943Y0026981D01*
X0280887Y0027129D01*
X0280834Y0027278D01*
X0280785Y0027429D01*
X0280740Y0027581D01*
X0280699Y0027734D01*
X0280661Y0027887D01*
X0280628Y0028042D01*
X0280598Y0028198D01*
X0280572Y0028354D01*
X0280551Y0028511D01*
X0280533Y0028668D01*
X0280519Y0028826D01*
X0280509Y0028984D01*
X0280503Y0029142D01*
X0280501Y0029300D01*
D11*
X0227285Y0073750D02*
X0224816Y0073750D01*
X0223602Y0073750D02*
X0222368Y0074984D01*
X0222985Y0074984D02*
X0221133Y0074984D01*
X0219919Y0074984D02*
X0218684Y0073750D01*
X0217450Y0074984D01*
X0217450Y0077453D01*
X0219919Y0077453D02*
X0219919Y0074984D01*
X0221133Y0073750D02*
X0221133Y0077453D01*
X0222985Y0077453D01*
X0223602Y0076836D01*
X0223602Y0075602D01*
X0222985Y0074984D01*
X0224816Y0076219D02*
X0226051Y0077453D01*
X0226051Y0073750D01*
X0200218Y0065950D02*
X0197749Y0065950D01*
X0198984Y0065950D02*
X0198984Y0069653D01*
X0197749Y0068419D01*
X0196535Y0069036D02*
X0195918Y0069653D01*
X0194066Y0069653D01*
X0194066Y0065950D01*
X0195918Y0065950D01*
X0196535Y0066567D01*
X0196535Y0069036D01*
X0192852Y0069653D02*
X0190383Y0069653D01*
X0190383Y0065950D01*
X0192852Y0065950D01*
X0191618Y0067802D02*
X0190383Y0067802D01*
X0189169Y0065950D02*
X0186700Y0065950D01*
X0186700Y0069653D01*
X0175544Y0074950D02*
X0174310Y0074950D01*
X0173692Y0075567D01*
X0173692Y0076802D01*
X0174310Y0077419D01*
X0175544Y0077419D01*
X0176161Y0076802D01*
X0176161Y0076184D01*
X0173692Y0076184D01*
X0172478Y0074950D02*
X0170627Y0074950D01*
X0170009Y0075567D01*
X0170009Y0076802D01*
X0170627Y0077419D01*
X0172478Y0077419D01*
X0168795Y0076802D02*
X0168795Y0074950D01*
X0166943Y0074950D01*
X0166326Y0075567D01*
X0166943Y0076184D01*
X0168795Y0076184D01*
X0168795Y0076802D02*
X0168178Y0077419D01*
X0166943Y0077419D01*
X0165105Y0076802D02*
X0163871Y0076802D01*
X0162653Y0077419D02*
X0162036Y0077419D01*
X0160801Y0076184D01*
X0159587Y0076184D02*
X0157118Y0076184D01*
X0157118Y0075567D02*
X0157118Y0076802D01*
X0157736Y0077419D01*
X0158970Y0077419D01*
X0159587Y0076802D01*
X0159587Y0076184D01*
X0158970Y0074950D02*
X0157736Y0074950D01*
X0157118Y0075567D01*
X0155897Y0074950D02*
X0155280Y0075567D01*
X0155280Y0078036D01*
X0154663Y0077419D02*
X0155897Y0077419D01*
X0153449Y0076802D02*
X0153449Y0074950D01*
X0153449Y0076802D02*
X0152831Y0077419D01*
X0150980Y0077419D01*
X0150980Y0074950D01*
X0149759Y0074950D02*
X0148524Y0074950D01*
X0149142Y0074950D02*
X0149142Y0078653D01*
X0149759Y0078653D02*
X0148524Y0078653D01*
X0154356Y0080950D02*
X0154356Y0084653D01*
X0156208Y0084653D01*
X0156825Y0084036D01*
X0156825Y0082802D01*
X0156208Y0082184D01*
X0154356Y0082184D01*
X0155590Y0082184D02*
X0156825Y0080950D01*
X0158039Y0081567D02*
X0158039Y0082802D01*
X0158656Y0083419D01*
X0159891Y0083419D01*
X0160508Y0082802D01*
X0160508Y0081567D01*
X0159891Y0080950D01*
X0158656Y0080950D01*
X0158039Y0081567D01*
X0161722Y0080950D02*
X0163574Y0080950D01*
X0164191Y0081567D01*
X0164191Y0082802D01*
X0163574Y0083419D01*
X0161722Y0083419D01*
X0161722Y0084653D02*
X0161722Y0080950D01*
X0165405Y0081567D02*
X0165405Y0082802D01*
X0166023Y0083419D01*
X0167257Y0083419D01*
X0167874Y0082802D01*
X0167874Y0081567D01*
X0167257Y0080950D01*
X0166023Y0080950D01*
X0165405Y0081567D01*
X0165105Y0078653D02*
X0164488Y0078036D01*
X0164488Y0074950D01*
X0160801Y0074950D02*
X0160801Y0077419D01*
X0155901Y0072653D02*
X0154049Y0072653D01*
X0154049Y0068950D01*
X0155901Y0068950D01*
X0156518Y0069567D01*
X0156518Y0070184D01*
X0155901Y0070802D01*
X0154049Y0070802D01*
X0155901Y0070802D02*
X0156518Y0071419D01*
X0156518Y0072036D01*
X0155901Y0072653D01*
X0157732Y0070802D02*
X0157732Y0069567D01*
X0158349Y0068950D01*
X0159584Y0068950D01*
X0160201Y0069567D01*
X0160201Y0070802D01*
X0159584Y0071419D01*
X0158349Y0071419D01*
X0157732Y0070802D01*
X0161415Y0069567D02*
X0162033Y0070184D01*
X0163884Y0070184D01*
X0163884Y0070802D02*
X0163884Y0068950D01*
X0162033Y0068950D01*
X0161415Y0069567D01*
X0162033Y0071419D02*
X0163267Y0071419D01*
X0163884Y0070802D01*
X0165098Y0071419D02*
X0165098Y0068950D01*
X0165098Y0070184D02*
X0166333Y0071419D01*
X0166950Y0071419D01*
X0168168Y0070802D02*
X0168785Y0071419D01*
X0170637Y0071419D01*
X0170637Y0072653D02*
X0170637Y0068950D01*
X0168785Y0068950D01*
X0168168Y0069567D01*
X0168168Y0070802D01*
X0170323Y0080950D02*
X0169706Y0081567D01*
X0169706Y0084036D01*
X0169089Y0083419D02*
X0170323Y0083419D01*
X0169712Y0086950D02*
X0167861Y0086950D01*
X0167861Y0090653D01*
X0167861Y0089419D02*
X0169712Y0089419D01*
X0170330Y0088802D01*
X0170330Y0087567D01*
X0169712Y0086950D01*
X0171544Y0086950D02*
X0172778Y0086950D01*
X0172161Y0086950D02*
X0172161Y0089419D01*
X0171544Y0089419D01*
X0172161Y0090653D02*
X0172161Y0091270D01*
X0173999Y0089419D02*
X0175234Y0089419D01*
X0174617Y0090036D02*
X0174617Y0087567D01*
X0175234Y0086950D01*
X0166636Y0086950D02*
X0166019Y0086950D01*
X0166019Y0087567D01*
X0166636Y0087567D01*
X0166636Y0086950D01*
X0166636Y0088802D02*
X0166019Y0088802D01*
X0166019Y0089419D01*
X0166636Y0089419D01*
X0166636Y0088802D01*
X0164805Y0088802D02*
X0164188Y0089419D01*
X0162953Y0089419D01*
X0162336Y0088802D01*
X0162336Y0087567D01*
X0162953Y0086950D01*
X0164188Y0086950D01*
X0164805Y0087567D01*
X0164805Y0088802D01*
X0161118Y0089419D02*
X0160501Y0089419D01*
X0159267Y0088184D01*
X0159267Y0086950D02*
X0159267Y0089419D01*
X0158052Y0089419D02*
X0156201Y0089419D01*
X0155584Y0088802D01*
X0155584Y0087567D01*
X0156201Y0086950D01*
X0158052Y0086950D01*
X0154363Y0086950D02*
X0153128Y0086950D01*
X0153745Y0086950D02*
X0153745Y0089419D01*
X0153128Y0089419D01*
X0151914Y0088802D02*
X0151914Y0086950D01*
X0150680Y0086950D02*
X0150680Y0088802D01*
X0151297Y0089419D01*
X0151914Y0088802D01*
X0150680Y0088802D02*
X0150062Y0089419D01*
X0149445Y0089419D01*
X0149445Y0086950D01*
X0153745Y0090653D02*
X0153745Y0091270D01*
X0137943Y0098653D02*
X0135475Y0098653D01*
X0136709Y0098653D02*
X0136709Y0094950D01*
X0134260Y0095567D02*
X0133643Y0094950D01*
X0132409Y0094950D01*
X0131792Y0095567D01*
X0131792Y0098036D01*
X0132409Y0098653D01*
X0133643Y0098653D01*
X0134260Y0098036D01*
X0134260Y0095567D01*
X0130577Y0095567D02*
X0129960Y0094950D01*
X0128108Y0094950D01*
X0128108Y0098653D01*
X0129960Y0098653D01*
X0130577Y0098036D01*
X0130577Y0097419D01*
X0129960Y0096802D01*
X0128108Y0096802D01*
X0126894Y0095567D02*
X0126894Y0098036D01*
X0126277Y0098653D01*
X0125042Y0098653D01*
X0124425Y0098036D01*
X0124425Y0095567D01*
X0125042Y0094950D01*
X0126277Y0094950D01*
X0126894Y0095567D01*
X0129960Y0096802D02*
X0130577Y0096184D01*
X0130577Y0095567D01*
X0123211Y0094950D02*
X0121977Y0096184D01*
X0122594Y0096184D02*
X0120742Y0096184D01*
X0120742Y0094950D02*
X0120742Y0098653D01*
X0122594Y0098653D01*
X0123211Y0098036D01*
X0123211Y0096802D01*
X0122594Y0096184D01*
X0099852Y0102302D02*
X0097383Y0102302D01*
X0099235Y0104153D01*
X0099235Y0100450D01*
X0096169Y0100450D02*
X0094934Y0101684D01*
X0094317Y0100450D02*
X0093700Y0101067D01*
X0093700Y0103536D01*
X0094317Y0104153D01*
X0095552Y0104153D01*
X0096169Y0103536D01*
X0096169Y0101067D01*
X0095552Y0100450D01*
X0094317Y0100450D01*
X0084522Y0111450D02*
X0083421Y0112551D01*
X0083054Y0112184D02*
X0084522Y0113652D01*
X0083054Y0113652D02*
X0083054Y0111450D01*
X0082220Y0111817D02*
X0081853Y0111450D01*
X0081119Y0111450D01*
X0080752Y0111817D01*
X0082220Y0113285D01*
X0082220Y0111817D01*
X0082220Y0113285D02*
X0081853Y0113652D01*
X0081119Y0113652D01*
X0080752Y0113285D01*
X0080752Y0111817D01*
X0079918Y0111450D02*
X0078450Y0111450D01*
X0079184Y0111450D02*
X0079184Y0113652D01*
X0078450Y0112918D01*
X0076022Y0112918D02*
X0074554Y0111450D01*
X0076022Y0111450D01*
X0076022Y0112918D02*
X0076022Y0113285D01*
X0075655Y0113652D01*
X0074921Y0113652D01*
X0074554Y0113285D01*
X0072986Y0113652D02*
X0072986Y0111450D01*
X0072252Y0111450D02*
X0073720Y0111450D01*
X0072252Y0112918D02*
X0072986Y0113652D01*
X0071418Y0113285D02*
X0071418Y0112551D01*
X0071051Y0112184D01*
X0069950Y0112184D01*
X0070684Y0112184D02*
X0071418Y0111450D01*
X0069950Y0111450D02*
X0069950Y0113652D01*
X0071051Y0113652D01*
X0071418Y0113285D01*
X0065324Y0113285D02*
X0065324Y0112551D01*
X0064957Y0112184D01*
X0063856Y0112184D01*
X0064590Y0112184D02*
X0065324Y0111450D01*
X0063856Y0111450D02*
X0063856Y0113652D01*
X0064957Y0113652D01*
X0065324Y0113285D01*
X0063022Y0113285D02*
X0061554Y0111817D01*
X0061921Y0111450D01*
X0062655Y0111450D01*
X0063022Y0111817D01*
X0063022Y0113285D01*
X0062655Y0113652D01*
X0061921Y0113652D01*
X0061554Y0113285D01*
X0061554Y0111817D01*
X0060720Y0111817D02*
X0060353Y0111450D01*
X0059619Y0111450D01*
X0059252Y0111817D01*
X0060720Y0113285D01*
X0060720Y0111817D01*
X0060720Y0113285D02*
X0060353Y0113652D01*
X0059619Y0113652D01*
X0059252Y0113285D01*
X0059252Y0111817D01*
X0058418Y0111450D02*
X0056950Y0111450D01*
X0057684Y0111450D02*
X0057684Y0113652D01*
X0056950Y0112918D01*
X0054720Y0112918D02*
X0054353Y0112551D01*
X0053619Y0112551D01*
X0053252Y0112918D01*
X0053252Y0113285D01*
X0053619Y0113652D01*
X0054353Y0113652D01*
X0054720Y0113285D01*
X0054720Y0112918D01*
X0054353Y0112551D02*
X0054720Y0112184D01*
X0054720Y0111817D01*
X0054353Y0111450D01*
X0053619Y0111450D01*
X0053252Y0111817D01*
X0053252Y0112184D01*
X0053619Y0112551D01*
X0052418Y0112551D02*
X0052418Y0113285D01*
X0052051Y0113652D01*
X0050950Y0113652D01*
X0050950Y0111450D01*
X0050950Y0112184D02*
X0052051Y0112184D01*
X0052418Y0112551D01*
X0051684Y0112184D02*
X0052418Y0111450D01*
X0052551Y0103152D02*
X0052918Y0102785D01*
X0052918Y0102051D01*
X0052551Y0101684D01*
X0051450Y0101684D01*
X0052184Y0101684D02*
X0052918Y0100950D01*
X0053752Y0101317D02*
X0054119Y0100950D01*
X0054853Y0100950D01*
X0055220Y0101317D01*
X0055220Y0101684D01*
X0054853Y0102051D01*
X0053752Y0102051D01*
X0053752Y0101317D01*
X0053752Y0102051D02*
X0054486Y0102785D01*
X0055220Y0103152D01*
X0052551Y0103152D02*
X0051450Y0103152D01*
X0051450Y0100950D01*
X0057950Y0100950D02*
X0059418Y0100950D01*
X0058684Y0100950D02*
X0058684Y0103152D01*
X0057950Y0102418D01*
X0060252Y0102785D02*
X0060619Y0103152D01*
X0061353Y0103152D01*
X0061720Y0102785D01*
X0060252Y0101317D01*
X0060619Y0100950D01*
X0061353Y0100950D01*
X0061720Y0101317D01*
X0061720Y0102785D01*
X0062554Y0103152D02*
X0062554Y0100950D01*
X0062554Y0101684D02*
X0064022Y0103152D01*
X0062921Y0102051D02*
X0064022Y0100950D01*
X0060252Y0101317D02*
X0060252Y0102785D01*
X0039852Y0102919D02*
X0039852Y0103536D01*
X0039235Y0104153D01*
X0038000Y0104153D01*
X0037383Y0103536D01*
X0036169Y0103536D02*
X0036169Y0101067D01*
X0035552Y0100450D01*
X0034317Y0100450D01*
X0033700Y0101067D01*
X0033700Y0103536D01*
X0034317Y0104153D01*
X0035552Y0104153D01*
X0036169Y0103536D01*
X0034934Y0101684D02*
X0036169Y0100450D01*
X0037383Y0100450D02*
X0039852Y0102919D01*
X0039852Y0100450D02*
X0037383Y0100450D01*
X0024022Y0100950D02*
X0022921Y0102051D01*
X0022554Y0101684D02*
X0024022Y0103152D01*
X0022554Y0103152D02*
X0022554Y0100950D01*
X0021720Y0101317D02*
X0021353Y0100950D01*
X0020619Y0100950D01*
X0020252Y0101317D01*
X0021720Y0102785D01*
X0021720Y0101317D01*
X0021720Y0102785D02*
X0021353Y0103152D01*
X0020619Y0103152D01*
X0020252Y0102785D01*
X0020252Y0101317D01*
X0019418Y0100950D02*
X0017950Y0100950D01*
X0018684Y0100950D02*
X0018684Y0103152D01*
X0017950Y0102418D01*
X0015220Y0102418D02*
X0015220Y0102785D01*
X0014853Y0103152D01*
X0014119Y0103152D01*
X0013752Y0102785D01*
X0012918Y0102785D02*
X0012918Y0102051D01*
X0012551Y0101684D01*
X0011450Y0101684D01*
X0012184Y0101684D02*
X0012918Y0100950D01*
X0013752Y0100950D02*
X0015220Y0102418D01*
X0015220Y0100950D02*
X0013752Y0100950D01*
X0012918Y0102785D02*
X0012551Y0103152D01*
X0011450Y0103152D01*
X0011450Y0100950D01*
X0011450Y0110950D02*
X0011450Y0113152D01*
X0012551Y0113152D01*
X0012918Y0112785D01*
X0012918Y0112051D01*
X0012551Y0111684D01*
X0011450Y0111684D01*
X0012184Y0111684D02*
X0012918Y0110950D01*
X0013752Y0110950D02*
X0013752Y0111317D01*
X0015220Y0112785D01*
X0015220Y0113152D01*
X0013752Y0113152D01*
X0017450Y0112418D02*
X0018184Y0113152D01*
X0018184Y0110950D01*
X0017450Y0110950D02*
X0018918Y0110950D01*
X0019752Y0111317D02*
X0021220Y0112785D01*
X0021220Y0111317D01*
X0020853Y0110950D01*
X0020119Y0110950D01*
X0019752Y0111317D01*
X0019752Y0112785D01*
X0020119Y0113152D01*
X0020853Y0113152D01*
X0021220Y0112785D01*
X0022054Y0113152D02*
X0022054Y0110950D01*
X0022054Y0111684D02*
X0023522Y0113152D01*
X0022421Y0112051D02*
X0023522Y0110950D01*
X0101450Y0068536D02*
X0101450Y0066067D01*
X0102067Y0065450D01*
X0103302Y0065450D01*
X0103919Y0066067D01*
X0105133Y0065450D02*
X0107602Y0067919D01*
X0107602Y0068536D01*
X0106985Y0069153D01*
X0105750Y0069153D01*
X0105133Y0068536D01*
X0103919Y0068536D02*
X0103302Y0069153D01*
X0102067Y0069153D01*
X0101450Y0068536D01*
X0105133Y0065450D02*
X0107602Y0065450D01*
X0120742Y0062653D02*
X0120742Y0058950D01*
X0120742Y0060802D02*
X0121977Y0060802D01*
X0123211Y0062653D02*
X0120742Y0062653D01*
X0124425Y0062653D02*
X0124425Y0058950D01*
X0126894Y0058950D01*
X0128108Y0058950D02*
X0130577Y0058950D01*
X0131792Y0058950D02*
X0134260Y0058950D01*
X0133026Y0060802D02*
X0131792Y0060802D01*
X0131792Y0062653D02*
X0131792Y0058950D01*
X0129343Y0060802D02*
X0128108Y0060802D01*
X0128108Y0062653D02*
X0128108Y0058950D01*
X0128108Y0062653D02*
X0130577Y0062653D01*
X0131792Y0062653D02*
X0134260Y0062653D01*
X0135475Y0062653D02*
X0137943Y0062653D01*
X0136709Y0062653D02*
X0136709Y0058950D01*
X0186950Y0090567D02*
X0187567Y0089950D01*
X0188802Y0089950D01*
X0189419Y0090567D01*
X0189419Y0091184D01*
X0188802Y0091802D01*
X0188184Y0091802D01*
X0188802Y0091802D02*
X0189419Y0092419D01*
X0189419Y0093036D01*
X0188802Y0093653D01*
X0187567Y0093653D01*
X0186950Y0093036D01*
X0190633Y0090567D02*
X0191250Y0090567D01*
X0191250Y0089950D01*
X0190633Y0089950D01*
X0190633Y0090567D01*
X0192475Y0090567D02*
X0193092Y0089950D01*
X0194326Y0089950D01*
X0194943Y0090567D01*
X0194943Y0091184D01*
X0194326Y0091802D01*
X0193709Y0091802D01*
X0194326Y0091802D02*
X0194943Y0092419D01*
X0194943Y0093036D01*
X0194326Y0093653D01*
X0193092Y0093653D01*
X0192475Y0093036D01*
X0196158Y0093653D02*
X0196158Y0091184D01*
X0197392Y0089950D01*
X0198627Y0091184D01*
X0198627Y0093653D01*
X0198486Y0101450D02*
X0198486Y0103652D01*
X0197752Y0102918D01*
X0196918Y0103285D02*
X0196918Y0102551D01*
X0196551Y0102184D01*
X0195450Y0102184D01*
X0196184Y0102184D02*
X0196918Y0101450D01*
X0197752Y0101450D02*
X0199220Y0101450D01*
X0201450Y0102551D02*
X0202551Y0103652D01*
X0202551Y0101450D01*
X0202918Y0102551D02*
X0201450Y0102551D01*
X0203752Y0101817D02*
X0205220Y0103285D01*
X0205220Y0103652D01*
X0203752Y0103652D01*
X0203752Y0101817D02*
X0203752Y0101450D01*
X0206054Y0101817D02*
X0207522Y0103285D01*
X0207522Y0101817D01*
X0207155Y0101450D01*
X0206421Y0101450D01*
X0206054Y0101817D01*
X0206054Y0103285D01*
X0206421Y0103652D01*
X0207155Y0103652D01*
X0207522Y0103285D01*
X0208356Y0103652D02*
X0209457Y0103652D01*
X0209824Y0103285D01*
X0209824Y0102551D01*
X0209457Y0102184D01*
X0208356Y0102184D01*
X0209090Y0102184D02*
X0209824Y0101450D01*
X0208356Y0101450D02*
X0208356Y0103652D01*
X0219200Y0103536D02*
X0219200Y0101067D01*
X0219817Y0100450D01*
X0221052Y0100450D01*
X0221669Y0101067D01*
X0221669Y0103536D01*
X0221052Y0104153D01*
X0219817Y0104153D01*
X0219200Y0103536D01*
X0220434Y0101684D02*
X0221669Y0100450D01*
X0222883Y0101067D02*
X0223500Y0100450D01*
X0224735Y0100450D01*
X0225352Y0101067D01*
X0225352Y0101684D01*
X0224735Y0102302D01*
X0224118Y0102302D01*
X0224735Y0102302D02*
X0225352Y0102919D01*
X0225352Y0103536D01*
X0224735Y0104153D01*
X0223500Y0104153D01*
X0222883Y0103536D01*
X0235950Y0103652D02*
X0235950Y0101450D01*
X0235950Y0102184D02*
X0237051Y0102184D01*
X0237418Y0102551D01*
X0237418Y0103285D01*
X0237051Y0103652D01*
X0235950Y0103652D01*
X0236684Y0102184D02*
X0237418Y0101450D01*
X0238252Y0101817D02*
X0238619Y0101450D01*
X0239353Y0101450D01*
X0239720Y0101817D01*
X0239720Y0103285D01*
X0239353Y0103652D01*
X0238619Y0103652D01*
X0238252Y0103285D01*
X0238252Y0102918D01*
X0238619Y0102551D01*
X0239720Y0102551D01*
X0242450Y0102918D02*
X0243184Y0103652D01*
X0243184Y0101450D01*
X0242450Y0101450D02*
X0243918Y0101450D01*
X0244752Y0101817D02*
X0246220Y0103285D01*
X0246220Y0101817D01*
X0245853Y0101450D01*
X0245119Y0101450D01*
X0244752Y0101817D01*
X0244752Y0103285D01*
X0245119Y0103652D01*
X0245853Y0103652D01*
X0246220Y0103285D01*
X0247054Y0103652D02*
X0247054Y0101450D01*
X0247054Y0102184D02*
X0248522Y0103652D01*
X0247421Y0102551D02*
X0248522Y0101450D01*
X0256450Y0101817D02*
X0256817Y0101450D01*
X0257551Y0101450D01*
X0257918Y0101817D01*
X0258752Y0101450D02*
X0260220Y0101450D01*
X0259486Y0101450D02*
X0259486Y0103652D01*
X0258752Y0102918D01*
X0257918Y0103285D02*
X0257551Y0103652D01*
X0256817Y0103652D01*
X0256450Y0103285D01*
X0256450Y0101817D01*
X0262450Y0102551D02*
X0263918Y0102551D01*
X0264752Y0101817D02*
X0264752Y0101450D01*
X0264752Y0101817D02*
X0266220Y0103285D01*
X0266220Y0103652D01*
X0264752Y0103652D01*
X0263551Y0103652D02*
X0262450Y0102551D01*
X0263551Y0101450D02*
X0263551Y0103652D01*
X0267054Y0103285D02*
X0267054Y0101817D01*
X0268522Y0103285D01*
X0268522Y0101817D01*
X0268155Y0101450D01*
X0267421Y0101450D01*
X0267054Y0101817D01*
X0267054Y0103285D02*
X0267421Y0103652D01*
X0268155Y0103652D01*
X0268522Y0103285D01*
X0269356Y0102918D02*
X0270457Y0102918D01*
X0270824Y0102551D01*
X0270824Y0101450D01*
X0271658Y0101450D02*
X0271658Y0103652D01*
X0273126Y0103652D01*
X0272392Y0102551D02*
X0271658Y0102551D01*
X0269356Y0102918D02*
X0269356Y0101450D01*
X0279200Y0101067D02*
X0279817Y0100450D01*
X0281052Y0100450D01*
X0281669Y0101067D01*
X0281669Y0103536D01*
X0281052Y0104153D01*
X0279817Y0104153D01*
X0279200Y0103536D01*
X0279200Y0101067D01*
X0280434Y0101684D02*
X0281669Y0100450D01*
X0282883Y0100450D02*
X0285352Y0100450D01*
X0284118Y0100450D02*
X0284118Y0104153D01*
X0282883Y0102919D01*
X0296450Y0103652D02*
X0296450Y0101450D01*
X0296450Y0102184D02*
X0297551Y0102184D01*
X0297918Y0102551D01*
X0297918Y0103285D01*
X0297551Y0103652D01*
X0296450Y0103652D01*
X0297184Y0102184D02*
X0297918Y0101450D01*
X0298752Y0101817D02*
X0299119Y0101450D01*
X0299853Y0101450D01*
X0300220Y0101817D01*
X0300220Y0102184D01*
X0299853Y0102551D01*
X0299486Y0102551D01*
X0299853Y0102551D02*
X0300220Y0102918D01*
X0300220Y0103285D01*
X0299853Y0103652D01*
X0299119Y0103652D01*
X0298752Y0103285D01*
X0302450Y0102918D02*
X0303184Y0103652D01*
X0303184Y0101450D01*
X0302450Y0101450D02*
X0303918Y0101450D01*
X0304752Y0101817D02*
X0306220Y0103285D01*
X0306220Y0101817D01*
X0305853Y0101450D01*
X0305119Y0101450D01*
X0304752Y0101817D01*
X0304752Y0103285D01*
X0305119Y0103652D01*
X0305853Y0103652D01*
X0306220Y0103285D01*
X0307054Y0103652D02*
X0307054Y0101450D01*
X0307054Y0102184D02*
X0308522Y0103652D01*
X0307421Y0102551D02*
X0308522Y0101450D01*
X0308155Y0111450D02*
X0307421Y0111450D01*
X0307054Y0111817D01*
X0308522Y0113285D01*
X0308522Y0111817D01*
X0308155Y0111450D01*
X0307054Y0111817D02*
X0307054Y0113285D01*
X0307421Y0113652D01*
X0308155Y0113652D01*
X0308522Y0113285D01*
X0309356Y0113652D02*
X0309356Y0111450D01*
X0309356Y0112184D02*
X0310457Y0112184D01*
X0310824Y0112551D01*
X0310824Y0113285D01*
X0310457Y0113652D01*
X0309356Y0113652D01*
X0310090Y0112184D02*
X0310824Y0111450D01*
X0306220Y0111817D02*
X0306220Y0113285D01*
X0304752Y0111817D01*
X0305119Y0111450D01*
X0305853Y0111450D01*
X0306220Y0111817D01*
X0306220Y0113285D02*
X0305853Y0113652D01*
X0305119Y0113652D01*
X0304752Y0113285D01*
X0304752Y0111817D01*
X0303918Y0111450D02*
X0302450Y0111450D01*
X0303184Y0111450D02*
X0303184Y0113652D01*
X0302450Y0112918D01*
X0300220Y0112551D02*
X0300220Y0111817D01*
X0299853Y0111450D01*
X0299119Y0111450D01*
X0298752Y0111817D01*
X0298752Y0112551D02*
X0299486Y0112918D01*
X0299853Y0112918D01*
X0300220Y0112551D01*
X0300220Y0113652D02*
X0298752Y0113652D01*
X0298752Y0112551D01*
X0297918Y0112551D02*
X0297918Y0113285D01*
X0297551Y0113652D01*
X0296450Y0113652D01*
X0296450Y0111450D01*
X0296450Y0112184D02*
X0297551Y0112184D01*
X0297918Y0112551D01*
X0297184Y0112184D02*
X0297918Y0111450D01*
X0268522Y0111450D02*
X0267421Y0112551D01*
X0267054Y0112184D02*
X0268522Y0113652D01*
X0267054Y0113652D02*
X0267054Y0111450D01*
X0266220Y0111817D02*
X0266220Y0113285D01*
X0264752Y0111817D01*
X0265119Y0111450D01*
X0265853Y0111450D01*
X0266220Y0111817D01*
X0266220Y0113285D02*
X0265853Y0113652D01*
X0265119Y0113652D01*
X0264752Y0113285D01*
X0264752Y0111817D01*
X0263918Y0111450D02*
X0262450Y0111450D01*
X0263184Y0111450D02*
X0263184Y0113652D01*
X0262450Y0112918D01*
X0260220Y0112551D02*
X0258752Y0112551D01*
X0259853Y0113652D01*
X0259853Y0111450D01*
X0257918Y0111450D02*
X0257184Y0112184D01*
X0257551Y0112184D02*
X0256450Y0112184D01*
X0256450Y0111450D02*
X0256450Y0113652D01*
X0257551Y0113652D01*
X0257918Y0113285D01*
X0257918Y0112551D01*
X0257551Y0112184D01*
X0209022Y0111450D02*
X0207921Y0112551D01*
X0207554Y0112184D02*
X0209022Y0113652D01*
X0207554Y0113652D02*
X0207554Y0111450D01*
X0206720Y0111817D02*
X0206720Y0113285D01*
X0205252Y0111817D01*
X0205619Y0111450D01*
X0206353Y0111450D01*
X0206720Y0111817D01*
X0206720Y0113285D02*
X0206353Y0113652D01*
X0205619Y0113652D01*
X0205252Y0113285D01*
X0205252Y0111817D01*
X0204418Y0111450D02*
X0202950Y0111450D01*
X0203684Y0111450D02*
X0203684Y0113652D01*
X0202950Y0112918D01*
X0201022Y0113285D02*
X0199554Y0111817D01*
X0199921Y0111450D01*
X0200655Y0111450D01*
X0201022Y0111817D01*
X0201022Y0113285D01*
X0200655Y0113652D01*
X0199921Y0113652D01*
X0199554Y0113285D01*
X0199554Y0111817D01*
X0198720Y0111450D02*
X0197252Y0111450D01*
X0197986Y0111450D02*
X0197986Y0113652D01*
X0197252Y0112918D01*
X0196418Y0113285D02*
X0196418Y0112551D01*
X0196051Y0112184D01*
X0194950Y0112184D01*
X0195684Y0112184D02*
X0196418Y0111450D01*
X0194950Y0111450D02*
X0194950Y0113652D01*
X0196051Y0113652D01*
X0196418Y0113285D01*
X0196551Y0103652D02*
X0195450Y0103652D01*
X0195450Y0101450D01*
X0196918Y0103285D02*
X0196551Y0103652D01*
X0124022Y0111450D02*
X0122921Y0112551D01*
X0122554Y0112184D02*
X0124022Y0113652D01*
X0122554Y0113652D02*
X0122554Y0111450D01*
X0121720Y0111817D02*
X0121353Y0111450D01*
X0120619Y0111450D01*
X0120252Y0111817D01*
X0121720Y0113285D01*
X0121720Y0111817D01*
X0121720Y0113285D02*
X0121353Y0113652D01*
X0120619Y0113652D01*
X0120252Y0113285D01*
X0120252Y0111817D01*
X0119418Y0111450D02*
X0117950Y0111450D01*
X0118684Y0111450D02*
X0118684Y0113652D01*
X0117950Y0112918D01*
X0115522Y0111450D02*
X0114054Y0111450D01*
X0114788Y0111450D02*
X0114788Y0113652D01*
X0114054Y0112918D01*
X0113220Y0111450D02*
X0111752Y0111450D01*
X0112486Y0111450D02*
X0112486Y0113652D01*
X0111752Y0112918D01*
X0110918Y0113285D02*
X0110918Y0112551D01*
X0110551Y0112184D01*
X0109450Y0112184D01*
X0110184Y0112184D02*
X0110918Y0111450D01*
X0109450Y0111450D02*
X0109450Y0113652D01*
X0110551Y0113652D01*
X0110918Y0113285D01*
X0030826Y0017153D02*
X0028975Y0017153D01*
X0028975Y0013450D01*
X0030826Y0013450D01*
X0031443Y0014067D01*
X0031443Y0016536D01*
X0030826Y0017153D01*
X0024077Y0015919D02*
X0022843Y0013450D01*
X0021608Y0015919D01*
X0020394Y0015302D02*
X0020394Y0014684D01*
X0017925Y0014684D01*
X0017925Y0014067D02*
X0017925Y0015302D01*
X0018542Y0015919D01*
X0019777Y0015919D01*
X0020394Y0015302D01*
X0019777Y0013450D02*
X0018542Y0013450D01*
X0017925Y0014067D01*
X0016711Y0013450D02*
X0015477Y0014684D01*
X0016094Y0014684D02*
X0014242Y0014684D01*
X0014242Y0013450D02*
X0014242Y0017153D01*
X0016094Y0017153D01*
X0016711Y0016536D01*
X0016711Y0015302D01*
X0016094Y0014684D01*
X0016711Y0011153D02*
X0014242Y0011153D01*
X0014242Y0009302D01*
X0015477Y0009919D01*
X0016094Y0009919D01*
X0016711Y0009302D01*
X0016711Y0008067D01*
X0016094Y0007450D01*
X0014859Y0007450D01*
X0014242Y0008067D01*
X0013028Y0008067D02*
X0012411Y0007450D01*
X0011176Y0007450D01*
X0010559Y0008067D01*
X0013028Y0010536D01*
X0013028Y0008067D01*
X0013028Y0010536D02*
X0012411Y0011153D01*
X0011176Y0011153D01*
X0010559Y0010536D01*
X0010559Y0008067D01*
X0017925Y0007450D02*
X0020394Y0011153D01*
X0021608Y0010536D02*
X0022226Y0011153D01*
X0023460Y0011153D01*
X0024077Y0010536D01*
X0024077Y0009919D01*
X0021608Y0007450D01*
X0024077Y0007450D01*
X0025292Y0008067D02*
X0027760Y0010536D01*
X0027760Y0008067D01*
X0027143Y0007450D01*
X0025909Y0007450D01*
X0025292Y0008067D01*
X0025292Y0010536D01*
X0025909Y0011153D01*
X0027143Y0011153D01*
X0027760Y0010536D01*
X0028975Y0009919D02*
X0030209Y0011153D01*
X0030209Y0007450D01*
X0028975Y0007450D02*
X0031443Y0007450D01*
X0032658Y0008067D02*
X0033275Y0007450D01*
X0034509Y0007450D01*
X0035127Y0008067D01*
X0035127Y0008684D01*
X0034509Y0009302D01*
X0032658Y0009302D01*
X0032658Y0008067D01*
X0032658Y0009302D02*
X0033892Y0010536D01*
X0035127Y0011153D01*
D12*
X0001800Y0001800D02*
X0001800Y0156800D01*
X0316800Y0156800D01*
X0316800Y0001800D01*
X0001800Y0001800D01*
D13*
X0080849Y0004500D02*
X0080849Y0009104D01*
X0082384Y0007569D01*
X0083919Y0009104D01*
X0083919Y0004500D01*
X0085453Y0004500D02*
X0086988Y0004500D01*
X0086221Y0004500D02*
X0086221Y0009104D01*
X0086988Y0009104D02*
X0085453Y0009104D01*
X0088523Y0008337D02*
X0088523Y0005267D01*
X0089290Y0004500D01*
X0090825Y0004500D01*
X0091592Y0005267D01*
X0093127Y0004500D02*
X0093127Y0009104D01*
X0095429Y0009104D01*
X0096196Y0008337D01*
X0096196Y0006802D01*
X0095429Y0006035D01*
X0093127Y0006035D01*
X0094661Y0006035D02*
X0096196Y0004500D01*
X0097730Y0005267D02*
X0098498Y0004500D01*
X0100032Y0004500D01*
X0100800Y0005267D01*
X0100800Y0008337D01*
X0100032Y0009104D01*
X0098498Y0009104D01*
X0097730Y0008337D01*
X0097730Y0005267D01*
X0102334Y0005267D02*
X0102334Y0004500D01*
X0103102Y0004500D01*
X0103102Y0005267D01*
X0102334Y0005267D01*
X0102334Y0006802D02*
X0102334Y0007569D01*
X0103102Y0007569D01*
X0103102Y0006802D01*
X0102334Y0006802D01*
X0104636Y0006802D02*
X0106938Y0006802D01*
X0107706Y0006035D01*
X0107706Y0005267D01*
X0106938Y0004500D01*
X0104636Y0004500D01*
X0104636Y0009104D01*
X0106938Y0009104D01*
X0107706Y0008337D01*
X0107706Y0007569D01*
X0106938Y0006802D01*
X0109240Y0009104D02*
X0110775Y0009104D01*
X0110008Y0009104D02*
X0110008Y0004500D01*
X0110775Y0004500D02*
X0109240Y0004500D01*
X0113844Y0004500D02*
X0113844Y0009104D01*
X0112310Y0009104D02*
X0115379Y0009104D01*
X0121517Y0009104D02*
X0121517Y0004500D01*
X0124587Y0004500D01*
X0126121Y0004500D02*
X0129191Y0004500D01*
X0130725Y0004500D02*
X0133027Y0004500D01*
X0133795Y0005267D01*
X0133795Y0008337D01*
X0133027Y0009104D01*
X0130725Y0009104D01*
X0130725Y0004500D01*
X0127656Y0006802D02*
X0126121Y0006802D01*
X0126121Y0009104D02*
X0126121Y0004500D01*
X0126121Y0009104D02*
X0129191Y0009104D01*
X0135329Y0008337D02*
X0135329Y0007569D01*
X0136097Y0006802D01*
X0137631Y0006802D01*
X0138398Y0006035D01*
X0138398Y0005267D01*
X0137631Y0004500D01*
X0136097Y0004500D01*
X0135329Y0005267D01*
X0135329Y0008337D02*
X0136097Y0009104D01*
X0137631Y0009104D01*
X0138398Y0008337D01*
X0144537Y0007569D02*
X0144537Y0004500D01*
X0144537Y0006802D02*
X0147606Y0006802D01*
X0147606Y0007569D02*
X0147606Y0004500D01*
X0149141Y0004500D02*
X0149141Y0009104D01*
X0152210Y0004500D01*
X0152210Y0009104D01*
X0153745Y0009104D02*
X0156047Y0009104D01*
X0156814Y0008337D01*
X0156814Y0005267D01*
X0156047Y0004500D01*
X0153745Y0004500D01*
X0153745Y0009104D01*
X0147606Y0007569D02*
X0146072Y0009104D01*
X0144537Y0007569D01*
X0162953Y0006802D02*
X0165255Y0006802D01*
X0166022Y0006035D01*
X0166022Y0005267D01*
X0165255Y0004500D01*
X0162953Y0004500D01*
X0162953Y0009104D01*
X0165255Y0009104D01*
X0166022Y0008337D01*
X0166022Y0007569D01*
X0165255Y0006802D01*
X0167557Y0005267D02*
X0168324Y0004500D01*
X0169859Y0004500D01*
X0170626Y0005267D01*
X0170626Y0009104D01*
X0172161Y0009104D02*
X0175230Y0009104D01*
X0176765Y0009104D02*
X0179834Y0009104D01*
X0178299Y0009104D02*
X0178299Y0004500D01*
X0181368Y0005267D02*
X0182136Y0004500D01*
X0183670Y0004500D01*
X0184438Y0005267D01*
X0184438Y0008337D01*
X0183670Y0009104D01*
X0182136Y0009104D01*
X0181368Y0008337D01*
X0181368Y0005267D01*
X0185972Y0004500D02*
X0185972Y0009104D01*
X0189042Y0004500D01*
X0189042Y0009104D01*
X0190576Y0008337D02*
X0190576Y0007569D01*
X0191344Y0006802D01*
X0192878Y0006802D01*
X0193646Y0006035D01*
X0193646Y0005267D01*
X0192878Y0004500D01*
X0191344Y0004500D01*
X0190576Y0005267D01*
X0190576Y0008337D02*
X0191344Y0009104D01*
X0192878Y0009104D01*
X0193646Y0008337D01*
X0199784Y0009104D02*
X0202853Y0009104D01*
X0201319Y0009104D02*
X0201319Y0004500D01*
X0204388Y0004500D02*
X0204388Y0009104D01*
X0204388Y0006802D02*
X0207457Y0006802D01*
X0207457Y0009104D02*
X0207457Y0004500D01*
X0208992Y0004500D02*
X0210527Y0004500D01*
X0209759Y0004500D02*
X0209759Y0009104D01*
X0208992Y0009104D02*
X0210527Y0009104D01*
X0212061Y0008337D02*
X0212061Y0007569D01*
X0212829Y0006802D01*
X0214363Y0006802D01*
X0215131Y0006035D01*
X0215131Y0005267D01*
X0214363Y0004500D01*
X0212829Y0004500D01*
X0212061Y0005267D01*
X0212061Y0008337D02*
X0212829Y0009104D01*
X0214363Y0009104D01*
X0215131Y0008337D01*
X0221269Y0008337D02*
X0221269Y0007569D01*
X0222036Y0006802D01*
X0223571Y0006802D01*
X0224338Y0006035D01*
X0224338Y0005267D01*
X0223571Y0004500D01*
X0222036Y0004500D01*
X0221269Y0005267D01*
X0225873Y0004500D02*
X0227408Y0004500D01*
X0226640Y0004500D02*
X0226640Y0009104D01*
X0225873Y0009104D02*
X0227408Y0009104D01*
X0228942Y0009104D02*
X0231244Y0009104D01*
X0232012Y0008337D01*
X0232012Y0005267D01*
X0231244Y0004500D01*
X0228942Y0004500D01*
X0228942Y0009104D01*
X0233546Y0009104D02*
X0233546Y0004500D01*
X0236616Y0004500D01*
X0235081Y0006802D02*
X0233546Y0006802D01*
X0233546Y0009104D02*
X0236616Y0009104D01*
X0224338Y0008337D02*
X0223571Y0009104D01*
X0222036Y0009104D01*
X0221269Y0008337D01*
X0173695Y0009104D02*
X0173695Y0004500D01*
X0167557Y0005267D02*
X0167557Y0009104D01*
X0219500Y0049500D02*
X0219500Y0054104D01*
X0221035Y0052569D01*
X0222569Y0054104D01*
X0222569Y0049500D01*
X0224104Y0049500D02*
X0225639Y0049500D01*
X0224871Y0049500D02*
X0224871Y0054104D01*
X0224104Y0054104D02*
X0225639Y0054104D01*
X0227173Y0053337D02*
X0227173Y0050267D01*
X0227941Y0049500D01*
X0229475Y0049500D01*
X0230242Y0050267D01*
X0231777Y0049500D02*
X0231777Y0054104D01*
X0234079Y0054104D01*
X0234846Y0053337D01*
X0234846Y0051802D01*
X0234079Y0051035D01*
X0231777Y0051035D01*
X0233312Y0051035D02*
X0234846Y0049500D01*
X0236381Y0050267D02*
X0237148Y0049500D01*
X0238683Y0049500D01*
X0239450Y0050267D01*
X0239450Y0053337D01*
X0238683Y0054104D01*
X0237148Y0054104D01*
X0236381Y0053337D01*
X0236381Y0050267D01*
X0240985Y0049500D02*
X0243287Y0049500D01*
X0244054Y0050267D01*
X0244054Y0051035D01*
X0243287Y0051802D01*
X0240985Y0051802D01*
X0240985Y0049500D02*
X0240985Y0054104D01*
X0243287Y0054104D01*
X0244054Y0053337D01*
X0244054Y0052569D01*
X0243287Y0051802D01*
X0245589Y0054104D02*
X0247124Y0054104D01*
X0246356Y0054104D02*
X0246356Y0049500D01*
X0245589Y0049500D02*
X0247124Y0049500D01*
X0250193Y0049500D02*
X0250193Y0054104D01*
X0251727Y0054104D02*
X0248658Y0054104D01*
X0230242Y0053337D02*
X0229475Y0054104D01*
X0227941Y0054104D01*
X0227173Y0053337D01*
X0272000Y0041319D02*
X0272000Y0038250D01*
X0272000Y0040552D02*
X0275069Y0040552D01*
X0275069Y0041319D02*
X0275069Y0038250D01*
X0275069Y0041319D02*
X0273535Y0042854D01*
X0272000Y0041319D01*
X0272000Y0020354D02*
X0274302Y0020354D01*
X0275069Y0019587D01*
X0275069Y0018819D01*
X0274302Y0018052D01*
X0272000Y0018052D01*
X0272000Y0015750D02*
X0272000Y0020354D01*
X0274302Y0018052D02*
X0275069Y0017285D01*
X0275069Y0016517D01*
X0274302Y0015750D01*
X0272000Y0015750D01*
X0176600Y0111094D02*
X0171996Y0111094D01*
X0171996Y0114163D01*
X0171996Y0115698D02*
X0176600Y0118767D01*
X0171996Y0118767D01*
X0173531Y0120302D02*
X0171996Y0121837D01*
X0173531Y0123371D01*
X0176600Y0123371D01*
X0174298Y0123371D02*
X0174298Y0120302D01*
X0173531Y0120302D02*
X0176600Y0120302D01*
X0176600Y0115698D02*
X0171996Y0115698D01*
X0176600Y0114163D02*
X0176600Y0111094D01*
X0174298Y0111094D02*
X0174298Y0112629D01*
X0146600Y0111094D02*
X0146600Y0114163D01*
X0146600Y0115698D02*
X0141996Y0115698D01*
X0146600Y0118767D01*
X0141996Y0118767D01*
X0141996Y0120302D02*
X0141996Y0122604D01*
X0142763Y0123371D01*
X0143531Y0123371D01*
X0144298Y0122604D01*
X0144298Y0120302D01*
X0146600Y0120302D02*
X0141996Y0120302D01*
X0146600Y0120302D02*
X0146600Y0122604D01*
X0145833Y0123371D01*
X0145065Y0123371D01*
X0144298Y0122604D01*
X0141996Y0114163D02*
X0141996Y0111094D01*
X0146600Y0111094D01*
X0144298Y0111094D02*
X0144298Y0112629D01*
X0118600Y0122881D02*
X0118600Y0125283D01*
X0118600Y0126564D02*
X0114997Y0126564D01*
X0114997Y0128966D01*
X0116798Y0127765D02*
X0116798Y0126564D01*
X0116798Y0130248D02*
X0116798Y0132650D01*
X0117399Y0133931D02*
X0117399Y0135732D01*
X0116798Y0136333D01*
X0115597Y0136333D01*
X0114997Y0135732D01*
X0114997Y0133931D01*
X0118600Y0133931D01*
X0117399Y0135132D02*
X0118600Y0136333D01*
X0118600Y0137614D02*
X0118600Y0138815D01*
X0118600Y0138214D02*
X0114997Y0138214D01*
X0114997Y0137614D02*
X0114997Y0138815D01*
X0115597Y0140069D02*
X0117999Y0140069D01*
X0118600Y0140670D01*
X0118600Y0141871D01*
X0117999Y0142471D01*
X0116798Y0142471D01*
X0116798Y0141270D01*
X0115597Y0140069D02*
X0114997Y0140670D01*
X0114997Y0141871D01*
X0115597Y0142471D01*
X0114997Y0143752D02*
X0118600Y0143752D01*
X0116798Y0143752D02*
X0116798Y0146154D01*
X0114997Y0146154D02*
X0118600Y0146154D01*
X0118600Y0148637D02*
X0114997Y0148637D01*
X0114997Y0147436D02*
X0114997Y0149838D01*
X0109100Y0145802D02*
X0104496Y0145802D01*
X0103700Y0147137D02*
X0103700Y0139463D01*
X0104496Y0139663D02*
X0104496Y0141198D01*
X0104496Y0140431D02*
X0109100Y0140431D01*
X0109100Y0141198D02*
X0109100Y0139663D01*
X0109100Y0142733D02*
X0104496Y0142733D01*
X0109100Y0145802D01*
X0099100Y0145035D02*
X0097565Y0146569D01*
X0094496Y0146569D01*
X0089100Y0145035D02*
X0087565Y0146569D01*
X0084496Y0146569D01*
X0087565Y0143500D02*
X0089100Y0145035D01*
X0087565Y0143500D02*
X0084496Y0143500D01*
X0085263Y0141965D02*
X0088333Y0138896D01*
X0089100Y0139663D01*
X0089100Y0141198D01*
X0088333Y0141965D01*
X0085263Y0141965D01*
X0084496Y0141198D01*
X0084496Y0139663D01*
X0085263Y0138896D01*
X0088333Y0138896D01*
X0094496Y0138896D02*
X0096798Y0138896D01*
X0096031Y0140431D01*
X0096031Y0141198D01*
X0096798Y0141965D01*
X0098333Y0141965D01*
X0099100Y0141198D01*
X0099100Y0139663D01*
X0098333Y0138896D01*
X0094496Y0138896D02*
X0094496Y0141965D01*
X0094496Y0143500D02*
X0097565Y0143500D01*
X0099100Y0145035D01*
X0114997Y0122881D02*
X0118600Y0122881D01*
X0141996Y0138896D02*
X0146600Y0138896D01*
X0146600Y0141965D01*
X0144298Y0143500D02*
X0144298Y0146569D01*
X0146600Y0145802D02*
X0141996Y0145802D01*
X0144298Y0143500D01*
X0151996Y0144267D02*
X0151996Y0145802D01*
X0152763Y0146569D01*
X0153531Y0146569D01*
X0154298Y0145802D01*
X0155065Y0146569D01*
X0155833Y0146569D01*
X0156600Y0145802D01*
X0156600Y0144267D01*
X0155833Y0143500D01*
X0156600Y0141965D02*
X0156600Y0138896D01*
X0151996Y0138896D01*
X0152763Y0143500D02*
X0151996Y0144267D01*
X0154298Y0145035D02*
X0154298Y0145802D01*
X0154496Y0148198D02*
X0153729Y0148965D01*
X0155263Y0150500D01*
X0154496Y0151267D01*
X0161996Y0145802D02*
X0161996Y0144267D01*
X0162763Y0143500D01*
X0163531Y0146569D02*
X0166600Y0143500D01*
X0166600Y0146569D01*
X0163531Y0146569D02*
X0162763Y0146569D01*
X0161996Y0145802D01*
X0166600Y0141965D02*
X0166600Y0138896D01*
X0161996Y0138896D01*
X0171996Y0138896D02*
X0176600Y0138896D01*
X0176600Y0141965D01*
X0176600Y0143500D02*
X0176600Y0146569D01*
X0176600Y0145035D02*
X0171996Y0145035D01*
X0173531Y0143500D01*
X0174496Y0148198D02*
X0173729Y0148965D01*
X0175263Y0150500D01*
X0174496Y0151267D01*
X0209496Y0146569D02*
X0212565Y0146569D01*
X0214100Y0145035D01*
X0212565Y0143500D01*
X0209496Y0143500D01*
X0210263Y0141965D02*
X0213333Y0138896D01*
X0214100Y0139663D01*
X0214100Y0141198D01*
X0213333Y0141965D01*
X0210263Y0141965D01*
X0209496Y0141198D01*
X0209496Y0139663D01*
X0210263Y0138896D01*
X0213333Y0138896D01*
X0219496Y0138896D02*
X0219496Y0141965D01*
X0219496Y0143500D02*
X0222565Y0143500D01*
X0224100Y0145035D01*
X0222565Y0146569D01*
X0219496Y0146569D01*
X0221798Y0141965D02*
X0223333Y0141965D01*
X0224100Y0141198D01*
X0224100Y0139663D01*
X0223333Y0138896D01*
X0221798Y0138896D02*
X0221031Y0140431D01*
X0221031Y0141198D01*
X0221798Y0141965D01*
X0221798Y0138896D02*
X0219496Y0138896D01*
X0228700Y0139463D02*
X0228700Y0147137D01*
X0229496Y0145802D02*
X0234100Y0145802D01*
X0229496Y0142733D01*
X0234100Y0142733D01*
X0234100Y0141198D02*
X0234100Y0139663D01*
X0234100Y0140431D02*
X0229496Y0140431D01*
X0229496Y0141198D02*
X0229496Y0139663D01*
X0239997Y0138842D02*
X0243600Y0138842D01*
X0243600Y0141244D01*
X0243600Y0142525D02*
X0239997Y0142525D01*
X0239997Y0144927D01*
X0239997Y0146208D02*
X0239997Y0148610D01*
X0239997Y0147409D02*
X0243600Y0147409D01*
X0241798Y0143726D02*
X0241798Y0142525D01*
X0239997Y0141244D02*
X0239997Y0138842D01*
X0241798Y0138842D02*
X0241798Y0140043D01*
X0243600Y0137560D02*
X0243600Y0135158D01*
X0239997Y0135158D01*
X0241798Y0133877D02*
X0241798Y0131475D01*
X0239997Y0130194D02*
X0239997Y0127792D01*
X0243600Y0127792D01*
X0243600Y0126511D02*
X0243600Y0124109D01*
X0239997Y0124109D01*
X0241798Y0127792D02*
X0241798Y0128993D01*
X0269496Y0139663D02*
X0269496Y0141198D01*
X0270263Y0141965D01*
X0273333Y0138896D01*
X0274100Y0139663D01*
X0274100Y0141198D01*
X0273333Y0141965D01*
X0270263Y0141965D01*
X0269496Y0143500D02*
X0272565Y0143500D01*
X0274100Y0145035D01*
X0272565Y0146569D01*
X0269496Y0146569D01*
X0279496Y0146569D02*
X0282565Y0146569D01*
X0284100Y0145035D01*
X0282565Y0143500D01*
X0279496Y0143500D01*
X0279496Y0141965D02*
X0279496Y0138896D01*
X0281798Y0138896D01*
X0281031Y0140431D01*
X0281031Y0141198D01*
X0281798Y0141965D01*
X0283333Y0141965D01*
X0284100Y0141198D01*
X0284100Y0139663D01*
X0283333Y0138896D01*
X0288700Y0139463D02*
X0288700Y0147137D01*
X0289496Y0145802D02*
X0294100Y0145802D01*
X0289496Y0142733D01*
X0294100Y0142733D01*
X0294100Y0141198D02*
X0294100Y0139663D01*
X0294100Y0140431D02*
X0289496Y0140431D01*
X0289496Y0141198D02*
X0289496Y0139663D01*
X0299997Y0140630D02*
X0299997Y0138228D01*
X0303600Y0138228D01*
X0303600Y0140630D01*
X0303600Y0141911D02*
X0299997Y0141911D01*
X0299997Y0144313D01*
X0299997Y0145594D02*
X0299997Y0147996D01*
X0299997Y0146795D02*
X0303600Y0146795D01*
X0301798Y0143112D02*
X0301798Y0141911D01*
X0301798Y0139429D02*
X0301798Y0138228D01*
X0303600Y0136947D02*
X0303600Y0134545D01*
X0299997Y0134545D01*
X0301798Y0133263D02*
X0301798Y0130861D01*
X0301798Y0129580D02*
X0300597Y0129580D01*
X0299997Y0128980D01*
X0299997Y0127178D01*
X0303600Y0127178D01*
X0302399Y0127178D02*
X0302399Y0128980D01*
X0301798Y0129580D01*
X0302399Y0128379D02*
X0303600Y0129580D01*
X0303600Y0125924D02*
X0303600Y0124723D01*
X0303600Y0125323D02*
X0299997Y0125323D01*
X0299997Y0124723D02*
X0299997Y0125924D01*
X0273333Y0138896D02*
X0270263Y0138896D01*
X0269496Y0139663D01*
X0101600Y0094302D02*
X0098531Y0094302D01*
X0100065Y0095837D02*
X0100065Y0092767D01*
X0058600Y0123495D02*
X0058600Y0124696D01*
X0058600Y0124096D02*
X0054997Y0124096D01*
X0054997Y0124696D02*
X0054997Y0123495D01*
X0054997Y0125951D02*
X0054997Y0127752D01*
X0055597Y0128353D01*
X0056798Y0128353D01*
X0057399Y0127752D01*
X0057399Y0125951D01*
X0057399Y0127152D02*
X0058600Y0128353D01*
X0056798Y0129634D02*
X0056798Y0132036D01*
X0057399Y0133317D02*
X0057399Y0135118D01*
X0056798Y0135719D01*
X0055597Y0135719D01*
X0054997Y0135118D01*
X0054997Y0133317D01*
X0058600Y0133317D01*
X0057399Y0134518D02*
X0058600Y0135719D01*
X0058600Y0137000D02*
X0058600Y0138201D01*
X0058600Y0137600D02*
X0054997Y0137600D01*
X0054997Y0137000D02*
X0054997Y0138201D01*
X0055597Y0139455D02*
X0057999Y0139455D01*
X0058600Y0140056D01*
X0058600Y0141257D01*
X0057999Y0141857D01*
X0056798Y0141857D01*
X0056798Y0140656D01*
X0055597Y0139455D02*
X0054997Y0140056D01*
X0054997Y0141257D01*
X0055597Y0141857D01*
X0054997Y0143139D02*
X0058600Y0143139D01*
X0056798Y0143139D02*
X0056798Y0145541D01*
X0054997Y0145541D02*
X0058600Y0145541D01*
X0054997Y0146822D02*
X0054997Y0149224D01*
X0054997Y0148023D02*
X0058600Y0148023D01*
X0049100Y0145802D02*
X0044496Y0145802D01*
X0043700Y0147137D02*
X0043700Y0139463D01*
X0044496Y0139663D02*
X0044496Y0141198D01*
X0044496Y0140431D02*
X0049100Y0140431D01*
X0049100Y0141198D02*
X0049100Y0139663D01*
X0049100Y0142733D02*
X0044496Y0142733D01*
X0049100Y0145802D01*
X0039100Y0145035D02*
X0037565Y0146569D01*
X0034496Y0146569D01*
X0029100Y0145035D02*
X0027565Y0146569D01*
X0024496Y0146569D01*
X0024496Y0143500D02*
X0027565Y0143500D01*
X0029100Y0145035D01*
X0028333Y0141965D02*
X0025263Y0141965D01*
X0028333Y0138896D01*
X0029100Y0139663D01*
X0029100Y0141198D01*
X0028333Y0141965D01*
X0025263Y0141965D02*
X0024496Y0141198D01*
X0024496Y0139663D01*
X0025263Y0138896D01*
X0028333Y0138896D01*
X0034496Y0138896D02*
X0036798Y0138896D01*
X0036031Y0140431D01*
X0036031Y0141198D01*
X0036798Y0141965D01*
X0038333Y0141965D01*
X0039100Y0141198D01*
X0039100Y0139663D01*
X0038333Y0138896D01*
X0034496Y0138896D02*
X0034496Y0141965D01*
X0034496Y0143500D02*
X0037565Y0143500D01*
X0039100Y0145035D01*
X0054997Y0125951D02*
X0058600Y0125951D01*
X0039100Y0072085D02*
X0039100Y0069683D01*
X0039100Y0070884D02*
X0035497Y0070884D01*
X0036698Y0069683D01*
X0036097Y0068402D02*
X0035497Y0067802D01*
X0035497Y0066601D01*
X0036097Y0066000D01*
X0036698Y0066000D01*
X0037298Y0066601D01*
X0037298Y0067802D01*
X0037899Y0068402D01*
X0038499Y0068402D01*
X0039100Y0067802D01*
X0039100Y0066601D01*
X0038499Y0066000D01*
X0089290Y0009104D02*
X0088523Y0008337D01*
X0089290Y0009104D02*
X0090825Y0009104D01*
X0091592Y0008337D01*
D14*
X0050802Y0055250D02*
X0049101Y0055250D01*
X0048250Y0056101D01*
X0048250Y0059504D01*
X0049101Y0060354D01*
X0050802Y0060354D01*
X0051653Y0059504D01*
X0051653Y0056101D01*
X0050802Y0055250D01*
X0046128Y0056101D02*
X0046128Y0057802D01*
X0044427Y0057802D01*
X0046128Y0056101D02*
X0045277Y0055250D01*
X0043576Y0055250D01*
X0042725Y0056101D01*
X0042725Y0059504D01*
X0043576Y0060354D01*
X0045277Y0060354D01*
X0046128Y0059504D01*
X0044427Y0079250D02*
X0044427Y0084354D01*
X0046128Y0084354D02*
X0042725Y0084354D01*
X0040603Y0083504D02*
X0039753Y0084354D01*
X0038051Y0084354D01*
X0037201Y0083504D01*
X0037201Y0082653D01*
X0038051Y0081802D01*
X0039753Y0081802D01*
X0040603Y0080951D01*
X0040603Y0080101D01*
X0039753Y0079250D01*
X0038051Y0079250D01*
X0037201Y0080101D01*
X0048250Y0080101D02*
X0049101Y0079250D01*
X0050802Y0079250D01*
X0051653Y0080101D01*
X0051653Y0083504D01*
X0050802Y0084354D01*
X0049101Y0084354D01*
X0048250Y0083504D01*
X0048250Y0080101D01*
X0053775Y0080951D02*
X0056327Y0080951D01*
X0057178Y0081802D01*
X0057178Y0083504D01*
X0056327Y0084354D01*
X0053775Y0084354D01*
X0053775Y0079250D01*
X0311798Y0097111D02*
X0311798Y0100514D01*
X0311798Y0045267D02*
X0311798Y0041864D01*
X0313499Y0043565D02*
X0310096Y0043565D01*
D15*
X0183050Y0085550D03*
X0040550Y0041800D03*
D16*
X0129300Y0079300D03*
D17*
X0079005Y0079800D02*
X0079009Y0080114D01*
X0079020Y0080428D01*
X0079040Y0080741D01*
X0079067Y0081054D01*
X0079101Y0081366D01*
X0079143Y0081677D01*
X0079193Y0081987D01*
X0079251Y0082296D01*
X0079316Y0082603D01*
X0079388Y0082909D01*
X0079468Y0083213D01*
X0079556Y0083514D01*
X0079651Y0083814D01*
X0079753Y0084111D01*
X0079862Y0084405D01*
X0079979Y0084696D01*
X0080103Y0084985D01*
X0080233Y0085271D01*
X0080371Y0085553D01*
X0080516Y0085832D01*
X0080667Y0086107D01*
X0080825Y0086378D01*
X0080990Y0086645D01*
X0081161Y0086909D01*
X0081339Y0087167D01*
X0081523Y0087422D01*
X0081713Y0087672D01*
X0081909Y0087917D01*
X0082112Y0088157D01*
X0082320Y0088393D01*
X0082533Y0088623D01*
X0082753Y0088847D01*
X0082977Y0089067D01*
X0083207Y0089280D01*
X0083443Y0089488D01*
X0083683Y0089691D01*
X0083928Y0089887D01*
X0084178Y0090077D01*
X0084433Y0090261D01*
X0084691Y0090439D01*
X0084955Y0090610D01*
X0085222Y0090775D01*
X0085493Y0090933D01*
X0085768Y0091084D01*
X0086047Y0091229D01*
X0086329Y0091367D01*
X0086615Y0091497D01*
X0086904Y0091621D01*
X0087195Y0091738D01*
X0087489Y0091847D01*
X0087786Y0091949D01*
X0088086Y0092044D01*
X0088387Y0092132D01*
X0088691Y0092212D01*
X0088997Y0092284D01*
X0089304Y0092349D01*
X0089613Y0092407D01*
X0089923Y0092457D01*
X0090234Y0092499D01*
X0090546Y0092533D01*
X0090859Y0092560D01*
X0091172Y0092580D01*
X0091486Y0092591D01*
X0091800Y0092595D01*
X0092114Y0092591D01*
X0092428Y0092580D01*
X0092741Y0092560D01*
X0093054Y0092533D01*
X0093366Y0092499D01*
X0093677Y0092457D01*
X0093987Y0092407D01*
X0094296Y0092349D01*
X0094603Y0092284D01*
X0094909Y0092212D01*
X0095213Y0092132D01*
X0095514Y0092044D01*
X0095814Y0091949D01*
X0096111Y0091847D01*
X0096405Y0091738D01*
X0096696Y0091621D01*
X0096985Y0091497D01*
X0097271Y0091367D01*
X0097553Y0091229D01*
X0097832Y0091084D01*
X0098107Y0090933D01*
X0098378Y0090775D01*
X0098645Y0090610D01*
X0098909Y0090439D01*
X0099167Y0090261D01*
X0099422Y0090077D01*
X0099672Y0089887D01*
X0099917Y0089691D01*
X0100157Y0089488D01*
X0100393Y0089280D01*
X0100623Y0089067D01*
X0100847Y0088847D01*
X0101067Y0088623D01*
X0101280Y0088393D01*
X0101488Y0088157D01*
X0101691Y0087917D01*
X0101887Y0087672D01*
X0102077Y0087422D01*
X0102261Y0087167D01*
X0102439Y0086909D01*
X0102610Y0086645D01*
X0102775Y0086378D01*
X0102933Y0086107D01*
X0103084Y0085832D01*
X0103229Y0085553D01*
X0103367Y0085271D01*
X0103497Y0084985D01*
X0103621Y0084696D01*
X0103738Y0084405D01*
X0103847Y0084111D01*
X0103949Y0083814D01*
X0104044Y0083514D01*
X0104132Y0083213D01*
X0104212Y0082909D01*
X0104284Y0082603D01*
X0104349Y0082296D01*
X0104407Y0081987D01*
X0104457Y0081677D01*
X0104499Y0081366D01*
X0104533Y0081054D01*
X0104560Y0080741D01*
X0104580Y0080428D01*
X0104591Y0080114D01*
X0104595Y0079800D01*
X0104591Y0079486D01*
X0104580Y0079172D01*
X0104560Y0078859D01*
X0104533Y0078546D01*
X0104499Y0078234D01*
X0104457Y0077923D01*
X0104407Y0077613D01*
X0104349Y0077304D01*
X0104284Y0076997D01*
X0104212Y0076691D01*
X0104132Y0076387D01*
X0104044Y0076086D01*
X0103949Y0075786D01*
X0103847Y0075489D01*
X0103738Y0075195D01*
X0103621Y0074904D01*
X0103497Y0074615D01*
X0103367Y0074329D01*
X0103229Y0074047D01*
X0103084Y0073768D01*
X0102933Y0073493D01*
X0102775Y0073222D01*
X0102610Y0072955D01*
X0102439Y0072691D01*
X0102261Y0072433D01*
X0102077Y0072178D01*
X0101887Y0071928D01*
X0101691Y0071683D01*
X0101488Y0071443D01*
X0101280Y0071207D01*
X0101067Y0070977D01*
X0100847Y0070753D01*
X0100623Y0070533D01*
X0100393Y0070320D01*
X0100157Y0070112D01*
X0099917Y0069909D01*
X0099672Y0069713D01*
X0099422Y0069523D01*
X0099167Y0069339D01*
X0098909Y0069161D01*
X0098645Y0068990D01*
X0098378Y0068825D01*
X0098107Y0068667D01*
X0097832Y0068516D01*
X0097553Y0068371D01*
X0097271Y0068233D01*
X0096985Y0068103D01*
X0096696Y0067979D01*
X0096405Y0067862D01*
X0096111Y0067753D01*
X0095814Y0067651D01*
X0095514Y0067556D01*
X0095213Y0067468D01*
X0094909Y0067388D01*
X0094603Y0067316D01*
X0094296Y0067251D01*
X0093987Y0067193D01*
X0093677Y0067143D01*
X0093366Y0067101D01*
X0093054Y0067067D01*
X0092741Y0067040D01*
X0092428Y0067020D01*
X0092114Y0067009D01*
X0091800Y0067005D01*
X0091486Y0067009D01*
X0091172Y0067020D01*
X0090859Y0067040D01*
X0090546Y0067067D01*
X0090234Y0067101D01*
X0089923Y0067143D01*
X0089613Y0067193D01*
X0089304Y0067251D01*
X0088997Y0067316D01*
X0088691Y0067388D01*
X0088387Y0067468D01*
X0088086Y0067556D01*
X0087786Y0067651D01*
X0087489Y0067753D01*
X0087195Y0067862D01*
X0086904Y0067979D01*
X0086615Y0068103D01*
X0086329Y0068233D01*
X0086047Y0068371D01*
X0085768Y0068516D01*
X0085493Y0068667D01*
X0085222Y0068825D01*
X0084955Y0068990D01*
X0084691Y0069161D01*
X0084433Y0069339D01*
X0084178Y0069523D01*
X0083928Y0069713D01*
X0083683Y0069909D01*
X0083443Y0070112D01*
X0083207Y0070320D01*
X0082977Y0070533D01*
X0082753Y0070753D01*
X0082533Y0070977D01*
X0082320Y0071207D01*
X0082112Y0071443D01*
X0081909Y0071683D01*
X0081713Y0071928D01*
X0081523Y0072178D01*
X0081339Y0072433D01*
X0081161Y0072691D01*
X0080990Y0072955D01*
X0080825Y0073222D01*
X0080667Y0073493D01*
X0080516Y0073768D01*
X0080371Y0074047D01*
X0080233Y0074329D01*
X0080103Y0074615D01*
X0079979Y0074904D01*
X0079862Y0075195D01*
X0079753Y0075489D01*
X0079651Y0075786D01*
X0079556Y0076086D01*
X0079468Y0076387D01*
X0079388Y0076691D01*
X0079316Y0076997D01*
X0079251Y0077304D01*
X0079193Y0077613D01*
X0079143Y0077923D01*
X0079101Y0078234D01*
X0079067Y0078546D01*
X0079040Y0078859D01*
X0079020Y0079172D01*
X0079009Y0079486D01*
X0079005Y0079800D01*
X0086800Y0077300D02*
X0086800Y0072300D01*
X0044800Y0047800D02*
X0044800Y0010800D01*
X0268800Y0010800D01*
X0268800Y0047800D01*
X0044800Y0047800D01*
X0042312Y0111406D02*
X0042312Y0114556D01*
X0039950Y0114556D01*
X0033650Y0114556D02*
X0031288Y0114556D01*
X0031288Y0111406D01*
X0029300Y0126800D02*
X0024300Y0126800D01*
X0021800Y0129300D01*
X0021800Y0134300D01*
X0024300Y0136800D01*
X0029300Y0136800D01*
X0031800Y0134300D01*
X0034300Y0136800D01*
X0039300Y0136800D01*
X0041800Y0134300D01*
X0044300Y0136800D01*
X0049300Y0136800D01*
X0051800Y0134300D01*
X0051800Y0129300D01*
X0049300Y0126800D01*
X0044300Y0126800D01*
X0041800Y0129300D01*
X0039300Y0126800D01*
X0034300Y0126800D01*
X0031800Y0129300D01*
X0029300Y0126800D01*
X0081800Y0129300D02*
X0084300Y0126800D01*
X0089300Y0126800D01*
X0091800Y0129300D01*
X0094300Y0126800D01*
X0099300Y0126800D01*
X0101800Y0129300D01*
X0104300Y0126800D01*
X0109300Y0126800D01*
X0111800Y0129300D01*
X0111800Y0134300D01*
X0109300Y0136800D01*
X0104300Y0136800D01*
X0101800Y0134300D01*
X0099300Y0136800D01*
X0094300Y0136800D01*
X0091800Y0134300D01*
X0089300Y0136800D01*
X0084300Y0136800D01*
X0081800Y0134300D01*
X0081800Y0129300D01*
X0091288Y0114556D02*
X0091288Y0111406D01*
X0091288Y0114556D02*
X0093650Y0114556D01*
X0099950Y0114556D02*
X0102312Y0114556D01*
X0102312Y0111406D01*
X0139300Y0129300D02*
X0139300Y0134300D01*
X0141800Y0136800D01*
X0146800Y0136800D01*
X0149300Y0134300D01*
X0151800Y0136800D01*
X0156800Y0136800D01*
X0159300Y0134300D01*
X0161800Y0136800D01*
X0166800Y0136800D01*
X0169300Y0134300D01*
X0171800Y0136800D01*
X0176800Y0136800D01*
X0179300Y0134300D01*
X0179300Y0129300D01*
X0176800Y0126800D01*
X0171800Y0126800D01*
X0169300Y0129300D01*
X0166800Y0126800D01*
X0161800Y0126800D01*
X0159300Y0124300D01*
X0156800Y0126800D01*
X0151800Y0126800D01*
X0149300Y0124300D01*
X0149300Y0119300D01*
X0151800Y0116800D01*
X0156800Y0116800D01*
X0159300Y0119300D01*
X0161800Y0116800D01*
X0166800Y0116800D01*
X0169300Y0119300D01*
X0169300Y0124300D01*
X0166800Y0126800D01*
X0161800Y0126800D01*
X0159300Y0129300D01*
X0156800Y0126800D01*
X0151800Y0126800D01*
X0149300Y0129300D01*
X0146800Y0126800D01*
X0141800Y0126800D01*
X0139300Y0129300D01*
X0206800Y0129300D02*
X0209300Y0126800D01*
X0214300Y0126800D01*
X0216800Y0129300D01*
X0219300Y0126800D01*
X0224300Y0126800D01*
X0226800Y0129300D01*
X0229300Y0126800D01*
X0234300Y0126800D01*
X0236800Y0129300D01*
X0236800Y0134300D01*
X0234300Y0136800D01*
X0229300Y0136800D01*
X0226800Y0134300D01*
X0224300Y0136800D01*
X0219300Y0136800D01*
X0216800Y0134300D01*
X0214300Y0136800D01*
X0209300Y0136800D01*
X0206800Y0134300D01*
X0206800Y0129300D01*
X0216288Y0114556D02*
X0216288Y0111406D01*
X0216288Y0114556D02*
X0218650Y0114556D01*
X0224950Y0114556D02*
X0227312Y0114556D01*
X0227312Y0111406D01*
X0266800Y0129300D02*
X0266800Y0134300D01*
X0269300Y0136800D01*
X0274300Y0136800D01*
X0276800Y0134300D01*
X0279300Y0136800D01*
X0284300Y0136800D01*
X0286800Y0134300D01*
X0289300Y0136800D01*
X0294300Y0136800D01*
X0296800Y0134300D01*
X0296800Y0129300D01*
X0294300Y0126800D01*
X0289300Y0126800D01*
X0286800Y0129300D01*
X0284300Y0126800D01*
X0279300Y0126800D01*
X0276800Y0129300D01*
X0274300Y0126800D01*
X0269300Y0126800D01*
X0266800Y0129300D01*
X0276288Y0114556D02*
X0276288Y0111406D01*
X0276288Y0114556D02*
X0278650Y0114556D01*
X0284950Y0114556D02*
X0287312Y0114556D01*
X0287312Y0111406D01*
X0279700Y0091350D02*
X0308355Y0091350D01*
X0308355Y0051950D01*
X0279700Y0051950D01*
X0279700Y0091350D01*
X0254702Y0083800D02*
X0254702Y0069800D01*
X0228898Y0069800D01*
X0228898Y0083800D01*
X0254702Y0083800D01*
X0308355Y0091350D02*
X0315100Y0091350D01*
X0315100Y0051950D01*
X0308355Y0051950D01*
D18*
X0301800Y0106800D03*
X0301800Y0116800D03*
X0261800Y0116800D03*
X0241800Y0106800D03*
X0201800Y0106800D03*
X0201800Y0116800D03*
X0116800Y0116800D03*
X0076800Y0116800D03*
X0056800Y0116800D03*
X0056800Y0106800D03*
X0016800Y0106800D03*
X0016800Y0116800D03*
D19*
X0261800Y0106920D02*
X0261800Y0106680D01*
D20*
X0199611Y0084035D02*
X0198830Y0083589D01*
X0198737Y0083746D01*
X0198640Y0083900D01*
X0198539Y0084052D01*
X0198434Y0084201D01*
X0198326Y0084348D01*
X0198215Y0084493D01*
X0198100Y0084634D01*
X0197981Y0084773D01*
X0197859Y0084908D01*
X0197734Y0085041D01*
X0197606Y0085171D01*
X0197475Y0085297D01*
X0197341Y0085421D01*
X0197204Y0085541D01*
X0197064Y0085658D01*
X0196921Y0085771D01*
X0196775Y0085881D01*
X0196627Y0085987D01*
X0196476Y0086090D01*
X0196323Y0086189D01*
X0196168Y0086284D01*
X0196010Y0086375D01*
X0195850Y0086463D01*
X0195688Y0086547D01*
X0195525Y0086627D01*
X0195359Y0086703D01*
X0195191Y0086774D01*
X0195022Y0086842D01*
X0194851Y0086906D01*
X0194679Y0086965D01*
X0194505Y0087021D01*
X0194330Y0087072D01*
X0194154Y0087119D01*
X0193977Y0087161D01*
X0193798Y0087200D01*
X0193619Y0087234D01*
X0193439Y0087264D01*
X0193259Y0087289D01*
X0193078Y0087310D01*
X0192896Y0087326D01*
X0192714Y0087339D01*
X0192532Y0087346D01*
X0192350Y0087350D01*
X0192349Y0088249D01*
X0192350Y0088250D01*
X0192554Y0088246D01*
X0192758Y0088238D01*
X0192962Y0088224D01*
X0193166Y0088206D01*
X0193369Y0088182D01*
X0193571Y0088154D01*
X0193773Y0088121D01*
X0193973Y0088083D01*
X0194173Y0088040D01*
X0194372Y0087992D01*
X0194569Y0087940D01*
X0194765Y0087882D01*
X0194960Y0087820D01*
X0195153Y0087754D01*
X0195345Y0087682D01*
X0195534Y0087606D01*
X0195722Y0087526D01*
X0195908Y0087441D01*
X0196092Y0087351D01*
X0196273Y0087258D01*
X0196452Y0087159D01*
X0196629Y0087057D01*
X0196803Y0086950D01*
X0196975Y0086839D01*
X0197144Y0086724D01*
X0197310Y0086605D01*
X0197473Y0086482D01*
X0197633Y0086355D01*
X0197790Y0086224D01*
X0197944Y0086089D01*
X0198094Y0085951D01*
X0198241Y0085809D01*
X0198385Y0085664D01*
X0198525Y0085515D01*
X0198661Y0085363D01*
X0198794Y0085207D01*
X0198922Y0085049D01*
X0199047Y0084887D01*
X0199168Y0084722D01*
X0199285Y0084555D01*
X0199398Y0084384D01*
X0199507Y0084211D01*
X0199612Y0084036D01*
X0199530Y0083989D01*
X0199427Y0084163D01*
X0199319Y0084334D01*
X0199207Y0084502D01*
X0199092Y0084668D01*
X0198972Y0084831D01*
X0198848Y0084990D01*
X0198721Y0085147D01*
X0198590Y0085301D01*
X0198455Y0085451D01*
X0198317Y0085599D01*
X0198175Y0085742D01*
X0198029Y0085883D01*
X0197881Y0086019D01*
X0197729Y0086152D01*
X0197573Y0086282D01*
X0197415Y0086407D01*
X0197254Y0086529D01*
X0197090Y0086647D01*
X0196923Y0086761D01*
X0196753Y0086870D01*
X0196581Y0086976D01*
X0196406Y0087077D01*
X0196229Y0087175D01*
X0196050Y0087267D01*
X0195868Y0087356D01*
X0195684Y0087440D01*
X0195499Y0087520D01*
X0195311Y0087595D01*
X0195122Y0087665D01*
X0194931Y0087731D01*
X0194738Y0087792D01*
X0194544Y0087849D01*
X0194349Y0087901D01*
X0194153Y0087948D01*
X0193955Y0087990D01*
X0193757Y0088028D01*
X0193557Y0088061D01*
X0193357Y0088089D01*
X0193156Y0088112D01*
X0192955Y0088130D01*
X0192754Y0088144D01*
X0192552Y0088152D01*
X0192350Y0088156D01*
X0192350Y0088062D01*
X0192549Y0088058D01*
X0192749Y0088050D01*
X0192948Y0088037D01*
X0193147Y0088018D01*
X0193346Y0087996D01*
X0193543Y0087968D01*
X0193741Y0087935D01*
X0193937Y0087898D01*
X0194132Y0087856D01*
X0194326Y0087810D01*
X0194519Y0087758D01*
X0194711Y0087702D01*
X0194901Y0087642D01*
X0195090Y0087577D01*
X0195277Y0087507D01*
X0195463Y0087433D01*
X0195646Y0087354D01*
X0195828Y0087271D01*
X0196008Y0087183D01*
X0196185Y0087092D01*
X0196360Y0086996D01*
X0196533Y0086895D01*
X0196703Y0086791D01*
X0196871Y0086682D01*
X0197036Y0086570D01*
X0197198Y0086454D01*
X0197357Y0086333D01*
X0197514Y0086209D01*
X0197667Y0086081D01*
X0197818Y0085950D01*
X0197965Y0085814D01*
X0198108Y0085676D01*
X0198249Y0085534D01*
X0198386Y0085388D01*
X0198519Y0085239D01*
X0198649Y0085087D01*
X0198775Y0084932D01*
X0198897Y0084774D01*
X0199015Y0084613D01*
X0199129Y0084450D01*
X0199240Y0084283D01*
X0199346Y0084114D01*
X0199448Y0083943D01*
X0199367Y0083896D01*
X0199266Y0084066D01*
X0199161Y0084233D01*
X0199051Y0084397D01*
X0198938Y0084559D01*
X0198821Y0084718D01*
X0198701Y0084874D01*
X0198576Y0085028D01*
X0198448Y0085178D01*
X0198316Y0085325D01*
X0198181Y0085469D01*
X0198042Y0085609D01*
X0197900Y0085746D01*
X0197755Y0085880D01*
X0197606Y0086010D01*
X0197454Y0086136D01*
X0197300Y0086259D01*
X0197142Y0086378D01*
X0196982Y0086493D01*
X0196819Y0086604D01*
X0196653Y0086711D01*
X0196485Y0086815D01*
X0196314Y0086914D01*
X0196141Y0087009D01*
X0195965Y0087099D01*
X0195788Y0087186D01*
X0195608Y0087268D01*
X0195427Y0087346D01*
X0195244Y0087419D01*
X0195059Y0087488D01*
X0194872Y0087552D01*
X0194684Y0087612D01*
X0194494Y0087668D01*
X0194304Y0087718D01*
X0194112Y0087765D01*
X0193919Y0087806D01*
X0193725Y0087843D01*
X0193530Y0087875D01*
X0193334Y0087902D01*
X0193138Y0087925D01*
X0192941Y0087943D01*
X0192744Y0087956D01*
X0192547Y0087964D01*
X0192350Y0087968D01*
X0192350Y0087874D01*
X0192545Y0087870D01*
X0192740Y0087862D01*
X0192935Y0087849D01*
X0193129Y0087831D01*
X0193323Y0087809D01*
X0193516Y0087782D01*
X0193709Y0087750D01*
X0193900Y0087714D01*
X0194091Y0087673D01*
X0194281Y0087627D01*
X0194469Y0087577D01*
X0194657Y0087522D01*
X0194843Y0087463D01*
X0195027Y0087400D01*
X0195210Y0087331D01*
X0195391Y0087259D01*
X0195570Y0087182D01*
X0195748Y0087101D01*
X0195923Y0087015D01*
X0196097Y0086926D01*
X0196268Y0086832D01*
X0196436Y0086734D01*
X0196603Y0086632D01*
X0196767Y0086526D01*
X0196928Y0086416D01*
X0197086Y0086302D01*
X0197242Y0086185D01*
X0197395Y0086063D01*
X0197545Y0085938D01*
X0197692Y0085810D01*
X0197835Y0085678D01*
X0197976Y0085542D01*
X0198113Y0085403D01*
X0198247Y0085261D01*
X0198377Y0085116D01*
X0198504Y0084968D01*
X0198627Y0084816D01*
X0198746Y0084662D01*
X0198862Y0084505D01*
X0198973Y0084345D01*
X0199081Y0084182D01*
X0199185Y0084017D01*
X0199285Y0083849D01*
X0199204Y0083803D01*
X0199105Y0083968D01*
X0199002Y0084132D01*
X0198895Y0084292D01*
X0198785Y0084450D01*
X0198671Y0084606D01*
X0198553Y0084758D01*
X0198431Y0084908D01*
X0198306Y0085054D01*
X0198177Y0085198D01*
X0198045Y0085338D01*
X0197910Y0085476D01*
X0197771Y0085610D01*
X0197629Y0085740D01*
X0197484Y0085867D01*
X0197336Y0085991D01*
X0197185Y0086110D01*
X0197031Y0086227D01*
X0196874Y0086339D01*
X0196715Y0086448D01*
X0196553Y0086552D01*
X0196388Y0086653D01*
X0196222Y0086750D01*
X0196052Y0086843D01*
X0195881Y0086931D01*
X0195708Y0087016D01*
X0195532Y0087096D01*
X0195355Y0087172D01*
X0195176Y0087244D01*
X0194995Y0087311D01*
X0194813Y0087374D01*
X0194629Y0087432D01*
X0194444Y0087486D01*
X0194258Y0087536D01*
X0194070Y0087581D01*
X0193882Y0087622D01*
X0193693Y0087658D01*
X0193502Y0087689D01*
X0193311Y0087716D01*
X0193120Y0087738D01*
X0192928Y0087755D01*
X0192735Y0087768D01*
X0192543Y0087776D01*
X0192350Y0087780D01*
X0192350Y0087686D01*
X0192540Y0087682D01*
X0192731Y0087674D01*
X0192921Y0087662D01*
X0193111Y0087644D01*
X0193300Y0087622D01*
X0193488Y0087596D01*
X0193676Y0087565D01*
X0193864Y0087529D01*
X0194050Y0087489D01*
X0194235Y0087445D01*
X0194419Y0087396D01*
X0194602Y0087342D01*
X0194784Y0087285D01*
X0194964Y0087222D01*
X0195142Y0087156D01*
X0195319Y0087085D01*
X0195494Y0087010D01*
X0195668Y0086931D01*
X0195839Y0086847D01*
X0196008Y0086760D01*
X0196175Y0086668D01*
X0196340Y0086572D01*
X0196503Y0086473D01*
X0196663Y0086369D01*
X0196820Y0086262D01*
X0196975Y0086151D01*
X0197127Y0086036D01*
X0197276Y0085918D01*
X0197422Y0085796D01*
X0197566Y0085670D01*
X0197706Y0085541D01*
X0197843Y0085409D01*
X0197977Y0085273D01*
X0198108Y0085135D01*
X0198235Y0084993D01*
X0198359Y0084848D01*
X0198479Y0084700D01*
X0198595Y0084549D01*
X0198708Y0084396D01*
X0198817Y0084240D01*
X0198923Y0084081D01*
X0199024Y0083920D01*
X0199122Y0083756D01*
X0199040Y0083709D01*
X0198944Y0083871D01*
X0198844Y0084030D01*
X0198740Y0084187D01*
X0198632Y0084342D01*
X0198520Y0084493D01*
X0198405Y0084642D01*
X0198286Y0084788D01*
X0198164Y0084931D01*
X0198038Y0085071D01*
X0197909Y0085208D01*
X0197777Y0085342D01*
X0197641Y0085473D01*
X0197503Y0085600D01*
X0197361Y0085724D01*
X0197217Y0085845D01*
X0197069Y0085962D01*
X0196919Y0086075D01*
X0196766Y0086185D01*
X0196610Y0086291D01*
X0196452Y0086393D01*
X0196292Y0086492D01*
X0196129Y0086586D01*
X0195964Y0086677D01*
X0195797Y0086763D01*
X0195628Y0086846D01*
X0195457Y0086924D01*
X0195284Y0086998D01*
X0195109Y0087068D01*
X0194932Y0087134D01*
X0194754Y0087195D01*
X0194575Y0087252D01*
X0194394Y0087305D01*
X0194212Y0087354D01*
X0194029Y0087398D01*
X0193845Y0087437D01*
X0193660Y0087472D01*
X0193475Y0087503D01*
X0193288Y0087529D01*
X0193101Y0087551D01*
X0192914Y0087568D01*
X0192726Y0087580D01*
X0192538Y0087588D01*
X0192350Y0087592D01*
X0192350Y0087498D01*
X0192536Y0087494D01*
X0192721Y0087486D01*
X0192907Y0087474D01*
X0193092Y0087457D01*
X0193277Y0087436D01*
X0193461Y0087410D01*
X0193644Y0087380D01*
X0193827Y0087345D01*
X0194009Y0087306D01*
X0194190Y0087262D01*
X0194369Y0087215D01*
X0194548Y0087162D01*
X0194725Y0087106D01*
X0194901Y0087045D01*
X0195075Y0086980D01*
X0195248Y0086911D01*
X0195419Y0086838D01*
X0195588Y0086761D01*
X0195755Y0086679D01*
X0195920Y0086594D01*
X0196083Y0086504D01*
X0196244Y0086411D01*
X0196402Y0086314D01*
X0196558Y0086213D01*
X0196712Y0086108D01*
X0196863Y0086000D01*
X0197012Y0085888D01*
X0197157Y0085772D01*
X0197300Y0085653D01*
X0197440Y0085531D01*
X0197577Y0085405D01*
X0197711Y0085276D01*
X0197841Y0085143D01*
X0197969Y0085008D01*
X0198093Y0084870D01*
X0198214Y0084728D01*
X0198331Y0084584D01*
X0198445Y0084437D01*
X0198555Y0084287D01*
X0198662Y0084135D01*
X0198764Y0083980D01*
X0198863Y0083822D01*
X0198959Y0083663D01*
X0198877Y0083616D01*
X0198783Y0083774D01*
X0198685Y0083929D01*
X0198584Y0084082D01*
X0198478Y0084233D01*
X0198369Y0084381D01*
X0198257Y0084526D01*
X0198141Y0084668D01*
X0198022Y0084808D01*
X0197899Y0084945D01*
X0197773Y0085078D01*
X0197644Y0085209D01*
X0197512Y0085337D01*
X0197377Y0085461D01*
X0197239Y0085582D01*
X0197098Y0085699D01*
X0196954Y0085813D01*
X0196807Y0085924D01*
X0196658Y0086031D01*
X0196506Y0086135D01*
X0196352Y0086234D01*
X0196196Y0086330D01*
X0196037Y0086422D01*
X0195876Y0086511D01*
X0195713Y0086595D01*
X0195548Y0086676D01*
X0195381Y0086752D01*
X0195212Y0086824D01*
X0195041Y0086893D01*
X0194869Y0086957D01*
X0194696Y0087017D01*
X0194521Y0087073D01*
X0194344Y0087124D01*
X0194167Y0087171D01*
X0193988Y0087214D01*
X0193809Y0087253D01*
X0193628Y0087287D01*
X0193447Y0087317D01*
X0193265Y0087342D01*
X0193083Y0087364D01*
X0192900Y0087380D01*
X0192717Y0087393D01*
X0192533Y0087400D01*
X0192350Y0087404D01*
X0192350Y0071351D02*
X0192350Y0072251D01*
X0192350Y0072250D02*
X0192533Y0072254D01*
X0192716Y0072261D01*
X0192899Y0072274D01*
X0193082Y0072291D01*
X0193264Y0072312D01*
X0193445Y0072337D01*
X0193626Y0072367D01*
X0193806Y0072402D01*
X0193985Y0072440D01*
X0194163Y0072483D01*
X0194340Y0072531D01*
X0194515Y0072582D01*
X0194690Y0072638D01*
X0194863Y0072698D01*
X0195034Y0072763D01*
X0195204Y0072831D01*
X0195373Y0072903D01*
X0195539Y0072980D01*
X0195703Y0073061D01*
X0195866Y0073145D01*
X0196026Y0073234D01*
X0196185Y0073326D01*
X0196341Y0073422D01*
X0196494Y0073522D01*
X0196645Y0073626D01*
X0196794Y0073733D01*
X0196940Y0073844D01*
X0197083Y0073958D01*
X0197223Y0074076D01*
X0197360Y0074197D01*
X0197495Y0074321D01*
X0197626Y0074449D01*
X0197755Y0074580D01*
X0197880Y0074714D01*
X0198001Y0074850D01*
X0198120Y0074990D01*
X0198235Y0075133D01*
X0198346Y0075278D01*
X0198454Y0075426D01*
X0198558Y0075577D01*
X0198659Y0075730D01*
X0198756Y0075885D01*
X0198849Y0076043D01*
X0198938Y0076203D01*
X0199732Y0075780D01*
X0199632Y0075600D01*
X0199528Y0075423D01*
X0199420Y0075249D01*
X0199307Y0075077D01*
X0199190Y0074909D01*
X0199069Y0074743D01*
X0198945Y0074580D01*
X0198816Y0074420D01*
X0198683Y0074263D01*
X0198547Y0074110D01*
X0198407Y0073960D01*
X0198263Y0073813D01*
X0198116Y0073670D01*
X0197965Y0073530D01*
X0197811Y0073395D01*
X0197654Y0073263D01*
X0197494Y0073135D01*
X0197330Y0073010D01*
X0197164Y0072890D01*
X0196994Y0072774D01*
X0196822Y0072662D01*
X0196648Y0072554D01*
X0196470Y0072451D01*
X0196291Y0072352D01*
X0196108Y0072257D01*
X0195924Y0072167D01*
X0195738Y0072081D01*
X0195549Y0072000D01*
X0195359Y0071923D01*
X0195166Y0071851D01*
X0194972Y0071784D01*
X0194777Y0071721D01*
X0194580Y0071663D01*
X0194382Y0071610D01*
X0194182Y0071562D01*
X0193981Y0071519D01*
X0193780Y0071481D01*
X0193577Y0071447D01*
X0193374Y0071419D01*
X0193170Y0071395D01*
X0192965Y0071376D01*
X0192761Y0071363D01*
X0192556Y0071354D01*
X0192350Y0071350D01*
X0192350Y0071444D01*
X0192553Y0071448D01*
X0192756Y0071456D01*
X0192959Y0071470D01*
X0193161Y0071488D01*
X0193362Y0071512D01*
X0193563Y0071540D01*
X0193764Y0071573D01*
X0193963Y0071611D01*
X0194161Y0071654D01*
X0194359Y0071702D01*
X0194555Y0071754D01*
X0194750Y0071811D01*
X0194943Y0071873D01*
X0195135Y0071940D01*
X0195325Y0072011D01*
X0195513Y0072086D01*
X0195699Y0072167D01*
X0195884Y0072252D01*
X0196066Y0072341D01*
X0196246Y0072435D01*
X0196424Y0072533D01*
X0196599Y0072635D01*
X0196772Y0072741D01*
X0196942Y0072852D01*
X0197110Y0072967D01*
X0197274Y0073086D01*
X0197436Y0073209D01*
X0197594Y0073335D01*
X0197750Y0073466D01*
X0197902Y0073600D01*
X0198051Y0073738D01*
X0198197Y0073879D01*
X0198339Y0074024D01*
X0198477Y0074173D01*
X0198612Y0074324D01*
X0198743Y0074479D01*
X0198870Y0074637D01*
X0198994Y0074799D01*
X0199113Y0074963D01*
X0199229Y0075130D01*
X0199340Y0075299D01*
X0199448Y0075472D01*
X0199551Y0075647D01*
X0199649Y0075824D01*
X0199566Y0075868D01*
X0199469Y0075693D01*
X0199367Y0075520D01*
X0199261Y0075350D01*
X0199151Y0075182D01*
X0199037Y0075017D01*
X0198918Y0074855D01*
X0198796Y0074695D01*
X0198670Y0074539D01*
X0198541Y0074386D01*
X0198407Y0074236D01*
X0198271Y0074089D01*
X0198130Y0073946D01*
X0197986Y0073806D01*
X0197839Y0073670D01*
X0197688Y0073537D01*
X0197535Y0073408D01*
X0197378Y0073283D01*
X0197218Y0073161D01*
X0197055Y0073044D01*
X0196890Y0072930D01*
X0196722Y0072821D01*
X0196551Y0072715D01*
X0196378Y0072614D01*
X0196202Y0072517D01*
X0196024Y0072425D01*
X0195844Y0072337D01*
X0195661Y0072253D01*
X0195477Y0072173D01*
X0195291Y0072098D01*
X0195103Y0072028D01*
X0194913Y0071962D01*
X0194722Y0071901D01*
X0194530Y0071845D01*
X0194336Y0071793D01*
X0194141Y0071746D01*
X0193945Y0071703D01*
X0193747Y0071666D01*
X0193549Y0071633D01*
X0193351Y0071605D01*
X0193151Y0071582D01*
X0192952Y0071564D01*
X0192751Y0071550D01*
X0192551Y0071542D01*
X0192350Y0071538D01*
X0192350Y0071632D01*
X0192549Y0071636D01*
X0192747Y0071644D01*
X0192945Y0071657D01*
X0193142Y0071676D01*
X0193339Y0071698D01*
X0193536Y0071726D01*
X0193731Y0071758D01*
X0193926Y0071796D01*
X0194120Y0071837D01*
X0194313Y0071884D01*
X0194505Y0071935D01*
X0194695Y0071991D01*
X0194884Y0072051D01*
X0195071Y0072116D01*
X0195257Y0072186D01*
X0195441Y0072260D01*
X0195623Y0072339D01*
X0195803Y0072422D01*
X0195982Y0072509D01*
X0196158Y0072600D01*
X0196331Y0072696D01*
X0196503Y0072796D01*
X0196671Y0072900D01*
X0196838Y0073008D01*
X0197001Y0073121D01*
X0197162Y0073237D01*
X0197320Y0073357D01*
X0197475Y0073481D01*
X0197627Y0073608D01*
X0197776Y0073739D01*
X0197921Y0073874D01*
X0198064Y0074012D01*
X0198202Y0074154D01*
X0198338Y0074299D01*
X0198470Y0074447D01*
X0198598Y0074599D01*
X0198722Y0074753D01*
X0198843Y0074910D01*
X0198960Y0075071D01*
X0199073Y0075234D01*
X0199181Y0075400D01*
X0199286Y0075568D01*
X0199387Y0075739D01*
X0199483Y0075912D01*
X0199401Y0075957D01*
X0199305Y0075785D01*
X0199206Y0075616D01*
X0199102Y0075450D01*
X0198994Y0075286D01*
X0198883Y0075125D01*
X0198767Y0074966D01*
X0198648Y0074811D01*
X0198525Y0074658D01*
X0198398Y0074509D01*
X0198268Y0074362D01*
X0198134Y0074219D01*
X0197997Y0074079D01*
X0197856Y0073942D01*
X0197713Y0073809D01*
X0197566Y0073679D01*
X0197415Y0073553D01*
X0197262Y0073431D01*
X0197106Y0073312D01*
X0196947Y0073197D01*
X0196785Y0073087D01*
X0196621Y0072980D01*
X0196454Y0072877D01*
X0196285Y0072778D01*
X0196113Y0072683D01*
X0195939Y0072593D01*
X0195763Y0072506D01*
X0195585Y0072425D01*
X0195405Y0072347D01*
X0195223Y0072274D01*
X0195040Y0072205D01*
X0194854Y0072141D01*
X0194668Y0072081D01*
X0194480Y0072026D01*
X0194290Y0071975D01*
X0194100Y0071929D01*
X0193908Y0071888D01*
X0193715Y0071851D01*
X0193522Y0071819D01*
X0193328Y0071792D01*
X0193133Y0071769D01*
X0192938Y0071751D01*
X0192742Y0071738D01*
X0192546Y0071730D01*
X0192350Y0071726D01*
X0192350Y0071820D01*
X0192544Y0071824D01*
X0192738Y0071832D01*
X0192931Y0071845D01*
X0193124Y0071863D01*
X0193316Y0071885D01*
X0193508Y0071912D01*
X0193699Y0071944D01*
X0193890Y0071980D01*
X0194079Y0072021D01*
X0194267Y0072066D01*
X0194454Y0072116D01*
X0194640Y0072171D01*
X0194825Y0072230D01*
X0195008Y0072293D01*
X0195189Y0072361D01*
X0195369Y0072434D01*
X0195547Y0072510D01*
X0195723Y0072591D01*
X0195897Y0072677D01*
X0196069Y0072766D01*
X0196239Y0072860D01*
X0196406Y0072957D01*
X0196571Y0073059D01*
X0196733Y0073165D01*
X0196893Y0073274D01*
X0197050Y0073388D01*
X0197204Y0073505D01*
X0197356Y0073626D01*
X0197504Y0073750D01*
X0197649Y0073878D01*
X0197792Y0074010D01*
X0197931Y0074145D01*
X0198066Y0074283D01*
X0198198Y0074425D01*
X0198327Y0074570D01*
X0198452Y0074718D01*
X0198574Y0074869D01*
X0198692Y0075022D01*
X0198806Y0075179D01*
X0198916Y0075338D01*
X0199022Y0075500D01*
X0199125Y0075665D01*
X0199223Y0075832D01*
X0199318Y0076001D01*
X0199235Y0076045D01*
X0199141Y0075878D01*
X0199044Y0075713D01*
X0198943Y0075550D01*
X0198838Y0075390D01*
X0198729Y0075233D01*
X0198616Y0075078D01*
X0198500Y0074926D01*
X0198380Y0074777D01*
X0198256Y0074631D01*
X0198129Y0074488D01*
X0197998Y0074348D01*
X0197864Y0074212D01*
X0197727Y0074078D01*
X0197586Y0073948D01*
X0197443Y0073821D01*
X0197296Y0073698D01*
X0197146Y0073579D01*
X0196994Y0073463D01*
X0196839Y0073351D01*
X0196681Y0073243D01*
X0196520Y0073138D01*
X0196357Y0073038D01*
X0196192Y0072941D01*
X0196025Y0072849D01*
X0195855Y0072761D01*
X0195683Y0072676D01*
X0195509Y0072596D01*
X0195333Y0072521D01*
X0195155Y0072449D01*
X0194976Y0072382D01*
X0194795Y0072319D01*
X0194613Y0072261D01*
X0194429Y0072207D01*
X0194244Y0072157D01*
X0194058Y0072113D01*
X0193871Y0072072D01*
X0193683Y0072036D01*
X0193494Y0072005D01*
X0193305Y0071978D01*
X0193115Y0071956D01*
X0192924Y0071939D01*
X0192733Y0071926D01*
X0192542Y0071918D01*
X0192350Y0071914D01*
X0192350Y0072008D01*
X0192539Y0072012D01*
X0192728Y0072020D01*
X0192917Y0072032D01*
X0193105Y0072050D01*
X0193293Y0072072D01*
X0193480Y0072098D01*
X0193667Y0072129D01*
X0193853Y0072164D01*
X0194038Y0072204D01*
X0194222Y0072249D01*
X0194404Y0072298D01*
X0194586Y0072351D01*
X0194766Y0072408D01*
X0194944Y0072470D01*
X0195122Y0072537D01*
X0195297Y0072607D01*
X0195471Y0072682D01*
X0195643Y0072761D01*
X0195812Y0072845D01*
X0195980Y0072932D01*
X0196146Y0073023D01*
X0196309Y0073119D01*
X0196470Y0073218D01*
X0196629Y0073321D01*
X0196785Y0073428D01*
X0196938Y0073539D01*
X0197089Y0073653D01*
X0197236Y0073771D01*
X0197381Y0073893D01*
X0197523Y0074018D01*
X0197662Y0074146D01*
X0197797Y0074278D01*
X0197930Y0074413D01*
X0198059Y0074551D01*
X0198185Y0074693D01*
X0198307Y0074837D01*
X0198426Y0074984D01*
X0198541Y0075134D01*
X0198652Y0075287D01*
X0198760Y0075443D01*
X0198864Y0075601D01*
X0198964Y0075761D01*
X0199060Y0075924D01*
X0199152Y0076089D01*
X0199069Y0076134D01*
X0198978Y0075970D01*
X0198883Y0075809D01*
X0198784Y0075651D01*
X0198682Y0075495D01*
X0198575Y0075341D01*
X0198465Y0075190D01*
X0198351Y0075042D01*
X0198234Y0074896D01*
X0198113Y0074754D01*
X0197989Y0074614D01*
X0197862Y0074478D01*
X0197731Y0074344D01*
X0197597Y0074214D01*
X0197460Y0074087D01*
X0197320Y0073964D01*
X0197177Y0073844D01*
X0197031Y0073727D01*
X0196882Y0073614D01*
X0196730Y0073505D01*
X0196576Y0073399D01*
X0196420Y0073297D01*
X0196261Y0073199D01*
X0196099Y0073105D01*
X0195936Y0073015D01*
X0195770Y0072928D01*
X0195602Y0072846D01*
X0195433Y0072768D01*
X0195261Y0072694D01*
X0195088Y0072625D01*
X0194913Y0072559D01*
X0194736Y0072498D01*
X0194558Y0072441D01*
X0194379Y0072388D01*
X0194199Y0072340D01*
X0194017Y0072296D01*
X0193834Y0072256D01*
X0193651Y0072221D01*
X0193467Y0072191D01*
X0193282Y0072165D01*
X0193096Y0072143D01*
X0192910Y0072126D01*
X0192724Y0072114D01*
X0192537Y0072106D01*
X0192350Y0072102D01*
X0192350Y0072196D01*
X0192535Y0072200D01*
X0192719Y0072208D01*
X0192903Y0072220D01*
X0193087Y0072237D01*
X0193270Y0072258D01*
X0193453Y0072284D01*
X0193635Y0072314D01*
X0193816Y0072349D01*
X0193996Y0072388D01*
X0194176Y0072431D01*
X0194354Y0072479D01*
X0194531Y0072531D01*
X0194707Y0072587D01*
X0194881Y0072647D01*
X0195054Y0072712D01*
X0195225Y0072781D01*
X0195394Y0072854D01*
X0195562Y0072931D01*
X0195728Y0073012D01*
X0195891Y0073098D01*
X0196053Y0073187D01*
X0196212Y0073280D01*
X0196369Y0073377D01*
X0196524Y0073477D01*
X0196676Y0073582D01*
X0196826Y0073690D01*
X0196973Y0073801D01*
X0197117Y0073916D01*
X0197258Y0074035D01*
X0197397Y0074157D01*
X0197532Y0074282D01*
X0197664Y0074411D01*
X0197794Y0074543D01*
X0197920Y0074677D01*
X0198042Y0074815D01*
X0198161Y0074956D01*
X0198277Y0075100D01*
X0198390Y0075246D01*
X0198498Y0075395D01*
X0198603Y0075547D01*
X0198705Y0075701D01*
X0198802Y0075858D01*
X0198896Y0076017D01*
X0198986Y0076178D01*
X0185841Y0074352D02*
X0186533Y0074929D01*
X0186532Y0074928D02*
X0186651Y0074791D01*
X0186772Y0074657D01*
X0186897Y0074526D01*
X0187025Y0074398D01*
X0187156Y0074274D01*
X0187290Y0074152D01*
X0187427Y0074033D01*
X0187566Y0073918D01*
X0187709Y0073807D01*
X0187854Y0073698D01*
X0188001Y0073593D01*
X0188151Y0073492D01*
X0188303Y0073395D01*
X0188458Y0073301D01*
X0188615Y0073210D01*
X0188774Y0073124D01*
X0188935Y0073041D01*
X0189098Y0072963D01*
X0189263Y0072888D01*
X0189429Y0072817D01*
X0189597Y0072750D01*
X0189767Y0072688D01*
X0189938Y0072629D01*
X0190111Y0072574D01*
X0190284Y0072524D01*
X0190459Y0072478D01*
X0190635Y0072436D01*
X0190812Y0072398D01*
X0190990Y0072365D01*
X0191169Y0072335D01*
X0191348Y0072310D01*
X0191528Y0072290D01*
X0191708Y0072273D01*
X0191888Y0072261D01*
X0192069Y0072254D01*
X0192250Y0072250D01*
X0192251Y0071351D01*
X0192250Y0071350D01*
X0192047Y0071354D01*
X0191845Y0071362D01*
X0191642Y0071376D01*
X0191440Y0071394D01*
X0191239Y0071417D01*
X0191038Y0071445D01*
X0190838Y0071478D01*
X0190638Y0071515D01*
X0190440Y0071557D01*
X0190242Y0071604D01*
X0190046Y0071656D01*
X0189852Y0071713D01*
X0189658Y0071774D01*
X0189466Y0071839D01*
X0189276Y0071910D01*
X0189087Y0071985D01*
X0188901Y0072064D01*
X0188716Y0072148D01*
X0188533Y0072236D01*
X0188353Y0072329D01*
X0188175Y0072425D01*
X0187999Y0072527D01*
X0187826Y0072632D01*
X0187655Y0072741D01*
X0187487Y0072855D01*
X0187321Y0072972D01*
X0187159Y0073094D01*
X0186999Y0073219D01*
X0186843Y0073348D01*
X0186690Y0073481D01*
X0186540Y0073618D01*
X0186393Y0073758D01*
X0186250Y0073901D01*
X0186110Y0074048D01*
X0185973Y0074198D01*
X0185841Y0074352D01*
X0185913Y0074412D01*
X0186044Y0074260D01*
X0186179Y0074112D01*
X0186317Y0073967D01*
X0186459Y0073825D01*
X0186604Y0073686D01*
X0186752Y0073551D01*
X0186904Y0073420D01*
X0187059Y0073292D01*
X0187216Y0073168D01*
X0187377Y0073048D01*
X0187540Y0072932D01*
X0187707Y0072820D01*
X0187875Y0072712D01*
X0188047Y0072607D01*
X0188221Y0072507D01*
X0188397Y0072412D01*
X0188575Y0072320D01*
X0188756Y0072233D01*
X0188939Y0072150D01*
X0189123Y0072071D01*
X0189309Y0071997D01*
X0189498Y0071928D01*
X0189687Y0071863D01*
X0189879Y0071803D01*
X0190071Y0071747D01*
X0190265Y0071696D01*
X0190460Y0071649D01*
X0190656Y0071607D01*
X0190853Y0071570D01*
X0191051Y0071538D01*
X0191250Y0071510D01*
X0191449Y0071487D01*
X0191649Y0071469D01*
X0191849Y0071456D01*
X0192050Y0071448D01*
X0192250Y0071444D01*
X0192250Y0071538D01*
X0192052Y0071542D01*
X0191854Y0071550D01*
X0191656Y0071563D01*
X0191458Y0071581D01*
X0191261Y0071604D01*
X0191065Y0071631D01*
X0190869Y0071663D01*
X0190675Y0071699D01*
X0190481Y0071741D01*
X0190288Y0071787D01*
X0190096Y0071837D01*
X0189906Y0071893D01*
X0189717Y0071952D01*
X0189529Y0072017D01*
X0189343Y0072085D01*
X0189159Y0072158D01*
X0188976Y0072236D01*
X0188796Y0072318D01*
X0188617Y0072404D01*
X0188441Y0072495D01*
X0188267Y0072589D01*
X0188095Y0072688D01*
X0187925Y0072791D01*
X0187758Y0072898D01*
X0187594Y0073009D01*
X0187433Y0073124D01*
X0187274Y0073243D01*
X0187118Y0073365D01*
X0186965Y0073491D01*
X0186815Y0073621D01*
X0186668Y0073755D01*
X0186525Y0073892D01*
X0186385Y0074032D01*
X0186248Y0074175D01*
X0186115Y0074322D01*
X0185985Y0074472D01*
X0186057Y0074532D01*
X0186186Y0074384D01*
X0186317Y0074239D01*
X0186452Y0074097D01*
X0186591Y0073959D01*
X0186733Y0073823D01*
X0186878Y0073691D01*
X0187026Y0073563D01*
X0187177Y0073438D01*
X0187331Y0073317D01*
X0187488Y0073200D01*
X0187648Y0073086D01*
X0187810Y0072977D01*
X0187975Y0072871D01*
X0188143Y0072769D01*
X0188313Y0072671D01*
X0188485Y0072578D01*
X0188659Y0072488D01*
X0188836Y0072403D01*
X0189014Y0072322D01*
X0189194Y0072245D01*
X0189377Y0072173D01*
X0189560Y0072105D01*
X0189746Y0072042D01*
X0189933Y0071983D01*
X0190121Y0071928D01*
X0190310Y0071878D01*
X0190501Y0071833D01*
X0190693Y0071792D01*
X0190885Y0071755D01*
X0191079Y0071724D01*
X0191273Y0071697D01*
X0191468Y0071675D01*
X0191663Y0071657D01*
X0191858Y0071644D01*
X0192054Y0071636D01*
X0192250Y0071632D01*
X0192250Y0071726D01*
X0192056Y0071730D01*
X0191863Y0071738D01*
X0191670Y0071751D01*
X0191477Y0071768D01*
X0191284Y0071790D01*
X0191092Y0071817D01*
X0190901Y0071848D01*
X0190711Y0071884D01*
X0190521Y0071924D01*
X0190333Y0071969D01*
X0190146Y0072019D01*
X0189960Y0072073D01*
X0189775Y0072131D01*
X0189592Y0072194D01*
X0189410Y0072261D01*
X0189230Y0072332D01*
X0189052Y0072408D01*
X0188875Y0072488D01*
X0188701Y0072572D01*
X0188529Y0072661D01*
X0188359Y0072753D01*
X0188191Y0072850D01*
X0188025Y0072951D01*
X0187862Y0073055D01*
X0187702Y0073163D01*
X0187544Y0073276D01*
X0187389Y0073392D01*
X0187236Y0073511D01*
X0187087Y0073635D01*
X0186940Y0073761D01*
X0186797Y0073892D01*
X0186657Y0074025D01*
X0186520Y0074162D01*
X0186387Y0074303D01*
X0186256Y0074446D01*
X0186130Y0074593D01*
X0186202Y0074653D01*
X0186327Y0074508D01*
X0186456Y0074366D01*
X0186588Y0074228D01*
X0186723Y0074092D01*
X0186862Y0073960D01*
X0187003Y0073831D01*
X0187148Y0073706D01*
X0187295Y0073584D01*
X0187446Y0073466D01*
X0187599Y0073351D01*
X0187755Y0073241D01*
X0187914Y0073133D01*
X0188075Y0073030D01*
X0188239Y0072931D01*
X0188405Y0072835D01*
X0188573Y0072744D01*
X0188743Y0072657D01*
X0188915Y0072573D01*
X0189090Y0072494D01*
X0189266Y0072419D01*
X0189444Y0072349D01*
X0189623Y0072282D01*
X0189804Y0072220D01*
X0189987Y0072163D01*
X0190171Y0072109D01*
X0190356Y0072060D01*
X0190542Y0072016D01*
X0190729Y0071976D01*
X0190917Y0071941D01*
X0191106Y0071910D01*
X0191296Y0071883D01*
X0191486Y0071862D01*
X0191676Y0071844D01*
X0191867Y0071832D01*
X0192059Y0071824D01*
X0192250Y0071820D01*
X0192250Y0071914D01*
X0192061Y0071918D01*
X0191872Y0071926D01*
X0191683Y0071938D01*
X0191495Y0071955D01*
X0191307Y0071977D01*
X0191120Y0072003D01*
X0190933Y0072033D01*
X0190747Y0072068D01*
X0190562Y0072108D01*
X0190378Y0072152D01*
X0190196Y0072200D01*
X0190014Y0072253D01*
X0189834Y0072310D01*
X0189655Y0072371D01*
X0189477Y0072437D01*
X0189301Y0072506D01*
X0189127Y0072580D01*
X0188955Y0072658D01*
X0188785Y0072741D01*
X0188617Y0072827D01*
X0188451Y0072917D01*
X0188287Y0073012D01*
X0188125Y0073110D01*
X0187966Y0073212D01*
X0187809Y0073318D01*
X0187655Y0073427D01*
X0187503Y0073541D01*
X0187355Y0073657D01*
X0187209Y0073778D01*
X0187066Y0073901D01*
X0186926Y0074029D01*
X0186789Y0074159D01*
X0186655Y0074293D01*
X0186525Y0074430D01*
X0186398Y0074570D01*
X0186274Y0074713D01*
X0186346Y0074773D01*
X0186469Y0074632D01*
X0186594Y0074494D01*
X0186723Y0074358D01*
X0186855Y0074226D01*
X0186990Y0074097D01*
X0187129Y0073972D01*
X0187270Y0073849D01*
X0187414Y0073730D01*
X0187561Y0073615D01*
X0187710Y0073503D01*
X0187863Y0073395D01*
X0188018Y0073290D01*
X0188175Y0073190D01*
X0188335Y0073093D01*
X0188496Y0072999D01*
X0188661Y0072910D01*
X0188827Y0072825D01*
X0188995Y0072744D01*
X0189165Y0072666D01*
X0189337Y0072593D01*
X0189511Y0072524D01*
X0189686Y0072460D01*
X0189863Y0072399D01*
X0190041Y0072343D01*
X0190220Y0072291D01*
X0190401Y0072243D01*
X0190583Y0072200D01*
X0190765Y0072161D01*
X0190949Y0072126D01*
X0191133Y0072096D01*
X0191318Y0072070D01*
X0191504Y0072049D01*
X0191690Y0072032D01*
X0191877Y0072020D01*
X0192063Y0072012D01*
X0192250Y0072008D01*
X0192250Y0072102D01*
X0192066Y0072106D01*
X0191881Y0072113D01*
X0191697Y0072126D01*
X0191513Y0072142D01*
X0191330Y0072163D01*
X0191147Y0072189D01*
X0190965Y0072219D01*
X0190784Y0072253D01*
X0190603Y0072291D01*
X0190424Y0072334D01*
X0190245Y0072381D01*
X0190068Y0072433D01*
X0189892Y0072488D01*
X0189717Y0072548D01*
X0189544Y0072612D01*
X0189373Y0072680D01*
X0189203Y0072752D01*
X0189035Y0072829D01*
X0188869Y0072909D01*
X0188705Y0072993D01*
X0188542Y0073081D01*
X0188382Y0073173D01*
X0188225Y0073269D01*
X0188069Y0073369D01*
X0187916Y0073472D01*
X0187766Y0073579D01*
X0187618Y0073689D01*
X0187473Y0073803D01*
X0187331Y0073921D01*
X0187191Y0074042D01*
X0187055Y0074166D01*
X0186921Y0074293D01*
X0186791Y0074424D01*
X0186663Y0074557D01*
X0186539Y0074694D01*
X0186419Y0074833D01*
X0186491Y0074894D01*
X0186610Y0074756D01*
X0186733Y0074621D01*
X0186858Y0074489D01*
X0186987Y0074360D01*
X0187119Y0074234D01*
X0187254Y0074112D01*
X0187392Y0073992D01*
X0187532Y0073876D01*
X0187676Y0073764D01*
X0187822Y0073655D01*
X0187970Y0073549D01*
X0188121Y0073447D01*
X0188275Y0073349D01*
X0188430Y0073254D01*
X0188588Y0073163D01*
X0188749Y0073076D01*
X0188911Y0072993D01*
X0189075Y0072914D01*
X0189241Y0072839D01*
X0189409Y0072767D01*
X0189578Y0072700D01*
X0189749Y0072637D01*
X0189921Y0072578D01*
X0190095Y0072523D01*
X0190270Y0072472D01*
X0190446Y0072425D01*
X0190624Y0072383D01*
X0190802Y0072345D01*
X0190981Y0072311D01*
X0191161Y0072282D01*
X0191341Y0072257D01*
X0191522Y0072236D01*
X0191704Y0072219D01*
X0191886Y0072207D01*
X0192068Y0072200D01*
X0192250Y0072196D01*
X0192251Y0088249D02*
X0192251Y0087349D01*
X0192250Y0087350D02*
X0192066Y0087346D01*
X0191881Y0087338D01*
X0191697Y0087326D01*
X0191514Y0087309D01*
X0191330Y0087287D01*
X0191148Y0087262D01*
X0190966Y0087231D01*
X0190785Y0087196D01*
X0190604Y0087157D01*
X0190425Y0087113D01*
X0190247Y0087065D01*
X0190070Y0087013D01*
X0189894Y0086956D01*
X0189720Y0086896D01*
X0189548Y0086830D01*
X0189377Y0086761D01*
X0189207Y0086688D01*
X0189040Y0086610D01*
X0188875Y0086528D01*
X0188711Y0086443D01*
X0188550Y0086353D01*
X0188391Y0086259D01*
X0188234Y0086162D01*
X0188080Y0086061D01*
X0187928Y0085956D01*
X0187779Y0085847D01*
X0187633Y0085735D01*
X0187489Y0085619D01*
X0187349Y0085500D01*
X0187211Y0085377D01*
X0187076Y0085251D01*
X0186944Y0085122D01*
X0186816Y0084989D01*
X0186691Y0084854D01*
X0186569Y0084715D01*
X0185882Y0085296D01*
X0186018Y0085452D01*
X0186159Y0085604D01*
X0186303Y0085753D01*
X0186450Y0085898D01*
X0186601Y0086039D01*
X0186755Y0086176D01*
X0186913Y0086310D01*
X0187074Y0086440D01*
X0187238Y0086566D01*
X0187405Y0086688D01*
X0187575Y0086806D01*
X0187748Y0086919D01*
X0187924Y0087028D01*
X0188102Y0087133D01*
X0188283Y0087234D01*
X0188466Y0087330D01*
X0188651Y0087422D01*
X0188839Y0087509D01*
X0189029Y0087591D01*
X0189220Y0087669D01*
X0189414Y0087742D01*
X0189609Y0087810D01*
X0189806Y0087874D01*
X0190004Y0087932D01*
X0190204Y0087986D01*
X0190405Y0088035D01*
X0190607Y0088079D01*
X0190810Y0088118D01*
X0191014Y0088152D01*
X0191219Y0088181D01*
X0191424Y0088205D01*
X0191630Y0088223D01*
X0191837Y0088237D01*
X0192043Y0088246D01*
X0192250Y0088250D01*
X0192250Y0088156D01*
X0192046Y0088152D01*
X0191841Y0088143D01*
X0191637Y0088130D01*
X0191434Y0088111D01*
X0191231Y0088087D01*
X0191028Y0088059D01*
X0190826Y0088025D01*
X0190626Y0087987D01*
X0190426Y0087943D01*
X0190227Y0087895D01*
X0190030Y0087842D01*
X0189833Y0087784D01*
X0189639Y0087721D01*
X0189446Y0087653D01*
X0189254Y0087581D01*
X0189065Y0087504D01*
X0188877Y0087423D01*
X0188692Y0087337D01*
X0188509Y0087246D01*
X0188327Y0087151D01*
X0188149Y0087052D01*
X0187973Y0086948D01*
X0187799Y0086840D01*
X0187628Y0086728D01*
X0187460Y0086611D01*
X0187295Y0086491D01*
X0187132Y0086366D01*
X0186973Y0086238D01*
X0186817Y0086106D01*
X0186665Y0085970D01*
X0186515Y0085830D01*
X0186370Y0085687D01*
X0186227Y0085540D01*
X0186089Y0085389D01*
X0185954Y0085236D01*
X0186025Y0085175D01*
X0186159Y0085327D01*
X0186296Y0085476D01*
X0186437Y0085621D01*
X0186581Y0085762D01*
X0186728Y0085901D01*
X0186879Y0086035D01*
X0187033Y0086166D01*
X0187191Y0086293D01*
X0187351Y0086416D01*
X0187515Y0086535D01*
X0187681Y0086650D01*
X0187850Y0086761D01*
X0188021Y0086868D01*
X0188196Y0086970D01*
X0188372Y0087069D01*
X0188551Y0087163D01*
X0188733Y0087252D01*
X0188916Y0087337D01*
X0189101Y0087418D01*
X0189289Y0087494D01*
X0189478Y0087565D01*
X0189669Y0087632D01*
X0189861Y0087694D01*
X0190055Y0087751D01*
X0190250Y0087804D01*
X0190447Y0087851D01*
X0190644Y0087894D01*
X0190843Y0087932D01*
X0191042Y0087966D01*
X0191242Y0087994D01*
X0191443Y0088017D01*
X0191644Y0088036D01*
X0191846Y0088050D01*
X0192048Y0088058D01*
X0192250Y0088062D01*
X0192250Y0087968D01*
X0192050Y0087964D01*
X0191851Y0087956D01*
X0191651Y0087942D01*
X0191452Y0087924D01*
X0191254Y0087901D01*
X0191056Y0087873D01*
X0190859Y0087840D01*
X0190663Y0087802D01*
X0190467Y0087760D01*
X0190273Y0087713D01*
X0190080Y0087661D01*
X0189889Y0087604D01*
X0189698Y0087543D01*
X0189510Y0087477D01*
X0189323Y0087406D01*
X0189138Y0087331D01*
X0188954Y0087251D01*
X0188773Y0087167D01*
X0188594Y0087079D01*
X0188417Y0086986D01*
X0188242Y0086889D01*
X0188070Y0086787D01*
X0187901Y0086682D01*
X0187733Y0086572D01*
X0187569Y0086458D01*
X0187408Y0086341D01*
X0187249Y0086219D01*
X0187094Y0086094D01*
X0186941Y0085964D01*
X0186792Y0085831D01*
X0186646Y0085695D01*
X0186504Y0085555D01*
X0186365Y0085411D01*
X0186229Y0085264D01*
X0186097Y0085114D01*
X0186169Y0085054D01*
X0186299Y0085202D01*
X0186433Y0085347D01*
X0186571Y0085489D01*
X0186712Y0085627D01*
X0186856Y0085762D01*
X0187003Y0085894D01*
X0187154Y0086021D01*
X0187308Y0086145D01*
X0187464Y0086266D01*
X0187624Y0086382D01*
X0187786Y0086494D01*
X0187951Y0086603D01*
X0188119Y0086707D01*
X0188289Y0086807D01*
X0188462Y0086903D01*
X0188637Y0086995D01*
X0188814Y0087083D01*
X0188993Y0087166D01*
X0189174Y0087244D01*
X0189357Y0087319D01*
X0189542Y0087388D01*
X0189728Y0087453D01*
X0189916Y0087514D01*
X0190106Y0087570D01*
X0190296Y0087621D01*
X0190488Y0087668D01*
X0190681Y0087710D01*
X0190875Y0087747D01*
X0191070Y0087780D01*
X0191266Y0087807D01*
X0191462Y0087830D01*
X0191658Y0087848D01*
X0191855Y0087862D01*
X0192053Y0087870D01*
X0192250Y0087874D01*
X0192250Y0087780D01*
X0192055Y0087776D01*
X0191860Y0087768D01*
X0191665Y0087755D01*
X0191471Y0087737D01*
X0191277Y0087714D01*
X0191084Y0087687D01*
X0190891Y0087655D01*
X0190700Y0087618D01*
X0190509Y0087576D01*
X0190319Y0087530D01*
X0190131Y0087480D01*
X0189944Y0087424D01*
X0189758Y0087364D01*
X0189574Y0087300D01*
X0189391Y0087231D01*
X0189210Y0087158D01*
X0189031Y0087080D01*
X0188854Y0086998D01*
X0188679Y0086911D01*
X0188507Y0086821D01*
X0188336Y0086726D01*
X0188168Y0086627D01*
X0188002Y0086524D01*
X0187839Y0086417D01*
X0187678Y0086306D01*
X0187521Y0086191D01*
X0187366Y0086072D01*
X0187214Y0085949D01*
X0187065Y0085823D01*
X0186919Y0085693D01*
X0186777Y0085560D01*
X0186638Y0085423D01*
X0186502Y0085283D01*
X0186370Y0085139D01*
X0186241Y0084993D01*
X0186313Y0084932D01*
X0186440Y0085077D01*
X0186571Y0085219D01*
X0186705Y0085357D01*
X0186842Y0085492D01*
X0186983Y0085624D01*
X0187127Y0085752D01*
X0187274Y0085877D01*
X0187424Y0085998D01*
X0187577Y0086115D01*
X0187733Y0086229D01*
X0187892Y0086339D01*
X0188053Y0086445D01*
X0188217Y0086546D01*
X0188383Y0086644D01*
X0188551Y0086738D01*
X0188722Y0086828D01*
X0188895Y0086913D01*
X0189070Y0086994D01*
X0189247Y0087071D01*
X0189425Y0087143D01*
X0189606Y0087212D01*
X0189788Y0087275D01*
X0189971Y0087334D01*
X0190156Y0087389D01*
X0190342Y0087439D01*
X0190530Y0087485D01*
X0190718Y0087526D01*
X0190908Y0087562D01*
X0191098Y0087594D01*
X0191289Y0087621D01*
X0191480Y0087643D01*
X0191672Y0087661D01*
X0191865Y0087674D01*
X0192057Y0087682D01*
X0192250Y0087686D01*
X0192250Y0087592D01*
X0192060Y0087588D01*
X0191869Y0087580D01*
X0191679Y0087567D01*
X0191490Y0087550D01*
X0191300Y0087528D01*
X0191112Y0087501D01*
X0190924Y0087470D01*
X0190737Y0087434D01*
X0190551Y0087393D01*
X0190366Y0087348D01*
X0190182Y0087299D01*
X0189999Y0087244D01*
X0189818Y0087186D01*
X0189638Y0087123D01*
X0189460Y0087056D01*
X0189283Y0086984D01*
X0189108Y0086908D01*
X0188936Y0086828D01*
X0188765Y0086744D01*
X0188596Y0086655D01*
X0188430Y0086563D01*
X0188265Y0086466D01*
X0188104Y0086366D01*
X0187944Y0086261D01*
X0187788Y0086153D01*
X0187634Y0086040D01*
X0187483Y0085924D01*
X0187334Y0085805D01*
X0187189Y0085682D01*
X0187047Y0085555D01*
X0186908Y0085425D01*
X0186772Y0085291D01*
X0186639Y0085155D01*
X0186510Y0085015D01*
X0186384Y0084871D01*
X0186456Y0084811D01*
X0186580Y0084952D01*
X0186708Y0085090D01*
X0186839Y0085225D01*
X0186973Y0085357D01*
X0187110Y0085486D01*
X0187251Y0085611D01*
X0187395Y0085733D01*
X0187541Y0085851D01*
X0187690Y0085965D01*
X0187842Y0086076D01*
X0187997Y0086183D01*
X0188154Y0086286D01*
X0188314Y0086386D01*
X0188476Y0086481D01*
X0188641Y0086573D01*
X0188807Y0086660D01*
X0188976Y0086743D01*
X0189147Y0086823D01*
X0189319Y0086898D01*
X0189494Y0086968D01*
X0189670Y0087035D01*
X0189847Y0087097D01*
X0190027Y0087155D01*
X0190207Y0087208D01*
X0190389Y0087257D01*
X0190571Y0087301D01*
X0190755Y0087341D01*
X0190940Y0087377D01*
X0191126Y0087408D01*
X0191312Y0087434D01*
X0191499Y0087456D01*
X0191686Y0087473D01*
X0191874Y0087486D01*
X0192062Y0087494D01*
X0192250Y0087498D01*
X0192250Y0087404D01*
X0192064Y0087400D01*
X0191879Y0087392D01*
X0191693Y0087380D01*
X0191508Y0087363D01*
X0191324Y0087341D01*
X0191140Y0087315D01*
X0190956Y0087284D01*
X0190774Y0087249D01*
X0190592Y0087210D01*
X0190412Y0087166D01*
X0190232Y0087117D01*
X0190054Y0087065D01*
X0189877Y0087008D01*
X0189702Y0086946D01*
X0189528Y0086881D01*
X0189356Y0086811D01*
X0189185Y0086737D01*
X0189017Y0086659D01*
X0188850Y0086576D01*
X0188686Y0086490D01*
X0188523Y0086400D01*
X0188363Y0086305D01*
X0188205Y0086207D01*
X0188050Y0086105D01*
X0187897Y0086000D01*
X0187747Y0085890D01*
X0187599Y0085777D01*
X0187455Y0085660D01*
X0187313Y0085540D01*
X0187174Y0085417D01*
X0187038Y0085290D01*
X0186906Y0085160D01*
X0186777Y0085026D01*
X0186650Y0084890D01*
X0186528Y0084750D01*
D21*
X0186100Y0084900D02*
X0186100Y0083100D01*
X0186100Y0076700D02*
X0186100Y0074700D01*
D22*
X0186850Y0120850D02*
X0182346Y0120850D01*
X0186850Y0120850D02*
X0186850Y0123853D01*
X0186850Y0125454D02*
X0183847Y0128456D01*
X0183097Y0128456D01*
X0182346Y0127706D01*
X0182346Y0126205D01*
X0183097Y0125454D01*
X0186850Y0125454D02*
X0186850Y0128456D01*
X0186099Y0130058D02*
X0186850Y0130808D01*
X0186850Y0132310D01*
X0186099Y0133060D01*
X0183097Y0133060D01*
X0182346Y0132310D01*
X0182346Y0130808D01*
X0183097Y0130058D01*
X0183847Y0130058D01*
X0184598Y0130808D01*
X0184598Y0133060D01*
X0183847Y0134662D02*
X0183097Y0134662D01*
X0182346Y0135412D01*
X0182346Y0136914D01*
X0183097Y0137664D01*
X0183847Y0137664D01*
X0184598Y0136914D01*
X0184598Y0135412D01*
X0183847Y0134662D01*
X0184598Y0135412D02*
X0185349Y0134662D01*
X0186099Y0134662D01*
X0186850Y0135412D01*
X0186850Y0136914D01*
X0186099Y0137664D01*
X0185349Y0137664D01*
X0184598Y0136914D01*
X0182346Y0139266D02*
X0186850Y0142268D01*
X0182346Y0142268D01*
X0182346Y0139266D02*
X0186850Y0139266D01*
X0034580Y0095501D02*
X0007020Y0095501D01*
X0007020Y0044320D01*
X0034580Y0044320D01*
X0034580Y0095501D01*
X0299546Y0048949D02*
X0302549Y0048949D01*
X0304050Y0047447D01*
X0302549Y0045946D01*
X0299546Y0045946D01*
X0299546Y0044345D02*
X0299546Y0041342D01*
X0301798Y0041342D01*
X0301047Y0042843D01*
X0301047Y0043594D01*
X0301798Y0044345D01*
X0303299Y0044345D01*
X0304050Y0043594D01*
X0304050Y0042093D01*
X0303299Y0041342D01*
D23*
X0258037Y0056966D02*
X0256169Y0056966D01*
X0257570Y0058367D01*
X0257570Y0055565D01*
X0255275Y0056966D02*
X0254808Y0056499D01*
X0253406Y0056499D01*
X0253406Y0055565D02*
X0253406Y0058367D01*
X0254808Y0058367D01*
X0255275Y0057900D01*
X0255275Y0056966D01*
X0252512Y0058367D02*
X0250644Y0058367D01*
X0251578Y0058367D02*
X0251578Y0055565D01*
X0193037Y0056032D02*
X0192570Y0055565D01*
X0191636Y0055565D01*
X0191169Y0056032D01*
X0190275Y0056966D02*
X0189808Y0056499D01*
X0188406Y0056499D01*
X0188406Y0055565D02*
X0188406Y0058367D01*
X0189808Y0058367D01*
X0190275Y0057900D01*
X0190275Y0056966D01*
X0191169Y0057900D02*
X0191636Y0058367D01*
X0192570Y0058367D01*
X0193037Y0057900D01*
X0193037Y0057433D01*
X0192570Y0056966D01*
X0193037Y0056499D01*
X0193037Y0056032D01*
X0192570Y0056966D02*
X0192103Y0056966D01*
X0187512Y0058367D02*
X0185644Y0058367D01*
X0186578Y0058367D02*
X0186578Y0055565D01*
X0211578Y0088065D02*
X0211578Y0090867D01*
X0210644Y0090867D02*
X0212512Y0090867D01*
X0213406Y0090867D02*
X0214808Y0090867D01*
X0215275Y0090400D01*
X0215275Y0089466D01*
X0214808Y0088999D01*
X0213406Y0088999D01*
X0213406Y0088065D02*
X0213406Y0090867D01*
X0216169Y0090867D02*
X0216169Y0089466D01*
X0217103Y0089933D01*
X0217570Y0089933D01*
X0218037Y0089466D01*
X0218037Y0088532D01*
X0217570Y0088065D01*
X0216636Y0088065D01*
X0216169Y0088532D01*
X0216169Y0090867D02*
X0218037Y0090867D01*
X0087824Y0057900D02*
X0087357Y0058367D01*
X0086423Y0058367D01*
X0085956Y0057900D01*
X0085062Y0057900D02*
X0085062Y0056966D01*
X0084595Y0056499D01*
X0083193Y0056499D01*
X0083193Y0055565D02*
X0083193Y0058367D01*
X0084595Y0058367D01*
X0085062Y0057900D01*
X0085956Y0055565D02*
X0087824Y0057433D01*
X0087824Y0057900D01*
X0087824Y0055565D02*
X0085956Y0055565D01*
X0081365Y0055565D02*
X0081365Y0058367D01*
X0080431Y0058367D02*
X0082299Y0058367D01*
X0072824Y0055565D02*
X0070956Y0055565D01*
X0071890Y0055565D02*
X0071890Y0058367D01*
X0070956Y0057433D01*
X0070062Y0056966D02*
X0069595Y0056499D01*
X0068193Y0056499D01*
X0068193Y0055565D02*
X0068193Y0058367D01*
X0069595Y0058367D01*
X0070062Y0057900D01*
X0070062Y0056966D01*
X0067299Y0058367D02*
X0065431Y0058367D01*
X0066365Y0058367D02*
X0066365Y0055565D01*
M02*
